<svg xmlns="http://www.w3.org/2000/svg" viewBox="0 0 240 208"><title>category_practicum</title><path d="M80,200.38a3.62,3.62,0,0,0,.21,1.31A6.37,6.37,0,0,0,83.66,205c4.72,2.32,10.22,1.81,15.31,2.12q8.93.56,17.86.74,7.24.16,14.5.11c6.08,0,12.36-.22,18-3,1.63-.79,3.29-1.89,3.9-3.65.84-2.42-.73-5.17-2.88-6.4-2.5-1.43-6.23-1.87-9.05-2.56-4.15-1-8.76-1-13-1.32a160.45,160.45,0,0,0-22.89-.29C101.46,191,80.26,193.69,80,200.38Z" style="fill:#e5e5e5;"/><path d="M155.21,50.82c13.53,36.34,7.88,76.7-11.35,108.65-31.59-7.61-61.8-17.65-88-44.16C88.16,86.86,130,41.77,132.14,42.9c5,2.7,13.1,6.84,18.69,7.89C152.67,51.14,153.76,52,155.21,50.82Z" style="fill:#bbdff5;"/><path d="M154.24,51.08c10.19,27.63,9.57,58.29-.51,85.86A132.89,132.89,0,0,1,143,159.45l1.5-.5C119.73,153,95.25,145,74.38,130a140.36,140.36,0,0,1-17.65-15.11l-.13.53c15.88-14,30.95-28.88,46-43.78,6.15-6.11,12.28-12.25,18.49-18.31,3.39-3.31,6.75-6.91,10.59-9.71.21-.15.49-.31.49-.31s-.76,0-.76,0,1.73.92,1.89,1c2.76,1.45,5.55,2.85,8.42,4.08a46.76,46.76,0,0,0,7.8,2.71c2.25.52,4.25,1.36,6.33-.06,1.08-.73-.59-1-1.2-.56-1,.68-2.88-.18-3.94-.43a34.79,34.79,0,0,1-4.22-1.29,85,85,0,0,1-7.89-3.47c-1.18-.57-2.34-1.17-3.5-1.78a10,10,0,0,0-2.35-1.2,2.47,2.47,0,0,0-1.55.3,16,16,0,0,0-3.43,2.63c-2,1.73-3.88,3.55-5.77,5.38C108.37,63.76,95.2,77.27,81.65,90.4c-8.71,8.42-17.51,16.75-26.6,24.76-.14.12-.3.35-.13.53a141.33,141.33,0,0,0,32.45,24.4,184.56,184.56,0,0,0,34.9,14.26c6.93,2.12,14,3.94,21,5.64a1.6,1.6,0,0,0,1.5-.51c15-25.15,21.76-55.18,17.64-84.31a119.39,119.39,0,0,0-6.23-24.61C155.93,49.9,154,50.46,154.24,51.08Z" style="fill:#232937;"/><path d="M156,117.17c.05-.35-21.69-7.59-25.45-8.7-8.06-2.38-31.25-12.57-31.34-12.6-.31-.14-.44,1-.46,1.14a31.15,31.15,0,0,0-.26,3.62c-.07,1.87-.09,3.75-.08,5.63,0,2.4,0,4.8.1,7.2.07,2.77.17,5.53.29,8.3.13,3,.28,6,.46,9s.4,6.1.64,9.15.5,5.94.81,8.91c.29,2.73.6,5.46,1,8.18.32,2.35.69,4.7,1.14,7a49.92,49.92,0,0,0,1.3,5.4,12.09,12.09,0,0,0,1.46,3.33c.53.76,1.48,1,1.76-.07,1.15-4.28,2.78-8.49,4.15-12.72q2.41-7.43,4.74-14.88l3.93-12.55c.29-.94.57-1.89.87-2.83.1-.35.58-2.29,1.26-1.9s-.35,3.07-.54,3.71c-.44,1.47-.87,2.94-1.31,4.41q-1.83,6.13-3.67,12.28c-1.31,4.41-2.63,8.82-3.93,13.23-1,3.27-1.93,6.53-2.85,9.8-.16.57-.79,1.85-.64,2.45a1.05,1.05,0,0,0,.76.74c.82.18,1.59-.76,2.09-1.27,3.92-4,7.94-8,11.77-12.1,1.89-2,3.71-4.11,5.53-6.2s3.53-4.38,5.45-6.41a.69.69,0,0,1,.11-.13,197.5,197.5,0,0,0,14.75-20,90,90,0,0,0,5.3-8.72A8.54,8.54,0,0,0,156,117.17Z" style="fill:#d1d1d1;"/><path d="M156,117.17c.05-.35-21.69-7.59-25.45-8.7-8.06-2.38-29.12-11.59-29.13-11.5-.51,3.61.9,31.48,1.08,34.46s2.4,40.3,3.09,41.29c.53.76,1.48,1,1.76-.07,1.15-4.28,2.78-8.49,4.15-12.72q2.41-7.43,4.74-14.88l3.93-12.55c.29-.94.57-1.89.87-2.83.1-.35.53-1.63,1.26-1.9,4.57-1.72-2.48,17.92-3.7,22-1.32,4.41-8.84,24.52-8.48,24.61.82.18,1.59-.76,2.09-1.27,3.92-4,7.94-8,11.77-12.1,1.89-2,3.71-4.11,5.53-6.2s3.53-4.38,5.45-6.41a.69.69,0,0,1,.11-.13,197.5,197.5,0,0,0,14.75-20,90,90,0,0,0,5.3-8.72A8.54,8.54,0,0,0,156,117.17Z" style="fill:#e5e5e5;"/><path d="M98.78,96.82a1,1,0,0,0-.14.78c.11.44.76.63,1.11.82s1,.44,1.49.73,1,.55,1.48.83c2.39,1.41,4.79,2.81,7.2,4.17s4.64,2.57,7,3.77c1.19.61,2.39,1.21,3.59,1.78.61.29,1.21.57,1.82.84a5.93,5.93,0,0,1,1.52.79c1.84,1.67,4.53,2.38,6.84,3.11q7.67,2.43,15.45,4.49a22.24,22.24,0,0,1,3.37,1,10.89,10.89,0,0,0,3.69.88,1.72,1.72,0,0,0,1.62-2.07c-.22-1.07-1.28-1.24-2.15-1.44-8.91-2.09-18.27-3.78-26.61-7.34a150,150,0,0,1-15.75-8.09,15.7,15.7,0,0,1-2.53-1.47l-2.59-1.52c-1.53-.91-2.92-2-4.42-2.9a1.59,1.59,0,0,0-.61-.27C99.61,95.65,99,96.36,98.78,96.82Z" style="fill:#d1d1d1;"/><path d="M97.94,98.31c8.91,5.17,17.87,10.69,27.33,14.79a107.62,107.62,0,0,0,13,4.29c4.74,1.38,9.51,2.68,14.28,4,.41.1,1.93-.55,1.44-.68q-6.9-1.81-13.76-3.79a104.72,104.72,0,0,1-13.64-4.51c-9.33-4.13-18.19-9.53-27-14.64-.43-.25-1.87.46-1.65.59Z" style="fill:#232937;"/><path d="M156.94,116.91c-.34-.74-3.1-1.29-3.75-1.52-2.84-1-5.69-2-8.55-2.94-5-1.68-10-3.16-15-4.9a191.67,191.67,0,0,1-19-8.4q-4-1.92-7.9-3.88c-.92-.46-2.06-1.35-3.13-1.24-2.7.29-2.13,6.62-2.17,8.27-.13,5.81,0,11.64.27,17.46.46,12.07,1.11,24.22,2.77,36.19.43,3.09.94,6.17,1.56,9.23.48,2.39.89,5.87,2.55,7.8,1.4,1.64,3.32.38,4-1.22,1.71-4.14,2.92-8.54,4.31-12.79,2.24-6.82,4.44-13.64,6.66-20.46.83-2.53,1.65-5,2.5-7.57.23-.7.77-3,1.12-3.24l-1.8.4c.28.13-3.19,10.75-3.47,11.67-1.34,4.47-2.69,8.95-4,13.42s-2.66,9-4,13.49c-.41,1.41-2.94,7.3-.62,8.08s4.15-1.71,5.34-3.08c3.1-3.55,6.44-6.92,9.66-10.37,5.71-6.13,11.29-12.45,16.44-19.07q4.62-6,8.79-12.24c1.41-2.15,2.83-4.3,4.19-6.49a22.11,22.11,0,0,0,3.22-6.51c.1-.43-1.81-.15-1.92.34-.83,3.68-3.56,7.07-5.58,10.18-2.19,3.37-4.41,6.7-6.77,9.94C138,143.81,133,149.82,127.8,155.7c-2.85,3.23-5.82,6.35-8.77,9.49-1.34,1.43-2.69,2.87-4,4.31-.72.77-1.45,1.53-2.14,2.32-.38.44-.89,1.35-1.4,1.61-2,1-.92-2.38-.72-3.28.48-2,1.14-4.05,1.72-6.06q1.74-6,3.52-12,2-6.72,4-13.42c.7-2.32,1.39-4.65,2.08-7,.37-1.25,1.19-2.9,1.14-4.21l0-.08h0a2,2,0,0,0-1.79.4c-.85.71-1.18,3.16-1.51,4.14-1.11,3.31-2.18,6.63-3.26,9.95-2.59,8-5.15,15.93-7.8,23.87-.52,1.54-1,3.09-1.57,4.62-.26.77-.56,2.43-1.32,2.88l1.37-.37c-1.26,0-1.91-2.77-2.23-3.79a52.08,52.08,0,0,1-1.24-5.22q-1-5.37-1.71-10.81c-.89-7-1.39-14-1.82-21.08-.42-6.8-.74-13.61-.88-20.42-.08-3.51-.12-7,0-10.53a38.69,38.69,0,0,1,.33-4.56c.06-.36.12-.72.19-1.07.13-.58.6-1.1-.15-.81l-1.26.1c7.35,3.6,14.64,7.28,22.13,10.56,7.67,3.37,15.72,5.65,23.65,8.33,2.44.83,4.88,1.66,7.31,2.52.59.21,3.18.82,3.4,1.29S157.1,117.25,156.94,116.91Z" style="fill:#232937;"/><path d="M109.79,108.21a10.36,10.36,0,0,1-4.93,6c-1.14.62.62.71,1.16.41a11.71,11.71,0,0,0,5.69-6.69c.17-.52-1.74-.27-1.92.29Z" style="fill:#232937;"/><path d="M140.12,119a14.9,14.9,0,0,0,2,9c.4.7,2.27,0,1.78-.82a13.83,13.83,0,0,1-1.83-8.39c.09-.94-1.88-.64-2,.17Z" style="fill:#232937;"/><path d="M98.14,94.68A137.87,137.87,0,0,1,106.59,76q2.68-5,5.74-9.79,1.52-2.37,3.15-4.67c.9-1.27,2.46-2.67,3.11-4s0-2.78-.32-4.06c1.56-.82,3.32-.94,4.92-1.61s2.29-2.16,3.45-3.2a33,33,0,0,1,7.83-5.42c5.1-2.41,10.63-2.27,15.12,1.35.44.36.86.73,1.26,1.12,11.6,11.29,9.81,43.3,4.78,73.64,0,0-25-7.77-32.92-11.34C116,104.92,98.14,94.68,98.14,94.68Z" style="fill:#e5e5e5;"/><path d="M162.57,33C166.45,20.2,164,8.09,157,6s-15.77,6.58-19.65,19.42l-.7,2.3c-2.15,7.11-3,12.25-3,16,0,7.76,7.65,13.29,7.65,13.29s9.6-.26,13.76-5.93c2.27-3.1,4.54-8.06,6.86-15.75C162,34.82,162.48,33.34,162.57,33Z" style="fill:#e5e5e5;"/><path d="M101.39,97c3.72-10.43,10.53-25.63,18.22-37.4.47-.71-.37-.58-1-2.27a25.77,25.77,0,0,1-.57-4.37c2.56-.54,5.59-.89,7.33-3a.51.51,0,0,1,.32-.22c.24,0,.39.24.48.46a27.11,27.11,0,0,0,7.28,9.7c3.19,2.89,6.77,5.77,11.12,6.54.44.08,2.74-2.19,3.18-2.12,1.66.26,1.46,2.82,3.45,3.21,2.85.55,7-5.39,7-5.39,2.76,15.13.84,36.52-2.58,57.14,0,0-25-7.77-32.92-11.34C116,104.92,101.39,97,101.39,97Z" style="fill:#fff;"/><path d="M157.06,58.19l-1.55-5.45-7.93,3.07-16.5-10.35a26.34,26.34,0,0,0-2.25,1.63c-.68.65,2.83,6.46,4.59,8.78A51.19,51.19,0,0,0,141,63a10.93,10.93,0,0,0,2.64,1.67c.08,0,1.55.67,1.57.63L147.7,60l3.51,6S156.6,63.55,157.06,58.19Z" style="fill:#fff;"/><path d="M161.87,35.33c.16-.51.61-2,.7-2.3C166.45,20.2,164,8.09,157,6c-3-.91-5.27.24-7,2.7a86.4,86.4,0,0,0-11.27,21.21c-1,2.8-1.91,6.19-2.44,8s-1.8,6.29-1.8,6.29-.86-.32-.91-.2a1.43,1.43,0,0,0-.08.22c-1.24.07-2.33.39-2.36,1.31,0,1.42.88,5.78,2,7.47a15.14,15.14,0,0,0,2.1,2.42,18.32,18.32,0,0,0,3.82,2.7,12.69,12.69,0,0,0,7.09,1.44c2.64-.15,8.09-3.3,9.18-6.06a2.2,2.2,0,0,0-.38-2.25l.09-.1C157.28,48,159.55,43,161.87,35.33Z" style="fill:#fff;"/><path d="M147,60.24c1.1,2,2.18,4.09,3.32,6.11.22.39,1,.24,1.3.1A11,11,0,0,0,158,58.1c.11-.92-1.87-.62-2,.18a9.2,9.2,0,0,1-5.29,7.14l1.31.1c-1.14-2-2.21-4.07-3.32-6.1-.37-.69-2.24,0-1.78.82Z" style="fill:#232937;"/><path d="M146.26,59.48l-2.1,6.25,1.87-.5C139.19,61.51,132.68,55,129.44,48c-.26-.56-2.14.07-1.94.52a40.13,40.13,0,0,0,16.71,17.46c.45.25,1.68.07,1.87-.5l2.11-6.25c.17-.5-1.74-.26-1.93.3Z" style="fill:#232937;"/><path d="M146.3,70.91c-1.26,4.31-2.54,8.61-3.78,12.93a30.88,30.88,0,0,1-7.11,13c.15,1.59,2.54,7.17,2.26,8.79,1.2-.68,6-3.73,7.2-4.46,2.46-1.48,4.18-15.33,4.41-19.46.11-2.08.89-11.46-1-11.9l-.69-.16c-.53-.12-1.11.37-1.28,1.11Z" style="fill:#ddd;"/><path d="M146.53,70.45c-.9,4.39-1.82,8.79-2.69,13.19a30.84,30.84,0,0,1-6,13.6c.29,1.57,3.14,6.93,3,8.57,1.15-.77,5.65-4.21,6.81-5C150,99.09,150.52,85.14,150.4,81c-.06-2.08-.07-11.49-2-11.77l-.7-.1c-.54-.08-1.07.46-1.18,1.21A.43.43,0,0,1,146.53,70.45Z" style="fill:#bbdff5;"/><path d="M145.79,70.49c-1.54,7.54-2.31,15.88-6,22.72a25.47,25.47,0,0,1-1.4,2.29c-.28.4-1.13,1.17-1.22,1.64a4.56,4.56,0,0,0,.62,2.16c.8,2,2.35,4.38,2.33,6.56,0,.65.86.56,1.22.31,1.42-1,2.79-2,4.16-3.08a15.57,15.57,0,0,0,3.15-2.49c1.77-2.28,1.81-6.36,2.08-9.08A95.61,95.61,0,0,0,151.14,81a46.82,46.82,0,0,0-.75-9.75c-.26-1.07-.57-2.18-1.71-2.52a2.18,2.18,0,0,0-2.89,1.81c-.13.76,1.36.59,1.48-.09.3-1.67,1.24-.16,1.44.38a11.83,11.83,0,0,1,.49,2.35,52.28,52.28,0,0,1,.42,6c.08,3.05,0,6.09-.14,9.14-.22,3.56-.26,7.81-1.72,11.14-.54,1.25-1.83,1.9-2.89,2.69-1.5,1.13-3,2.29-4.53,3.36l1.22.3c0-2.05-1.22-4.18-2-6-.37-.86-1-1.93-.72-2.76a13.92,13.92,0,0,1,1.43-2.07c.42-.67.81-1.36,1.18-2.07,3.51-6.83,4.29-15,5.81-22.44C147.43,69.65,145.93,69.81,145.79,70.49Z" style="fill:#232937;"/><path d="M147,64.3a.75.75,0,0,1,1.25-.07A11,11,0,0,1,150.06,67c.43.74.62,1.25-.42,1.47a16.9,16.9,0,0,1-2.94.12c-1.51.06-.72-2.34-.4-3A6.65,6.65,0,0,1,147,64.3Z" style="fill:#bbdff5;"/><path d="M147.66,64.3c-.24.26.17.46.33.66a6.61,6.61,0,0,1,.6.89c.26.45.5.9.75,1.35a4,4,0,0,1,.27.55c.11.39,0,.32-.28.43a7.1,7.1,0,0,1-2.06,0c-.94,0-.78-1-.61-1.68a6.7,6.7,0,0,1,1-2.23c.36-.5-1.08-.37-1.35,0a5.65,5.65,0,0,0-1.2,3.8,1.11,1.11,0,0,0,1.13.89,13,13,0,0,0,3.3-.13c.57-.12,1.52-.38,1.59-1.09s-.74-1.72-1.08-2.31-.91-1.6-1.72-1.85a2,2,0,0,0-2,.69c-.24.26.21.38.39.39A1.28,1.28,0,0,0,147.66,64.3Z" style="fill:#232937;"/><path d="M145.84,41.43a22.34,22.34,0,0,1,2.79,2.63,4.51,4.51,0,0,0,3.59,1c1.06-.12,1.5-1.54.18-1.39-2.32.26-3.31-2.3-5.05-3.38-.71-.43-2.42.54-1.51,1.11Z" style="fill:#232937;"/><path d="M164.06,13.84c1.29-1,3.42-2.67,3.69-4.35.39,2,.24,4.12.56,6.15a14.48,14.48,0,0,1,.25,3.41,9.57,9.57,0,0,1-2,4.84,27,27,0,0,1-3.64,3.84c.16.19.41-.14.45-.39l.39-3.23c-.23.18-1,.41-1.23.59L161,25.87a2.64,2.64,0,0,0,.39-2.28l-.37-.05a6.55,6.55,0,0,1-2.46,1.19l.5-.06a4.43,4.43,0,0,0-.12-1.62c-.27-1-1-1.85-1.22-2.85-.4-1.53.29-1.29,1.13-2.4C160.13,16.13,162.43,15.09,164.06,13.84Z" style="fill:#bbdff5;"/><path d="M135.75,9.14c.25-.21.49-.43.72-.65a17.27,17.27,0,0,1-5.65-1.33A10.93,10.93,0,0,0,137,6.77c6.6-2.12,12.47-7,19.7-6.77a10.67,10.67,0,0,1,7.24,3.68c1.61,1.72,4.5,4.32,2.42,6.5A33,33,0,0,1,154.77,18,32.85,32.85,0,0,1,148,19.84a8,8,0,0,0-3,.65,6.94,6.94,0,0,0-1.93,2.28c0-.23-.4-3-.74-2.78a9.88,9.88,0,0,0-3.06,2.73c-.66,1-.26,2.72-1.14,3.45-1.41-.76-1.23-2.7-1.22-4.05,0-1.18-2.29.12-2.7.32-1.06.54-3.74,1.11-4.3,2,.88-1.46,1.75-2.93,2.62-4.39-1.56.05-3.13.05-4.69,0,1.27,0,3.26-2.09,4-2.94A20.46,20.46,0,0,0,135.1,13a20.73,20.73,0,0,1-2.24.13,2.51,2.51,0,0,1-2-1.23A19.39,19.39,0,0,0,135.75,9.14Z" style="fill:#bbdff5;"/><path d="M121.77,61.34c-2.15-2.35-2.53-5.62-2.71-8.67l-.6.61a21.13,21.13,0,0,1,4.35-1A3.78,3.78,0,0,0,125.37,51c2.73-2.56,5.48-5.24,8.82-7a.59.59,0,0,0,.38-.51c0-6.2,1.91-12.33,3.73-18.2,1.92-6.23,5.15-12.8,10.49-16.81,2.11-1.59,4.74-2.8,7.41-2a9,9,0,0,1,5.25,5c2.94,6.09,2.29,13.67.64,20-1.73,6.7-3.9,14-8,19.66-.48.67,1.45.48,1.79,0,4.09-5.69,6.24-12.89,8-19.58s2.61-15.33-1.09-21.63c-2.63-4.49-7.5-5.73-12.18-3.71C144.91,8.65,141,14.47,138.46,20a74.94,74.94,0,0,0-4.18,12.84A47.49,47.49,0,0,0,132.63,44l.38-.5c-3.33,1.73-6.08,4.33-8.82,6.88A8.76,8.76,0,0,0,123,51.5c-.11-.36,1.4-.2.12-.21a6,6,0,0,0-.73.08,23.37,23.37,0,0,0-4.65,1.2c-.25.09-.62.31-.6.62.19,3.14.63,6.47,2.84,8.89.42.46,2.27-.24,1.81-.74Z" style="fill:#232937;"/><path d="M117.41,57.84A137.5,137.5,0,0,0,97.22,94.59a.48.48,0,0,0,.17.63c7.29,4.18,14.62,8.37,22.15,12.11,8.33,4.13,17.47,6.78,26.3,9.64q4.6,1.48,9.22,2.93c.52.16,1.44-.08,1.55-.71a259.88,259.88,0,0,0,3.87-37.65c.17-9.67-.2-20-4-29.06-.27-.64-1.41-.48-1.77,0A12.3,12.3,0,0,1,152.24,55c-2.44,1.82-4.92,1.18-7.47-.12-4.39-2.23-7.38-6.32-10.23-10.21-.49-.66-2.35.07-1.78.84,3.56,4.86,7.47,9.89,13.51,11.67,4,1.18,7.63-.91,10-4.13h-1.78c3.85,9.15,4.18,19.62,4,29.4a263.63,263.63,0,0,1-3.86,37l1.54-.71c-7.38-2.3-14.74-4.68-22-7.22a115.13,115.13,0,0,1-12.13-4.7c-4.54-2.19-9-4.65-13.36-7.09q-4.91-2.72-9.76-5.5l.17.63a135.94,135.94,0,0,1,20-36.41c.74-1-1.1-1.18-1.61-.52Z" style="fill:#232937;"/><path d="M195,28.55c.93,0,2.56-.6,1.8-1.82-.61-1-2.2-.68-2.88,0s-1.09,2.2-1.59,3.15c-.7,1.34-1.46,2.64-2.25,3.93-1.56,2.54-3.18,5.06-4.87,7.52-6.38,9.26-14.53,17.74-25.46,21.35-1.14.37-.88,1.45.29,1.06a47.38,47.38,0,0,0,20-13.42,87.55,87.55,0,0,0,8.23-10.74c1.38-2.08,2.73-4.19,4-6.33.58-1,1.15-2,1.68-3s1-2.72,1.77-3.4l-1.16.4.32.43,1.15-.39h-.31c-.78,0-2,1.2-.74,1.18Z" style="fill:#232937;"/><path d="M117.38,57.94A136,136,0,0,1,96.77,72.67Q91.1,76,85.15,78.85c-2.05,1-4.12,1.93-6.21,2.84-1.84.79-4.43,2.63-6.17,1.09-.36-.32-2.07.43-1.83.64a3.55,3.55,0,0,0,3.85.63,67.12,67.12,0,0,0,6.9-2.9q6.91-3.08,13.53-6.75a139.58,139.58,0,0,0,23.9-16.64c.37-.32-1.4-.12-1.74.18Z" style="fill:#232937;"/><path d="M145.52,23c-2-1.75-5.2-3.71-8-3.21-1.56.27-3.14,2.37-1.32,3.48.42.25,1.45-.33.9-.66-1.66-1,.54-2.1,1.61-2a8.6,8.6,0,0,1,2.15.65,13.08,13.08,0,0,1,3.75,2.39c.37.33,1.4-.22.9-.66Z" style="fill:#232937;"/><path d="M157.15,28.14c-.35-2.39-3.65-2.3-4.79-.56a1.44,1.44,0,0,0,1.15-.22c.92-1.4,2.3-.06,2.47,1.1,0,.19,1.21-.05,1.17-.32Z" style="fill:#232937;"/><path d="M150.76,22l.13,3.29a.39.39,0,0,0,.18.31l2.79,1.75a.38.38,0,0,1-.07.68l-3.09,1.14a.4.4,0,0,0-.24.27l-.8,3.19a.38.38,0,0,1-.67.14l-2-2.58a.37.37,0,0,0-.32-.14l-3.29.22a.38.38,0,0,1-.34-.59l1.82-2.75a.36.36,0,0,0,0-.35l-1.22-3.06a.37.37,0,0,1,.45-.5l3.17.89a.44.44,0,0,0,.35-.07l2.53-2.12A.38.38,0,0,1,150.76,22Z" style="fill:#f9e280;"/><path d="M150,22c0,1-.24,2.66.21,3.58.29.58,3.17,2.21,3.21,1.94-.09.51-3.07.92-3.58,1.62-.68.95-.3,2.71-1.09,3.47l1.1-.29c-.86-.31-1.37-1.81-2.08-2.43s-1.29-.46-2.13-.41a14.85,14.85,0,0,1-1.88.13c-.49,0,0,.06,0,.2a1.87,1.87,0,0,1,.38-.58,6.55,6.55,0,0,0,1.57-2.59,5.86,5.86,0,0,0-1-2.83c-.41-.59,0-.12-.57-.4s-.11.13,0,.2a9.67,9.67,0,0,0,2,.57,2.35,2.35,0,0,0,2.07-.08A11.34,11.34,0,0,0,149.54,23a5.4,5.4,0,0,0,.77-.65c.52-.61,0,.37-.26,0,.4.59,1.88,0,1.42-.69l-.23-.33a.72.72,0,0,0-.64-.23,2.93,2.93,0,0,0-1.68.86A14,14,0,0,0,147.66,23c-.46.48-.68.28,0,.37-1.2-.16-3.1-1.47-4.28-.74-1.4.87.45,2.79.58,3.86s-1.72,2.25-1.76,3.64a.42.42,0,0,0,.19.4c1.31.7,2.88-.42,4.11.1-.37-.16.88,1.34,1.11,1.63.43.55.65.94,1.31,1.18a1.08,1.08,0,0,0,1.1-.3c.89-.85.66-3.1,1.15-3.61,0,0,1.54-.51,2-.66a2.92,2.92,0,0,0,1.57-.92.48.48,0,0,0,.05-.58c-.55-1.15-2.26-1.18-3-2.15-.45-.64-.2-2.41-.23-3.28S149.94,21.31,150,22Z" style="fill:#232937;"/><path d="M163.07,25.33l.66,3.23a.4.4,0,0,0,.22.28l3,1.28a.38.38,0,0,1,0,.68l-2.87,1.63a.37.37,0,0,0-.19.29L163.69,36a.38.38,0,0,1-.63.24L160.62,34a.38.38,0,0,0-.34-.09l-3.21.75a.38.38,0,0,1-.43-.53l1.36-3a.34.34,0,0,0,0-.35L156.28,28a.38.38,0,0,1,.37-.57l3.28.37a.34.34,0,0,0,.32-.13l2.16-2.49A.38.38,0,0,1,163.07,25.33Z" style="fill:#f9e280;"/><path d="M162.29,25.54c.22,1.05.18,2.82,1,3.63a12,12,0,0,0,3.41,1.24c0,.41-2.85,1.42-3.22,1.95-.75,1,.1,2.81-.62,3.77l.92-.33c-.63-.12-1.58-1.54-2.3-2a2.17,2.17,0,0,0-2-.17c-.69.15-1.37.33-2.06.47-.43.09-.17.09-.17.09,0,.24.44-.51.42-.49A6.47,6.47,0,0,0,158.78,31a5.58,5.58,0,0,0-1.4-2.66c-.14-.15-.19-.46-.35-.59-.64.15-.82.24-.53.26l.31,0a7.69,7.69,0,0,0,2.1.24,2.4,2.4,0,0,0,2-.42,10.12,10.12,0,0,0,1.17-1.35,4.29,4.29,0,0,0,.66-.76c.11-.21.42-.24.17-.16l-.85-.16.27.29c.46.47,1.93-.14,1.43-.67l-.27-.29a.89.89,0,0,0-.85-.16,2.62,2.62,0,0,0-1.38,1l-1,1.11c-.15.18-.94.92-.42.7s-.32-.15-.61-.18L157.84,27a2.82,2.82,0,0,0-1.88.18c-.18.08-.45.26-.46.48,0,1.37,1.74,2.39,1.68,3.63-.05,1-2.16,2.93-1,3.79,1,.74,3-.63,4.1-.61-.4,0-.23,0,.17.4a14.39,14.39,0,0,0,1.08,1,3,3,0,0,0,1.63,1,1.12,1.12,0,0,0,.92-.33,2.64,2.64,0,0,0,.48-1.68c0-.32.16-2.35,0-2,.3-.49,1.68-.95,2.18-1.24A2.58,2.58,0,0,0,168,30.52a.36.36,0,0,0,0-.4c-.75-1.07-2.49-.82-3.33-1.7-.51-.53-.59-2.47-.76-3.29C163.71,24.46,162.15,24.86,162.29,25.54Z" style="fill:#232937;"/><path d="M69.6,92.49c-5.95,7.89-13.68,13.81-22.26,18.6-1.13.64.59.85,1.19.52,8.8-4.92,16.76-11,22.87-19.11.5-.66-1.43-.49-1.8,0Z" style="fill:#232937;"/><path d="M52.58,101.42c-5.22,5.48-12,8.9-19,11.52-1.27.47-.11,1,.75.73,7.43-2.78,14.49-6.44,20-12.24.53-.57-1.39-.44-1.8,0Z" style="fill:#232937;"/><path d="M55.67,121.84a56.47,56.47,0,0,0-7.75,7.08c-.34.35.3.47.51.49a1.75,1.75,0,0,0,1.29-.51,53.2,53.2,0,0,1,7.49-6.82c.39-.27.13-.48-.16-.6s-1.06.15-1.38.36Z" style="fill:#232937;"/></svg>