<svg xmlns="http://www.w3.org/2000/svg" viewBox="0 0 240 208"><title>category_getting_started</title><path d="M81.79,195.83a4,4,0,0,0,.27,1.69c.77,2.06,2.87,3.45,5,4.44,6.88,3.22,15,2.84,22.49,3.5q13.13,1.15,26.29,1.85,10.68.57,21.36.86c9,.26,18.21.33,26.57-2.93,2.41-.94,4.89-2.27,5.84-4.52,1.3-3.08-.94-6.69-4.08-8.39-3.65-2-9.13-2.72-13.26-3.75-6.1-1.51-12.9-1.71-19.15-2.35a271.13,271.13,0,0,0-33.71-1.52C113.62,184.84,82.33,187.21,81.79,195.83Z" style="fill:#e5e5e5"/><path d="M172,194.29a2.65,2.65,0,0,0-.43,4.08c1.45,1.46,3.93,1,5.61.28.24-.1.53-.29.23-.46s-1,.12-1.27.23a2.66,2.66,0,0,1-3.27-1.26,2.28,2.28,0,0,1,.51-2.82c.31-.2.21-.34-.1-.39a2.2,2.2,0,0,0-1.28.34Z" style="fill:#232937"/><path d="M165.54,195.34c-.22,4.55,2.87,8,7.23,8.87s8.67-.84,12.2-3.26c.81-.55-1-.53-1.43-.23-3.24,2.21-7.19,3.62-11,2.16a7.8,7.8,0,0,1-5.16-7.8c0-.67-1.78-.29-1.8.26Z" style="fill:#232937"/><path d="M119.84,69.76c8.12-6.93,17.06-13.43,23.23-22.29,2.05-2.95,4.57-8,.13-10.16a10.39,10.39,0,0,0-5.63-.66,19.45,19.45,0,0,0-3.86.79c-1.19.38-2.58,1.34-3.82.74-.79-.39-2.07.77-1,1.27,1.43.7,2.93.16,4.32-.36A14.93,14.93,0,0,1,140.29,38c2.57.37,4.07,2.12,3.4,4.78-.61,2.4-2.44,4.57-4,6.49-6,7.54-13.83,13.35-21.1,19.57-.94.79.49,1.51,1.21.89Z" style="fill:#232937"/><path d="M178.59,195a1.88,1.88,0,0,1-1.86-1.64c-5.25-40.61-10.68-82.61-30.14-119.66-16.8-32-50.95-67-96.39-69.12A1.88,1.88,0,1,1,50.37.84C70.64,1.8,90.92,9.52,109,23.19A146.48,146.48,0,0,1,149.91,72c19.77,37.64,25.24,80,30.54,120.92a1.87,1.87,0,0,1-1.62,2.1Z" style="fill:#fff"/><path d="M178.92,194.42c-1.89-.23-1.77-5.08-2-6.54-.29-2.19-.57-4.38-.86-6.57q-.89-6.6-1.82-13.19C173,159.53,171.67,151,170,142.43c-3.3-17.24-7.67-34.34-14.16-50.68C145.31,65.17,128.63,40.92,105.28,24A105.31,105.31,0,0,0,66,6,95,95,0,0,0,55.23,4.35c-1-.1-1.95-.18-2.93-.25C51,4,48.45,3.89,50,2.17c.79-.87.82-.71,1.89-.64l1.24.09c1.24.1,2.49.23,3.72.38A98.92,98.92,0,0,1,81.18,8.27c32,12.66,56.62,40,71.17,70.63,15.18,32,21,67.25,25.6,102,.28,2.09.56,4.17.83,6.26.14,1.12,1.47,7.12-.09,7.22-.95.06-1.45,1.24-.2,1.15,4.09-.26,2.61-4.89,2.27-7.53q-.9-6.95-1.84-13.87c-1.26-9.17-2.63-18.33-4.27-27.45C171.38,128.48,167,110.35,160.39,93,147.77,60,125.9,29.83,94.32,12.79A107.27,107.27,0,0,0,70.08,3.21,97.37,97.37,0,0,0,57.53.84C55.47.58,53.4.38,51.33.29,50,.23,48.61.41,47.86,1.63a2.31,2.31,0,0,0,.69,3.14c1.37.89,3.87.54,5.43.69A90.88,90.88,0,0,1,66,7.38a98,98,0,0,1,22.14,8c26.69,13.38,47.39,37.36,60.26,64,16.2,33.52,21.74,70.79,26.51,107.35.29,2.18.49,4.4.86,6.57a2.52,2.52,0,0,0,2.47,2.3C179.05,195.69,180.14,194.57,178.92,194.42Z" style="fill:#232937"/><path d="M82.88,130.76s2,16.91,2.19,18.63c.26,2.46,1.12,7.28-.85,9.33a2.94,2.94,0,0,1-3,.84c-2.61-.41-4.59-2.56-7.07-3.08-3.25-.68-2,1.6-.45,3.73a22.79,22.79,0,0,0,9.4,7.86,9.5,9.5,0,0,0,6.17.72c3.49-.92,6.13-4.33,8.55-6.83,3.3-3.4,5.75-7.38,8.38-11.3,2.45-3.64,5.39-6.9,9.62-8.41,15.59-5.55,30.3,28.7,38.34,27.86,3.35-.36-9.61-36-12.81-46.73-.91-3-1.63-4.84-4.44-11.8,0,0-17.68,9-23.89,11.3C105.73,125.54,82.94,130.75,82.88,130.76Z" style="fill:#d1d1d1"/><path d="M85.65,130.39c.44,3.73,1.48,7.86,1.86,11.59.57,5.5,2.66,12.47,0,17.67-1.07,2.07-4.18,2.11-6.24,1.79-2.61-.42-4.59-2.56-7.07-3.08-3.25-.68-2-.28-.45,1.85a22.79,22.79,0,0,0,9.4,7.86,9.5,9.5,0,0,0,6.17.72c3.49-.92,6.13-4.33,8.55-6.83,3.3-3.4,5.75-7.38,8.38-11.3,2.45-3.64,5.44-6.77,9.62-8.41,18.79-7.37,34.78,29.12,38.34,27.86,3.18-1.13-9.61-36-12.81-46.73-.91-3-1.63-4.84-4.44-11.8,0,0-17.68,9-23.89,11.3C105.73,125.54,85.7,130.37,85.65,130.39Z" style="fill:#e5e5e5"/><path d="M135.63,108.42l0-.1c-.22-.53-.45-1.06-.68-1.6l-.09-.22c-.23-.55-.47-1.11-.72-1.67l-.14-.33c-.25-.57-.5-1.13-.75-1.71-.05-.09-.09-.19-.13-.28l-.82-1.81v0l-.85-1.84c-.05-.1-.1-.2-.14-.3-.28-.6-.57-1.19-.85-1.79-.06-.12-.11-.23-.17-.34-.29-.61-.59-1.22-.89-1.84l-.11-.21c-.3-.61-.6-1.21-.91-1.81l-.09-.18c-.31-.62-.63-1.23-1-1.84l-.18-.34c-.32-.6-.64-1.2-1-1.8,0-.11-.11-.21-.17-.32l-1-1.85-.06-.09c-.33-.6-.68-1.19-1-1.78a2.26,2.26,0,0,0-.16-.26c-.34-.59-.69-1.17-1-1.74-.06-.11-.13-.22-.2-.33-.35-.58-.71-1.14-1.06-1.7l-.16-.25c-.37-.57-.73-1.13-1.1-1.68l-.06-.07c-.37-.56-.75-1.11-1.13-1.65l-.12-.17c1-1.85,1.94-3.63,3-5.48a8.77,8.77,0,0,1-2.59-1.43c-.75-.59-1.26-1.54-2-2.07a3,3,0,0,1-2,2.15,3.2,3.2,0,0,1-2.62-.68,33.62,33.62,0,0,0-3.4-3h0c-5.63-4.33-11.51-5.4-17.21-.62a20.19,20.19,0,0,0-5,6.79h0l0,.12c-.16.34-.32.67-.47,1l-.15.37c-.11.25-.21.5-.31.76,0,.07-.07.15-.1.23a7.17,7.17,0,0,0-.37,1c0,.06,0,.12-.07.19s-.09.27-.14.4a3.06,3.06,0,0,1-.26.51A2.91,2.91,0,0,1,84,77.87c-.4.17-1-.22-1.36-.47a3.45,3.45,0,0,1-.5-.51c-.06-.09-.42-.5-.38-.61a25,25,0,0,1-3.21,6.44,9,9,0,0,1,4,4.91,5.89,5.89,0,0,1,.15,1.06c-.21,1.68-.39,3.42-.53,5.21,0,0,0,0,0,.08V94c-.16,2-.27,4.07-.35,6.19v.11c0,.52,0,1-.05,1.56v.38l0,1.35v.31c0,.53,0,1.06,0,1.59v.37c0,.46,0,.91,0,1.37v.34c0,.54,0,1.08,0,1.62,0,.12,0,.24,0,.37l0,1.38v.36c0,.55,0,1.09,0,1.64,0,.12,0,.24,0,.36,0,.46,0,.93,0,1.39,0,.13,0,.26,0,.39,0,.55,0,1.1.07,1.66,0,.11,0,.22,0,.33,0,.48,0,1,.07,1.43,0,.13,0,.26,0,.39l.09,1.67c0,.11,0,.21,0,.32l.09,1.44,0,.4.12,1.68a2.83,2.83,0,0,0,0,.29c0,.49.07,1,.11,1.46l0,.41c0,.57.09,1.13.13,1.69l0,.25.12,1.49a1.79,1.79,0,0,1,0,.23h0c0,.17,0,.34,0,.5,0,0,22.82-5.27,30.15-7.93,6.21-2.26,23.9-11.25,23.9-11.25-.41-1-.84-2.07-1.3-3.16Z" style="fill:#e5e5e5"/><path d="M135.62,108.43c-4.47-10.66-9.46-21.14-15.93-30.7a2.65,2.65,0,0,1-.57-1.28,2.58,2.58,0,0,1,.45-1.4l2.18-4a11.91,11.91,0,0,1-4.55-3.56c0,1.62-2.18,2.44-3.7,1.88s-2.58-1.93-3.75-3C106.47,63.18,100.46,61,96,62.79a16.05,16.05,0,0,0-7.19,6.05,22.21,22.21,0,0,0-2.25,4.36c-.49,1.3-.66,2.9-1.78,3.86-1,.8-2.8.58-3-.65C80.86,78.62,81.15,79,79.9,81c2.19.82,4.46,4.06,4.87,6.37s-.32,6.15-.37,8.5a320.15,320.15,0,0,0,1.5,34c26.74-5,34.24-9,51-18.34Q136.28,110,135.62,108.43Z" style="fill:#fff"/><path d="M83.07,132.17a.87.87,0,0,0,.38.6c.35.23.94-.05,1.31-.14s1-.34,1.53-.44,1.06-.25,1.59-.36c2.6-.55,5.19-1.1,7.78-1.69s5-1.16,7.4-1.82c1.24-.33,2.48-.68,3.71-1l1.84-.57a5.86,5.86,0,0,1,1.58-.42c2.36,0,4.75-1.21,6.88-2.15q7.07-3.14,14-6.58a22.35,22.35,0,0,1,3.07-1.41,11.34,11.34,0,0,0,3.21-1.69,1.49,1.49,0,0,0-.09-2.37c-.82-.58-1.69,0-2.44.37C127,116.58,119.21,121.24,111,124a154.11,154.11,0,0,1-16.4,4.37,16.92,16.92,0,0,1-2.74.59l-2.82.59c-1.67.35-3.31.51-5,.81a1.63,1.63,0,0,0-.61.2C83,130.88,83,131.7,83.07,132.17Z" style="fill:#d1d1d1"/><path d="M85,130.78c9.06-2.14,18.33-3.81,27.19-6.7,8.21-2.67,15.83-7.38,23.51-11.25,1.11-.56.1-1.32-.75-.89-3.93,2-7.83,4-11.76,6a82.85,82.85,0,0,1-11.59,5.19c-8.78,2.79-17.92,4.47-26.88,6.59-1.11.26-.82,1.32.28,1.06Z" style="fill:#232937"/><path d="M83.91,133.42c7.84-1.7,15.68-3.43,23.43-5.49a114.38,114.38,0,0,0,19.59-7.71q5.49-2.61,10.93-5.33c1.12-.56.09-1.13-.71-.73q-6.12,3-12.31,6a110.57,110.57,0,0,1-12.52,5.39c-9.31,3.05-19.08,4.93-28.65,7-1.1.24-.85,1.13.24.9Z" style="fill:#232937"/><path d="M98.27,80.72l-5.78-2.18c-1.82-.68-4.11-1.17-5.78-2.18s-.5-2.33.15-3.86a24.89,24.89,0,0,1,2-3.9C92,63.76,97,61.5,102.63,62.86a21.27,21.27,0,0,1,8.89,5c1.7,1.49.47,3-.53,4.78A22.2,22.2,0,0,1,107.77,77c-1.07,1.15-3.12,3.09-3.94,2.39-.53-.45-2.13-1.53-3.49-2.75C99.56,78,99.06,79.4,98.27,80.72Z" style="fill:#fff"/><path d="M111.47,71.69a18,18,0,0,1-4.3,6,26.41,26.41,0,0,1-2.41,2.05l-3.34-3.24c-.54-.51-1.56.06-1.82.6-.62,1.33-1.25,2.65-1.87,4L88.09,76.9c-.91-.4-2.47,1.14-1.31,1.65l10.71,4.69a1.4,1.4,0,0,0,1.62-.72c.56-1.17,1.11-2.35,1.67-3.53l1.72,1.67c.87.84,1.28,1.41,2.51.76a20.6,20.6,0,0,0,8.4-9.51C114,70.65,111.9,70.76,111.47,71.69Z" style="fill:#e5e5e5"/><path d="M110.59,71.1a18.16,18.16,0,0,1-4.07,6.08c-.46.43-1,.82-1.44,1.22l-.89.7c-.13.1-1,.56-.39.38l1,.11-3.4-3a1.35,1.35,0,0,0-1.69.33c-.8,1.5-1.61,3-2.41,4.48l1.56-.42-10.2-4.81c-.54-.26-2.19.52-1.44.87l10.2,4.82a1.41,1.41,0,0,0,1.56-.42l2.42-4.47-1.69.33c1.27,1.13,3.09,3.87,5,2.88,3.55-1.87,6.24-5.69,7.77-9.26.24-.57-1.56-.37-1.81.22Z" style="fill:#232937"/><path d="M105.51,47.08c-2.88-11.66-10.36-19.83-16.69-18.27s-9.12,12.29-6.23,24c.06.27.4,1.61.51,2.09,1.6,6.46,3.27,10.83,5,13.72,3.57,6,12,6.73,12,6.73s7.27-4.6,7.87-10.86c.33-3.43-.19-8.28-1.92-15.27C105.91,48.71,105.58,47.37,105.51,47.08Z" style="fill:#e5e5e5"/><path d="M105.51,47.08c-2.88-11.66-10.36-19.83-16.69-18.27s-6,10.1-5.52,15.2a76.41,76.41,0,0,0,2,10.93c.89,3.5,2.13,6.89,3,10.39.18.75.91,2.87.13,3.51-5.33,4.45,11.69,6.46,11.69,6.46s7.27-4.6,7.87-10.86c.33-3.43-.19-8.28-1.92-15.27C105.91,48.71,105.58,47.37,105.51,47.08Z" style="fill:#fff"/><path d="M98.6,31.78c.6-1.32,1.57-3.55,1.08-5,1.13,1.39,1.93,3.16,3,4.63A13.41,13.41,0,0,1,104.36,34a8.64,8.64,0,0,1,.48,4.67,24.29,24.29,0,0,1-1.26,4.56c.21.09.27-.28.19-.49l-1-2.72c-.11.24-.61.75-.72,1l-.71,1.56a2.36,2.36,0,0,0-.65-2l-.32.11a5.76,5.76,0,0,1-1.44,2l.37-.25a3.68,3.68,0,0,0-.78-1.23c-.63-.68-1.54-1.06-2.16-1.74-1-1-.32-1.14-.13-2.38C96.47,35.25,97.84,33.45,98.6,31.78Z" style="fill:#bbdff5"/><path d="M74.26,40c.1-.26.2-.54.29-.81a15.56,15.56,0,0,1-5,1.34,9.82,9.82,0,0,0,4.71-2.92C78.55,33.17,81.11,26.81,86.93,24a9.56,9.56,0,0,1,7.28-.14c2,.67,5.38,1.5,4.66,4.1a29.7,29.7,0,0,1-10.4,15.37c-.73.57-1.67,1-2.12,1.8a6.31,6.31,0,0,0-.56,2.62c-.09-.2-1.57-2.19-1.76-1.89a8.72,8.72,0,0,0-1.26,3.44c-.12,1.05.94,2.27.55,3.21-1.44,0-2.11-1.61-2.68-2.68s-1.75,1.06-2,1.4c-.62.87-2.49,2.45-2.54,3.42.07-1.52.14-3,.22-4.57-1.22.7-2.46,1.36-3.71,2,1-.51,1.69-3,2-4a18.73,18.73,0,0,0,.8-4.61,17.3,17.3,0,0,1-1.71,1,2.25,2.25,0,0,1-2.07-.13A17.43,17.43,0,0,0,74.26,40Z" style="fill:#bbdff5"/><path d="M82,131c.71,6,1.44,12,2.12,18a37.07,37.07,0,0,1,.47,6c-.08,1.45-.3,3.15-1.77,3.74-1.8.73-3.84-.92-5.39-1.76s-4-2-5.55-.81.16,3.08.89,4.14c3.17,4.53,8.6,9.27,14.46,9.2,5.62-.07,9.87-5.52,13.17-9.44,6-7.2,12.07-22.33,23.89-16.53,7.16,3.51,12.42,10.59,17.36,16.62a85.54,85.54,0,0,0,6.85,7.88c1.35,1.3,3.13,2.92,5.16,2.66s2.09-1.7,2-3.34a47.85,47.85,0,0,0-2-9.22c-2.42-8.67-5.39-17.19-8.27-25.72-2.41-7.15-4.69-14.26-7.54-21.27-4.35-10.66-9.16-21.23-15.35-31-.69-1.09-2.58-3-2.42-4.33a8.19,8.19,0,0,1,1.15-2.13l1.47-2.74a.33.33,0,0,0-.13-.5c-2-.75-3-2.09-4.46-3.41a1.24,1.24,0,0,0-1.74.47c-1.42,3.42-4.5-.41-5.94-1.8-.33-.32-.63-.64-.94-1-.65-.75-.51-1-.49-2A48.45,48.45,0,0,0,107.43,51c-1.69-7.5-4.15-15.81-10.59-20.66-4.82-3.63-11-2.68-13.94,2.72C79,40.21,80.61,49,82.55,56.47a69.34,69.34,0,0,0,2.34,7.46c.39,1,.82,2,1.3,3a8.6,8.6,0,0,1,.93,1.66c.09.93-.67,2.6-1,3.49-.36,1-.9,2.07-1.31,3.1-.15.39-.5,2-1.08,2-.33,0-1-.84-1.1-1.17-.26-.7-1.63-.18-1.81.34a26.53,26.53,0,0,1-3.15,6.3.34.34,0,0,0,.13.5c2.13,1.39,3.94,3.54,3.94,6.2,0,1.66-.45,3.29-.57,4.93q-.21,3-.33,6a228.65,228.65,0,0,0,1.07,30.18c.06.64,1.87.25,1.81-.49a220,220,0,0,1-1-30.47c.12-2.26.15-4.55.45-6.79.26-1.94.78-4,.08-5.92a9.74,9.74,0,0,0-4-4.58l.14.5a28.07,28.07,0,0,0,3.27-6.58l-1.82.34a3,3,0,0,0,2.8,1.9c1.81-.11,2.48-2,3-3.44s1.26-2.91,1.69-4.47.76-2,0-3.32A57.14,57.14,0,0,1,83.93,54.3a39.68,39.68,0,0,1-1.41-13.79C82.9,36.82,84,32.09,87.42,30s7.16.32,9.55,2.7c6.47,6.43,8.75,16.7,9.85,25.45.15,1.12.25,2.25.3,3.38a15.56,15.56,0,0,0-.08,3c.32,1.11,1.84,2.15,2.64,2.93,1.33,1.29,2.82,2.86,4.82,2.81s3-1.26,3.62-2.87l-1.74.46c1.64,1.44,2.57,2.78,4.7,3.6L121,71c-1,1.82-2,3.66-3,5.48a.36.36,0,0,0,0,.41c11,15.64,18.14,33.9,24.12,52,2.67,8,5.47,16,8,24.12,1.1,3.55,2.16,7.12,3,10.75a33,33,0,0,1,.68,3.83c.05.53.29,1.8-.11,2.27.08-.1.3-.05-.09-.1a3.43,3.43,0,0,1-1.1-.46,13.4,13.4,0,0,1-2.78-2.31c-2.34-2.35-4.4-5-6.5-7.55-4.72-5.77-9.63-12.14-16.17-16a14.52,14.52,0,0,0-8.69-2.23c-4.4.45-8.18,3.38-10.91,6.71-2.07,2.52-3.72,5.36-5.58,8a68.7,68.7,0,0,1-6.39,7.65c-2.38,2.55-5,5.28-8.82,4.83-3.35-.41-6.6-2.67-9-5a26,26,0,0,1-2.73-3.11c-.36-.48-2.21-2.66-1.85-3.28s3.41,1.2,3.88,1.47a11.8,11.8,0,0,0,3.76,1.56c5.11.89,5.92-4.22,5.59-8.12-.56-6.47-1.5-12.92-2.26-19.37-.08-.69-.16-1.38-.25-2.07s-1.89-.24-1.81.49Z" style="fill:#232937"/><path d="M89.5,71.6c2.67,2.24,6.68,4.41,10.28,3.67s6.64-4.47,8.19-7.73c.39-.82-1.42-.66-1.7-.08-1.15,2.44-3.44,5.92-6.21,6.7-2.93.82-6.75-1.5-8.88-3.29-.52-.44-2.22.28-1.68.73Z" style="fill:#232937"/><path d="M81.09,78.67c-8.6-9.45-14.62-21.07-15-34.05-.19-7.26,1.17-14.51,3-21.51,1-3.65,2.25-7.25,3-10.95a17.76,17.76,0,0,0,.42-4.93,9.61,9.61,0,0,0-.49-2.66c-.65.06-.7.07-.13,0l.73-.13c1.14-.22.79-1.43-.33-1.22-1.59.3-2.47.26-2,2.13.8,3.12.2,6.26-.64,9.3C68,20.91,66.13,27.06,65.14,33.46c-1.68,10.78-.72,21.45,4.1,31.33A63.54,63.54,0,0,0,79.43,79.47c.55.59,2.27-.13,1.66-.8Z" style="fill:#232937"/><path d="M92.3,135.92a9.41,9.41,0,0,1-3.64,6.44c-.35.27-.13.53.17.66a1.53,1.53,0,0,0,1.28-.34,10.3,10.3,0,0,0,4-7c.08-.74-1.74-.41-1.81.22Z" style="fill:#232937"/><path d="M129.6,125a10.08,10.08,0,0,0,6.18,4.95c.43.13,2-.56,1.48-.73a9.57,9.57,0,0,1-5.85-4.71c-.25-.47-2,.16-1.81.49Z" style="fill:#232937"/><path d="M99.54,86.27c.09,4,.18,8,.3,12.06a27.53,27.53,0,0,1-2.49,13.07c.57,1.32,4.13,5.42,4.33,6.89.85-.91,4.08-4.82,4.92-5.78,1.7-1.93-.63-14.22-1.56-17.8-.48-1.81-2.38-10-4.09-9.88l-.63,0c-.49,0-.85.62-.79,1.3A.28.28,0,0,0,99.54,86.27Z" style="fill:#e5e5e5"/><path d="M101,85.92c.27,4,.53,8,.83,12a27.49,27.49,0,0,1-1.92,13.16c.63,1.3,4.37,5.24,4.63,6.69.8-.94,3.86-5,4.66-6,1.61-2-1.24-14.18-2.34-17.72-.55-1.78-2.81-9.91-4.51-9.69l-.63.08c-.49.06-.81.65-.73,1.33A.28.28,0,0,1,101,85.92Z" style="fill:#bbdff5"/><path d="M100,86c.46,6.77,1.76,14.08.32,20.79a22.39,22.39,0,0,1-.69,2.52,7.62,7.62,0,0,0-.71,1.89c0,.6.7,1.28,1,1.72,1.17,1.53,3.09,3.24,3.59,5.14.19.71,1.33.44,1.67,0,1-1.2,1.93-2.45,2.88-3.69a14.09,14.09,0,0,0,2.13-2.92c1-2.39,0-6-.4-8.4a82.51,82.51,0,0,0-2.17-9.3,39.22,39.22,0,0,0-3-8.31c-.55-1-1.17-1.74-2.35-1.71a2.09,2.09,0,0,0-2.24,2.41c.08.83,1.89.39,1.81-.49-.1-1,.33-.55.71-.06a8.81,8.81,0,0,1,1,2,48.7,48.7,0,0,1,1.7,4.79c.82,2.67,1.55,5.36,2.13,8.1.67,3.13,1.67,6.82,1.21,10-.18,1.27-1.16,2.15-1.92,3.14-1,1.29-2,2.61-3,3.86l1.66,0c-.46-1.74-2-3.26-3.1-4.63-.33-.43-.67-.85-1-1.28s-.35-.52-.33-1a13.44,13.44,0,0,1,.79-2.34c.17-.56.31-1.12.43-1.69,1.44-6.72.14-14-.32-20.78C101.81,84.9,100,85.17,100,86Z" style="fill:#232937"/><path d="M100.25,80.89c.17-.41.48-.64,1.06-.36a10,10,0,0,1,2.24,2c.54.54.83.94,0,1.38a16.34,16.34,0,0,1-2.51.81c-1.29.41-1.18-1.86-1.07-2.51A6.1,6.1,0,0,1,100.25,80.89Z" style="fill:#bbdff5"/><path d="M101.11,81c-.32.07-.38.15-.19.23l.31.21c.22.18.42.37.63.57s.58.59.86.89c.09.09.38.31.4.45a1.79,1.79,0,0,1-.46.22c-.46.17-1,.27-1.42.4l-.38.11.23,0c0-.09-.12-.14-.14-.25a7.21,7.21,0,0,1-.14-.81,6,6,0,0,1,.3-2.06c.35-1-1.46-.93-1.73-.19a5.33,5.33,0,0,0-.12,3.83,1.44,1.44,0,0,0,1.46.74,10.63,10.63,0,0,0,2.75-.77c.6-.24,1.51-.69,1.51-1.46s-1-1.45-1.46-1.93c-1.1-1.09-3.13-2.36-4.14-.41C98.92,81.69,100.75,81.68,101.11,81Z" style="fill:#232937"/><path d="M92.3,64.46c2.53,3.5,8.82,1.61,9.88-2.28.07-.29-1.67-.09-1.78.34-.82,3-4.32,4.18-6.29,1.46-.29-.41-1.91.35-1.81.48Z" style="fill:#232937"/></svg>