<svg xmlns="http://www.w3.org/2000/svg" viewBox="0 0 380.02 554.86"><title>getting-started</title><path d="M91.42,521.63a11,11,0,0,0,.73,4.51c2.06,5.5,7.66,9.22,13.31,11.86,18.35,8.59,40,7.58,60,9.33q35,3.07,70.13,4.93,28.47,1.53,57,2.31c23.89.67,48.58.87,70.88-7.82,6.43-2.51,13-6.07,15.56-12,3.48-8.22-2.5-17.87-10.87-22.39-9.73-5.26-24.36-7.26-35.38-10-16.27-4-34.39-4.57-51.07-6.27-29.87-3.05-59.92-4.76-89.94-4.07C176.35,492.32,92.87,498.65,91.42,521.63Z" style="fill:#e5e5e5"/><path d="M332.14,517.55A7,7,0,0,0,331,528.41c3.86,3.91,10.47,2.69,15,.76.63-.28,1.41-.78.59-1.23s-2.64.31-3.37.62a7.1,7.1,0,0,1-8.72-3.38c-1.14-2.36-1.06-5.95,1.36-7.52.82-.53.55-.9-.28-1a5.79,5.79,0,0,0-3.42.92Z" style="fill:#212a39"/><path d="M314.83,520.32c-.58,12.15,7.67,21.25,19.31,23.68s23.12-2.25,32.54-8.7c2.16-1.47-2.67-1.41-3.83-.62-8.63,5.91-19.18,9.68-29.44,5.77a20.85,20.85,0,0,1-13.77-20.8c.09-1.8-4.74-.79-4.81.67Z" style="fill:#212a39"/><path d="M193,185.35c21.65-18.5,45.49-35.84,62-59.48,5.48-7.87,12.2-21.3.36-27.09-4.58-2.24-10.08-2.31-15-1.77a52.37,52.37,0,0,0-10.29,2.11c-3.16,1-6.88,3.58-10.18,2-2.13-1-5.54,2-2.75,3.41,3.8,1.84,7.8.41,11.52-1,5.91-2.2,12.62-3.71,19-2.81,6.87,1,10.87,5.64,9.08,12.73-1.62,6.42-6.51,12.21-10.57,17.31-16,20.13-36.88,35.62-56.3,52.21-2.48,2.12,1.32,4,3.26,2.39Z" style="fill:#212a39"/><path d="M349.65,519.44a5,5,0,0,1-4.95-4.35c-14-108.35-28.51-220.38-80.4-319.21C219.47,110.49,128.37,17.2,7.16,11.49a5,5,0,1,1,.47-10C61.7,4.05,115.79,24.66,164.05,61.11,208.26,94.49,246,139.48,273.16,191.23c52.72,100.42,67.33,213.35,81.46,322.57a5,5,0,0,1-4.32,5.6A4.73,4.73,0,0,1,349.65,519.44Z" style="fill:#fff"/><path d="M350.54,517.89c-5.06-.62-4.73-13.56-5.24-17.45q-1.14-8.78-2.3-17.54-2.34-17.61-4.85-35.18c-3.31-22.92-7-45.79-11.31-68.54-8.78-46-20.46-91.6-37.78-135.17-28.19-70.92-72.67-135.6-135-180.73C122.77,40.58,87.18,23.53,49.27,15.34a255,255,0,0,0-28.69-4.5c-2.6-.25-5.2-.47-7.81-.64C9.23,10,2.49,9.62,6.66,5c2.11-2.32,2.18-1.9,5-1.7,1.11.07,2.21.15,3.31.24q5,.41,9.93,1A263.65,263.65,0,0,1,89.8,21.3C175.24,55.08,240.85,128,279.66,209.73c40.5,85.3,56,179.38,68.3,272.21q1.11,8.35,2.2,16.72c.38,3,3.91,19-.23,19.24-2.55.17-3.88,3.3-.55,3.09,10.91-.71,7-13.05,6.06-20.11q-2.4-18.5-4.91-37c-3.37-24.47-7-48.91-11.38-73.23-8.74-48.7-20.36-97.05-38-143.33-33.66-88-92-168.53-176.25-214A287.18,287.18,0,0,0,60.2,7.8,262.63,262.63,0,0,0,26.72,1.48C21.23.81,15.7.27,10.17,0,6.71-.13,2.93.35.92,3.61A6.12,6.12,0,0,0,2.77,12c3.65,2.37,10.33,1.46,14.48,1.84a243.88,243.88,0,0,1,32.11,5.13,262.58,262.58,0,0,1,59.07,21.35C179.63,76,234.84,140,269.16,211c43.22,89.45,58,188.86,70.74,286.39.76,5.82,1.29,11.73,2.27,17.51.66,3.83,2.78,5.67,6.59,6.14C350.88,521.26,353.79,518.29,350.54,517.89Z" style="fill:#212a39"/><path d="M94.34,348.07s5.33,45.1,5.83,49.69c.72,6.57,3,19.42-2.25,24.89-2.37,2.47-4.64,2.77-8,2.24-7-1.11-12.25-6.83-18.85-8.21-8.69-1.82-5.27,4.25-1.21,9.95,6.47,9.09,14.77,16.45,25.08,21,5.16,2.26,11,3.34,16.46,1.91,9.31-2.46,16.35-11.54,22.8-18.21,8.8-9.09,15.34-19.71,22.35-30.14,6.53-9.71,14.37-18.43,25.68-22.45,41.56-14.81,80.81,76.57,102.25,74.32,9-.95-25.62-96.07-34.17-124.65-2.42-8.05-4.35-12.92-11.84-31.49,0,0-47.16,24.12-63.72,30.14C155.28,334.13,94.49,348,94.34,348.07Z" style="fill:#d1d1d1"/><path d="M101.72,347.07c1.18,10,4,21,5,30.92,1.5,14.67,7.09,33.27-.09,47.13-2.86,5.53-11.16,5.64-16.64,4.77-7-1.11-12.25-6.83-18.85-8.21-8.69-1.82-5.27-.75-1.21,4.95,6.47,9.09,14.77,16.45,25.08,21,5.16,2.26,11,3.34,16.46,1.91,9.31-2.46,16.35-11.54,22.8-18.21,8.8-9.09,15.34-19.71,22.35-30.14,6.53-9.71,14.5-18.07,25.68-22.45,50.1-19.64,92.77,77.69,102.25,74.32,8.48-3-25.62-96.07-34.17-124.65-2.42-8.05-4.35-12.92-11.84-31.49,0,0-47.16,24.12-63.72,30.14C155.28,334.13,101.87,347,101.72,347.07Z" style="fill:#e5e5e5"/><path d="M235.06,288.48c0-.09-.08-.19-.11-.28l-1.8-4.27c-.09-.19-.17-.39-.25-.58L231,278.89l-.39-.88c-.65-1.51-1.32-3-2-4.55l-.34-.76c-.71-1.59-1.44-3.21-2.18-4.83l0-.06q-1.11-2.44-2.27-4.91c-.13-.28-.25-.55-.38-.82-.74-1.58-1.5-3.18-2.27-4.77-.14-.31-.29-.61-.44-.92-.78-1.62-1.58-3.25-2.38-4.89-.1-.19-.2-.38-.29-.58-.8-1.6-1.6-3.21-2.42-4.81l-.25-.49c-.83-1.64-1.68-3.27-2.54-4.91l-.48-.9q-1.26-2.42-2.57-4.81c-.15-.28-.3-.56-.46-.84-.9-1.65-1.81-3.3-2.73-4.93l-.15-.25c-.9-1.59-1.81-3.18-2.73-4.75l-.41-.7c-.92-1.56-1.84-3.1-2.78-4.63L200,218c-.94-1.53-1.88-3-2.84-4.53-.14-.23-.28-.45-.43-.67-1-1.51-1.94-3-2.93-4.46l-.14-.21q-1.5-2.23-3-4.39l-.32-.46c2.71-4.93,5.17-9.68,7.88-14.61a23.93,23.93,0,0,1-6.93-3.81c-2-1.58-3.35-4.12-5.29-5.53-1,2.6-2.23,4.94-5.19,5.72-2.4.64-4.75-.27-7-1.8a91.73,91.73,0,0,0-9.08-8.11l0,0h0c-15-11.55-30.69-14.4-45.91-1.64-5.32,4.47-9.73,10.61-13.35,18.1v0l-.15.33c-.42.88-.84,1.78-1.24,2.71-.14.32-.28.65-.41,1-.29.66-.56,1.34-.83,2-.08.21-.17.41-.25.62a22.36,22.36,0,0,0-1,2.69c-.05.17-.12.34-.17.51-.13.36-.25.72-.37,1.08a9.7,9.7,0,0,1-.7,1.36c-.65,1.06-1.78,2.64-3,3.13s-2.76-.6-3.61-1.27a8.21,8.21,0,0,1-1.33-1.37c-.18-.23-1.12-1.34-1-1.61a66.08,66.08,0,0,1-8.56,17.16c4.59,2.82,9.14,7.77,10.55,13.11a14.1,14.1,0,0,1,.43,2.81q-.87,6.77-1.43,13.91a1.8,1.8,0,0,0,0,.22v.15c-.42,5.36-.72,10.88-.92,16.51v.09a1.48,1.48,0,0,0,0,.21c0,1.38-.08,2.77-.12,4.17,0,.33,0,.67,0,1,0,1.2,0,2.4-.07,3.61,0,.27,0,.54,0,.82q0,2.12,0,4.26v1c0,1.21,0,2.42,0,3.64v.91c0,1.43,0,2.87.05,4.32,0,.32,0,.65,0,1,0,1.22,0,2.45.07,3.69,0,.32,0,.64,0,1q.06,2.17.12,4.38l0,1c0,1.23.09,2.47.13,3.71,0,.34,0,.69,0,1,.06,1.47.12,3,.19,4.43,0,.29,0,.59,0,.88.06,1.27.12,2.54.19,3.81,0,.35,0,.69.05,1,.08,1.48.17,3,.26,4.46,0,.28,0,.57,0,.85.07,1.28.15,2.56.24,3.85,0,.35,0,.71.07,1.06.1,1.5.2,3,.31,4.49,0,.26,0,.51,0,.76l.3,3.9c0,.37.05.74.08,1.11.12,1.49.24,3,.37,4.49,0,.22,0,.45,0,.67.11,1.33.23,2.65.35,4,0,.21,0,.42,0,.63h0l.12,1.34S155.23,334,174.77,326.9c16.55-6,63.75-30,63.75-30-1.09-2.69-2.24-5.51-3.46-8.42Z" style="fill:#e5e5e5"/><path d="M235,288.49c-11.92-28.44-25.23-56.39-42.5-81.9a5.31,5.31,0,0,1-.32-7.13L198,188.83a31.6,31.6,0,0,1-12.14-9.49c-.07,4.33-5.83,6.5-9.89,5s-6.86-5.13-10-8.13c-8.76-8.42-24.78-14.18-36.68-9.45-7.93,3.15-14.42,9.11-19.16,16.13a56.72,56.72,0,0,0-6,11.61c-1.33,3.48-1.77,7.76-4.77,10.3-2.53,2.15-7.47,1.56-8-1.71-2.47,5.9-1.7,6.85-5,12.31,5.86,2.2,11.9,10.84,13,17s-.86,16.41-1,22.67c-.66,30.66,1.42,59.26,4,90.66,71.34-13.33,91.35-24,136.1-48.9Q236.77,292.65,235,288.49Z" style="fill:#fff"/><path d="M94.86,351.82a2.29,2.29,0,0,0,1,1.62c.93.59,2.51-.15,3.5-.39,1.37-.33,2.68-.9,4.07-1.17s2.82-.67,4.24-1c6.93-1.46,13.86-2.94,20.77-4.51,6.6-1.5,13.19-3.1,19.74-4.85,3.3-.89,6.6-1.81,9.88-2.79q2.46-.74,4.9-1.51a15.09,15.09,0,0,1,4.24-1.11c6.3-.08,12.67-3.25,18.34-5.76q18.84-8.34,37.3-17.53a61.53,61.53,0,0,1,8.18-3.77,30,30,0,0,0,8.58-4.51,4,4,0,0,0-.25-6.33c-2.19-1.54-4.5-.08-6.51,1-20.69,11-41.59,23.42-63.6,30.87a406.72,406.72,0,0,1-43.75,11.65c-2.18.9-5,1.08-7.31,1.57l-7.52,1.58c-4.45.93-8.84,1.37-13.31,2.17a4.24,4.24,0,0,0-1.61.52C94.55,348.39,94.62,350.58,94.86,351.82Z" style="fill:#d1d1d1"/><path d="M100,348.11c24.16-5.71,48.9-10.17,72.54-17.86,21.89-7.13,42.22-19.69,62.7-30,3-1.49.28-3.53-2-2.38-10.48,5.29-20.87,10.76-31.37,16-10,5-20.18,10.42-30.91,13.83-23.42,7.44-47.81,11.94-71.7,17.59-3,.7-2.2,3.52.75,2.82Z" style="fill:#212a39"/><path d="M97.1,355.15c20.91-4.52,41.82-9.13,62.49-14.64,18.31-4.87,35.18-12.44,52.25-20.56q14.66-7,29.17-14.22c3-1.49.24-3-1.9-2q-16.35,8.14-32.84,16c-10.91,5.14-21.92,10.62-33.41,14.38C148,342.24,122,347.25,96.46,352.76c-2.94.64-2.28,3,.64,2.39Z" style="fill:#212a39"/><path d="M135.39,214.59,120,208.77c-4.86-1.83-11-3.13-15.42-5.81-4.17-2.52-1.34-6.24.38-10.31a68.86,68.86,0,0,1,5.41-10.4c8.34-12.9,21.51-19,36.67-15.31,8.88,2.13,16.94,7.28,23.72,13.27,4.52,4,1.24,8.06-1.42,12.75a61.35,61.35,0,0,1-8.59,11.68c-2.86,3.05-8.33,8.23-10.52,6.35-1.4-1.19-5.69-4.07-9.29-7.32C138.82,207.2,137.5,211.05,135.39,214.59Z" style="fill:#fff"/><path d="M170.61,190.49a48.17,48.17,0,0,1-11.47,16.15,69.56,69.56,0,0,1-6.44,5.44l-8.92-8.62c-1.42-1.37-4.16.15-4.84,1.6l-5,10.6L108.24,204.4c-2.44-1.07-6.59,3-3.5,4.38l28.57,12.51c1.53.67,3.68-.49,4.34-1.9q2.21-4.71,4.43-9.42l4.59,4.44c2.32,2.24,3.43,3.77,6.69,2,9.95-5.29,17.83-15.37,22.42-25.37C177.32,187.72,171.75,188,170.61,190.49Z" style="fill:#e5e5e5"/><path d="M168.25,188.92a47.72,47.72,0,0,1-10.86,16.21c-1.21,1.15-2.52,2.2-3.82,3.25-.78.63-1.57,1.26-2.37,1.87-.36.28-2.65,1.51-1.06,1l2.57.27-9.08-8.1c-1-.93-3.83-.34-4.5.89q-3.21,6-6.44,11.94l4.17-1.11-27.21-12.85c-1.43-.67-5.85,1.4-3.84,2.35L133,217.51c1.14.54,3.52.07,4.17-1.12l6.44-11.94-4.49.9c3.38,3,8.24,10.31,13.22,7.69,9.48-5,16.66-15.18,20.72-24.72.64-1.51-4.16-1-4.83.6Z" style="fill:#212a39"/><path d="M154.71,124.84C147,93.75,127.08,71.93,110.2,76.11S85.86,108.89,93.56,140c.18.72,1.06,4.31,1.38,5.58,4.27,17.24,8.71,28.89,13.34,36.61,9.53,15.88,31.94,17.94,31.94,17.94s19.39-12.26,21-29c.88-9.14-.5-22.09-5.12-40.73C155.79,129.18,154.9,125.6,154.71,124.84Z" style="fill:#e5e5e5"/><path d="M154.71,124.84C147,93.75,127.08,71.93,110.2,76.11c-17,4.22-16.15,26.94-14.75,40.53a205,205,0,0,0,5.36,29.17c2.36,9.32,5.66,18.38,7.88,27.72.48,2,2.42,7.65.36,9.37-14.23,11.85,31.17,17.21,31.17,17.21s19.39-12.26,21-29c.88-9.14-.5-22.09-5.12-40.73C155.79,129.18,154.9,125.6,154.71,124.84Z" style="fill:#fff"/><path d="M136.28,84c1.6-3.52,4.19-9.48,2.88-13.32,3,3.71,5.15,8.41,8.1,12.33a34.39,34.39,0,0,1,4.38,6.9,23.11,23.11,0,0,1,1.28,12.44,65.47,65.47,0,0,1-3.36,12.18c.57.23.72-.76.51-1.32-.94-2.42-1.87-4.83-2.8-7.25-.29.64-1.63,2-1.92,2.64l-1.91,4.17a6.23,6.23,0,0,0-1.73-5.24l-.84.3c-.67,2.16-2.36,3.57-3.84,5.28l1-.68a10.45,10.45,0,0,0-2.08-3.28c-1.7-1.81-4.11-2.82-5.78-4.63-2.57-2.77-.85-3-.34-6.34C130.58,93.28,134.25,88.49,136.28,84Z" style="fill:#bbdff5"/><path d="M71.34,106q.42-1.07.78-2.16c-4.26,2.26-8.7,2.79-13.4,3.57,4.87-1.12,9.09-4.2,12.57-7.79,11.5-11.91,18.33-28.87,33.86-36.46,6.13-3,13.09-2.51,19.41-.39,5.33,1.79,14.36,4,12.42,11a78.55,78.55,0,0,1-15.63,29.42,79.46,79.46,0,0,1-12.1,11.59c-2,1.5-4.46,2.66-5.65,4.8-.59,1-2,5.88-1.51,7-.22-.52-4.18-5.84-4.67-5A23.17,23.17,0,0,0,94,130.67c-.31,2.78,2.5,6,1.48,8.55-3.83,0-5.63-4.3-7.15-7.15-1.32-2.48-4.67,2.83-5.3,3.72-1.64,2.33-6.64,6.56-6.76,9.14l.57-12.21Q72,135.53,67,138c2.72-1.36,4.51-8.09,5.23-10.77,1-3.77,2.2-8.43,2.14-12.29-1.57.8-2.86,2.12-4.57,2.78a6,6,0,0,1-5.51-.37A46.28,46.28,0,0,0,71.34,106Z" style="fill:#bbdff5"/><path d="M91.92,348.72c1.9,16,3.82,32,5.65,48.09.61,5.33,1.51,10.71,1.24,16.09-.19,3.87-.78,8.41-4.71,10-4.8,1.93-10.25-2.46-14.37-4.7-3.87-2.1-10.61-5.24-14.82-2.15-3.91,2.87.44,8.22,2.39,11,8.44,12.09,22.93,24.72,38.56,24.54,15-.18,26.34-14.71,35.15-25.18,16.14-19.19,32.19-59.56,63.71-44.1,19.11,9.38,33.13,28.26,46.3,44.36,5.86,7.15,11.6,14.58,18.28,21,3.61,3.46,8.35,7.79,13.77,7.09,5.09-.65,5.57-4.53,5.25-8.9-.61-8.31-3.09-16.6-5.32-24.59-6.45-23.13-14.4-45.85-22.07-68.6-6.44-19.09-12.51-38.06-20.12-56.74-11.58-28.45-24.44-56.64-40.93-82.62-1.85-2.91-6.89-8.07-6.45-11.57.22-1.77,2.17-4,3-5.67,1.31-2.44,2.61-4.88,3.94-7.3a.88.88,0,0,0-.35-1.33c-5.2-2-7.89-5.58-11.89-9.1-1.32-1.15-4-.28-4.66,1.25-3.78,9.12-12-1.1-15.83-4.8-.89-.86-1.7-1.7-2.52-2.65-1.73-2-1.35-2.63-1.29-5.3.25-10.59-1.71-21.2-4-31.49-4.53-20-11.08-42.16-28.26-55.1-12.85-9.68-29.2-7.15-37.18,7.24-10.53,19-6.13,42.54-.94,62.38a186.52,186.52,0,0,0,6.24,19.9c1,2.72,2.18,5.41,3.47,8,.5,1,2.36,3.34,2.48,4.44.25,2.47-1.78,6.93-2.61,9.32-1,2.79-2.41,5.49-3.5,8.25-.41,1.06-1.33,5.49-2.88,5.4-.89-.05-2.59-2.24-2.92-3.13-.71-1.86-4.36-.49-4.84.92a70.4,70.4,0,0,1-8.41,16.79.9.9,0,0,0,.36,1.33c5.68,3.73,10.51,9.45,10.5,16.56,0,4.42-1.21,8.76-1.52,13.15-.38,5.34-.65,10.71-.89,16.06-1.19,26.79.52,53.81,2.86,80.48.16,1.74,5,.67,4.83-1.29-2.37-26.93-4.16-54.25-2.76-81.29.31-6,.39-12.13,1.19-18.11.69-5.18,2.09-10.68.21-15.78s-6-9.24-10.6-12.23c.11.44.23.89.35,1.33a73.76,73.76,0,0,0,8.73-17.55l-4.84.92a8,8,0,0,0,7.47,5.07c4.82-.31,6.6-5.32,8-9.17,1.49-4.09,3.36-7.76,4.53-11.94,1.12-4,2-5.19.08-8.84-5.68-10.72-8.94-22.69-11.85-34.39-3-12.12-5.09-24.28-3.78-36.81,1-9.84,4-22.46,13.08-28.11,8.83-5.52,19.09.87,25.47,7.21,17.26,17.16,23.34,44.55,26.29,67.89.38,3,.67,6,.78,9,.08,2.25-.81,6-.2,8.11.86,3,4.9,5.74,7.05,7.82,3.54,3.43,7.51,7.61,12.85,7.48,5-.13,7.88-3.36,9.66-7.66l-4.65,1.25c4.37,3.84,6.86,7.4,12.54,9.59l-.36-1.33c-2.65,4.86-5.22,9.76-7.87,14.62a.92.92,0,0,0,0,1.08c29.38,41.72,48.37,90.45,64.34,138.6,7.12,21.44,14.6,42.75,21.26,64.34,2.92,9.46,5.77,19,7.94,28.66a86.44,86.44,0,0,1,1.82,10.22c.15,1.42.77,4.8-.3,6.05.21-.24.82-.11-.23-.26a8.87,8.87,0,0,1-2.95-1.22,36.4,36.4,0,0,1-7.4-6.16c-6.24-6.28-11.74-13.31-17.34-20.15C242.57,409,229.47,392,212,381.78c-7-4.09-15-6.77-23.16-5.94-11.77,1.2-21.85,9-29.12,17.88-5.51,6.73-9.92,14.32-14.9,21.45a185.69,185.69,0,0,1-17,20.42c-6.36,6.81-13.4,14.09-23.53,12.87-9-1.08-17.61-7.11-24-13.23a67.42,67.42,0,0,1-7.27-8.29c-1-1.29-5.88-7.1-4.93-8.75,1-1.82,9.08,3.2,10.35,3.92,3.16,1.8,6.39,3.54,10,4.17,13.65,2.36,15.8-11.27,14.91-21.66-1.48-17.26-4-34.48-6-51.68q-.32-2.76-.65-5.51c-.2-1.76-5.06-.66-4.83,1.29Z" style="fill:#212a39"/><path d="M112,190.24c7.11,6,17.81,11.77,27.42,9.8,9.93-2,17.73-11.92,21.84-20.62,1-2.19-3.79-1.76-4.52-.21-3.08,6.5-9.18,15.77-16.58,17.86-7.81,2.2-18-4-23.69-8.78-1.38-1.16-5.9.75-4.47,2Z" style="fill:#212a39"/><path d="M89.57,209.12c-22.94-25.23-39-56.22-39.9-90.84-.49-19.36,3.14-38.71,8-57.37,2.54-9.76,6-19.35,8.05-29.22a48,48,0,0,0,1.11-13.15,27.19,27.19,0,0,0-1.29-7.1c-1.75.17-1.88.2-.37.08l1.95-.36c3-.57,2.12-3.81-.88-3.24-4.24.79-6.57.7-5.29,5.69,2.14,8.31.55,16.68-1.69,24.8C54.67,55,49.66,71.42,47,88.52c-4.46,28.73-1.91,57.21,11,83.55,7,14.38,16.45,27.35,27.19,39.16,1.44,1.59,6-.34,4.42-2.11Z" style="fill:#212a39"/><path d="M119.47,361.84A25.1,25.1,0,0,1,109.75,379c-.92.74-.34,1.42.47,1.77,1,.44,2.63-.29,3.42-.92,5.83-4.67,9.88-11.1,10.67-18.6.2-2-4.66-1.1-4.84.59Z" style="fill:#212a39"/><path d="M219,332.77A26.93,26.93,0,0,0,235.46,346c1.15.35,5.44-1.49,3.94-1.95a25.61,25.61,0,0,1-15.61-12.57c-.65-1.26-5.27.43-4.83,1.3Z" style="fill:#212a39"/><path d="M138.77,229.39c.26,10.72.49,21.45.82,32.17.39,12.68-1.6,24.58-6.65,34.86,1.52,3.52,11,14.46,11.55,18.37,2.26-2.42,10.87-12.84,13.13-15.41,4.53-5.16-1.67-37.93-4.18-47.5-1.26-4.81-6.33-26.72-10.91-26.34l-1.67.13c-1.31.11-2.25,1.66-2.1,3.46C138.76,229.22,138.77,229.3,138.77,229.39Z" style="fill:#e5e5e5"/><path d="M142.57,228.46c.73,10.7,1.42,21.4,2.22,32.1,1,12.65-.53,24.63-5.12,35.12,1.67,3.45,11.64,14,12.34,17.84,2.15-2.51,10.3-13.3,12.44-16,4.3-5.34-3.32-37.81-6.24-47.26-1.47-4.75-7.49-26.42-12.05-25.85l-1.67.21c-1.3.17-2.17,1.75-1.94,3.55A2.11,2.11,0,0,1,142.57,228.46Z" style="fill:#ea4869"/><path d="M140.12,228.63c1.23,18.07,4.7,37.55.86,55.45a59.56,59.56,0,0,1-1.84,6.72c-.47,1.39-1.93,3.62-1.92,5.06,0,1.6,1.88,3.41,2.78,4.59,3.12,4.09,8.24,8.63,9.6,13.72.5,1.88,3.53,1.17,4.44.08,2.66-3.18,5.15-6.53,7.68-9.82,1.86-2.42,4.51-4.94,5.68-7.8,2.62-6.38.09-16-1.05-22.4a222.26,222.26,0,0,0-5.8-24.82c-2.22-7.45-4.28-15.35-8.15-22.16-1.46-2.57-3.11-4.64-6.25-4.58-3.82.09-6.37,2.54-6,6.43.21,2.24,5.06,1.07,4.83-1.29-.27-2.77.89-1.48,1.91-.16a24.06,24.06,0,0,1,2.8,5.31,125.86,125.86,0,0,1,4.52,12.78c2.21,7.12,4.13,14.3,5.69,21.6,1.79,8.36,4.45,18.18,3.23,26.79-.47,3.37-3.09,5.74-5.12,8.37-2.65,3.45-5.25,6.95-8,10.29l4.44.08c-1.24-4.64-5.38-8.69-8.28-12.35-.89-1.13-1.8-2.25-2.64-3.41-1-1.34-.95-1.39-.89-2.65.08-1.84,1.6-4.4,2.12-6.22.43-1.49.81-3,1.13-4.51,3.85-17.94.38-37.37-.85-55.45C144.85,225.72,140,226.45,140.12,228.63Z" style="fill:#212a39"/><path d="M140.67,215c.47-1.09,1.28-1.72,2.84-1,2.24,1.08,4.23,3.5,6,5.23,1.45,1.43,2.22,2.48,0,3.67-2,1-4.57,1.47-6.71,2.15-3.42,1.1-3.14-4.94-2.84-6.69A16.28,16.28,0,0,1,140.67,215Z" style="fill:#ea4869"/><path d="M143,215.29c-.86.2-1,.41-.5.63a9,9,0,0,1,.81.56A18.47,18.47,0,0,1,145,218c.79.77,1.55,1.58,2.31,2.37.22.23,1,.82,1,1.2,0,.12-.87.47-1.22.6-1.23.46-2.54.71-3.8,1.07l-1,.29.61.1c-.13-.23-.33-.37-.38-.65a16,16,0,0,1-.36-2.18,15.71,15.71,0,0,1,.79-5.5c.93-2.58-3.9-2.48-4.6-.51-1,2.88-1.86,7.36-.32,10.23a3.82,3.82,0,0,0,3.87,2,27.78,27.78,0,0,0,7.34-2.06c1.61-.64,4.05-1.83,4-3.88s-2.61-3.88-3.9-5.16c-2.92-2.9-8.35-6.3-11-1.1C137.14,217.17,142,217.14,143,215.29Z" style="fill:#212a39"/><path d="M119.47,171.21c6.75,9.33,23.52,4.3,26.34-6.1.21-.77-4.44-.22-4.75.91-2.18,8-11.52,11.15-16.76,3.9-.78-1.08-5.09.93-4.83,1.29Z" style="fill:#212a39"/></svg>