<svg xmlns="http://www.w3.org/2000/svg" viewBox="0 0 408.01 517.57"><title>practicum</title><path d="M116.87,498.65a8.58,8.58,0,0,0,.52,3.24c1.37,3.93,5,6.48,8.56,8.25,11.72,5.77,25.43,4.5,38.09,5.28q22.2,1.37,44.44,1.84,18,.4,36.07.28c15.13-.1,30.75-.56,44.76-7.4,4-2,8.17-4.7,9.69-9.09,2.1-6-1.81-12.86-7.16-15.92-6.22-3.56-15.51-4.65-22.51-6.36-10.35-2.52-21.82-2.46-32.4-3.28a399.45,399.45,0,0,0-57-.75C170.24,475.38,117.49,482,116.87,498.65Z" style="fill:#e5e5e5"/><path d="M304,126.5c33.66,90.43,19.6,190.84-28.24,270.34C197.12,377.92,122,352.93,56.68,287c80.45-70.79,184.66-183,189.9-180.17,12.48,6.7,32.58,17,46.5,19.63C297.66,127.28,300.37,129.43,304,126.5Z" style="fill:#525e6d"/><path d="M301.56,127.15c25.36,68.73,23.83,145-1.27,213.63a330.67,330.67,0,0,1-26.79,56l3.73-1.25c-61.55-14.85-122.45-34.62-174.37-71.94A350.42,350.42,0,0,1,58.93,286c-.11.44-.21.88-.32,1.32,39.51-34.81,77-71.87,114.36-109,15.31-15.2,30.55-30.49,46-45.55,8.43-8.23,16.79-17.21,26.36-24.16.51-.37,1.21-.77,1.21-.77.1.19-1.9,0-1.89,0s4.3,2.29,4.69,2.5c6.87,3.61,13.83,7.08,21,10.16a117,117,0,0,0,19.41,6.73c5.6,1.31,10.58,3.38,15.75-.13,2.69-1.84-1.47-2.43-3-1.4-2.49,1.7-7.17-.46-9.8-1.07a85.74,85.74,0,0,1-10.49-3.21,210.44,210.44,0,0,1-19.65-8.63q-4.38-2.16-8.71-4.43c-1.76-.93-3.88-2.63-5.84-3a6.28,6.28,0,0,0-3.86.76c-3.17,1.5-5.93,4.24-8.53,6.52-4.91,4.33-9.65,8.86-14.36,13.39-33.82,32.55-66.58,66.19-100.31,98.84-21.65,21-43.56,41.68-66.18,61.61-.36.32-.74.89-.31,1.32a351.52,351.52,0,0,0,80.73,60.73c27.53,15,56.88,26.35,86.84,35.49,17.26,5.26,34.72,9.79,52.25,14,1.08.26,3.11-.22,3.73-1.26,37.44-62.59,54.15-137.33,43.9-209.79a297.3,297.3,0,0,0-15.5-61.24C305.78,124.19,301,125.6,301.56,127.15Z" style="fill:#212a39"/><path d="M305.87,291.59c.12-.88-54-18.88-63.33-21.64-20-5.92-77.76-31.27-78-31.37-.78-.34-1.1,2.52-1.15,2.85a82,82,0,0,0-.66,9c-.17,4.67-.21,9.34-.2,14,0,6,.11,11.94.26,17.91q.27,10.33.72,20.66.48,11.16,1.15,22.29.69,11.4,1.59,22.79.89,11.09,2,22.14c.7,6.81,1.49,13.61,2.43,20.38.8,5.85,1.71,11.69,2.84,17.48a126.56,126.56,0,0,0,3.24,13.45,30,30,0,0,0,3.63,8.28c1.3,1.88,3.68,2.41,4.38-.17,2.87-10.66,6.92-21.13,10.33-31.66q6-18.5,11.78-37,4.9-15.61,9.77-31.23c.73-2.34,1.42-4.69,2.17-7,.27-.86,1.45-5.69,3.15-4.73,1.94,1.1-.88,7.65-1.35,9.23l-3.27,11q-4.54,15.29-9.11,30.56-4.92,16.47-9.79,32.94c-2.39,8.11-4.8,16.23-7.09,24.37-.4,1.42-2,4.6-1.58,6.1A2.54,2.54,0,0,0,191.7,434c2.05.46,4-1.88,5.21-3.16,9.75-10.05,19.75-19.84,29.29-30.1,4.69-5,9.23-10.23,13.75-15.43s8.79-10.91,13.56-15.95c.09-.11.19-.21.27-.33a493.19,493.19,0,0,0,36.72-49.77c4.57-7.14,9.42-14.06,13.19-21.7A21.36,21.36,0,0,0,305.87,291.59Z" style="fill:#d1d1d1"/><path d="M305.87,291.59c.12-.88-54-18.88-63.33-21.64-20-5.92-72.46-28.84-72.49-28.61-1.25,9,2.25,78.31,2.7,85.74.46,7.6,6,100.26,7.69,102.74,1.3,1.88,3.68,2.41,4.38-.17,2.87-10.66,6.92-21.13,10.33-31.66q6-18.5,11.78-37,4.9-15.61,9.77-31.23c.73-2.34,1.42-4.69,2.17-7,.27-.86,1.33-4,3.15-4.73,11.37-4.28-6.18,44.59-9.22,54.78-3.27,11-22,61-21.1,61.22,2.05.46,4-1.88,5.21-3.16,9.75-10.05,19.75-19.84,29.29-30.1,4.69-5,9.23-10.23,13.75-15.43s8.79-10.91,13.56-15.95c.09-.11.19-.21.27-.33a493.19,493.19,0,0,0,36.72-49.77c4.57-7.14,9.42-14.06,13.19-21.7A21.36,21.36,0,0,0,305.87,291.59Z" style="fill:#e5e5e5"/><path d="M163.56,241a2.55,2.55,0,0,0-.35,2c.27,1.09,1.9,1.57,2.77,2,1.21.66,2.52,1.09,3.7,1.81s2.47,1.36,3.69,2.08c5.95,3.49,11.91,7,17.91,10.36,5.75,3.24,11.54,6.39,17.41,9.4,3,1.51,5.95,3,9,4.41q2.25,1.08,4.52,2.1a13.72,13.72,0,0,1,3.78,2c4.58,4.16,11.26,5.93,17,7.75q19.08,6,38.46,11.17a55.11,55.11,0,0,1,8.38,2.51,27.35,27.35,0,0,0,9.17,2.19c2.48.15,4.57-2.57,4-5.16s-3.17-3.07-5.33-3.58c-22.18-5.2-45.47-9.4-66.23-18.27a372.12,372.12,0,0,1-39.18-20.12c-2.16-.75-4.31-2.5-6.3-3.66q-3.22-1.89-6.44-3.79c-3.82-2.25-7.26-4.84-11-7.21a3.79,3.79,0,0,0-1.51-.67C165.63,238.05,164.22,239.82,163.56,241Z" style="fill:#d1d1d1"/><path d="M161.48,244.67c22.16,12.84,44.46,26.58,68,36.79C239.88,286,251,289,261.84,292.15c11.81,3.43,23.67,6.67,35.56,9.81,1,.26,4.79-1.36,3.57-1.68q-17.18-4.53-34.25-9.43c-11.38-3.29-23.07-6.41-33.93-11.22-23.22-10.28-45.27-23.72-67.22-36.44-1.07-.62-4.64,1.16-4.09,1.48Z" style="fill:#212a39"/><path d="M308.29,290.94c-.86-1.83-7.71-3.21-9.33-3.79-7.07-2.51-14.17-4.92-21.28-7.31-12.38-4.17-25-7.85-37.28-12.19-16.23-5.71-31.84-13.45-47.31-20.91q-9.87-4.76-19.67-9.65c-2.3-1.15-5.13-3.36-7.8-3.07-6.7.72-5.28,16.47-5.38,20.56-.35,14.47.09,29,.65,43.45,1.16,30,2.77,60.27,6.91,90.06,1.07,7.69,2.34,15.36,3.88,23,1.2,5.95,2.21,14.6,6.34,19.41,3.5,4.07,8.25.94,9.89-3.05,4.23-10.3,7.26-21.25,10.72-31.83,5.56-16.95,11-33.94,16.57-50.9,2.05-6.29,4.1-12.57,6.21-18.84.58-1.74,1.93-7.36,2.79-8.07l-4.46,1c.67.33-8,26.75-8.65,29q-5,16.71-10,33.41t-9.83,33.55c-1,3.52-7.3,18.18-1.53,20.12,5.51,1.86,10.32-4.27,13.29-7.67,7.72-8.84,16-17.21,24-25.8,14.22-15.26,28.1-31,40.91-47.46,7.67-9.87,15-20,21.87-30.45,3.53-5.35,7.06-10.72,10.45-16.15,3.12-5,6.69-10.39,8-16.2.25-1.08-4.49-.38-4.76.84-2.06,9.16-8.88,17.6-13.9,25.34-5.43,8.37-11,16.66-16.84,24.73-11.49,15.79-24.05,30.75-37,45.38-7.1,8-14.5,15.8-21.82,23.61q-5,5.37-10,10.74c-1.77,1.91-3.59,3.8-5.31,5.76-.95,1.09-2.23,3.38-3.49,4-4.93,2.54-2.3-5.93-1.78-8.18,1.18-5.07,2.82-10.07,4.27-15.07q4.32-14.93,8.77-29.81,5-16.71,10-33.39,2.61-8.67,5.17-17.36c.92-3.1,3-7.2,2.86-10.47l-.14-.18h0c-1.26-.61-3.44.15-4.46,1-2.11,1.76-2.94,7.84-3.76,10.29-2.75,8.23-5.43,16.49-8.11,24.75-6.45,19.81-12.82,39.64-19.41,59.41-1.28,3.84-2.56,7.67-3.9,11.5-.66,1.89-1.39,6-3.29,7.15l3.41-.91c-3.13-.11-4.75-6.9-5.54-9.43a123.35,123.35,0,0,1-3.08-13C174.4,399,173,390,171.86,381c-2.19-17.42-3.44-34.94-4.52-52.46-1-16.92-1.84-33.86-2.19-50.81-.19-8.73-.3-17.47,0-26.2a91.89,91.89,0,0,1,.81-11.36c.14-.89.29-1.78.48-2.66.32-1.43,1.48-2.73-.39-2l-3.12.26C181.18,244.7,199.33,253.86,218,262c19.07,8.37,39.11,14.06,58.83,20.72,6.08,2.06,12.15,4.13,18.19,6.28,1.47.52,7.92,2,8.47,3.2S308.68,291.79,308.29,290.94Z" style="fill:#212a39"/><path d="M191,269.31a25.86,25.86,0,0,1-12.26,14.9c-2.83,1.53,1.54,1.75,2.89,1a29.24,29.24,0,0,0,14.16-16.66c.43-1.29-4.33-.68-4.79.74Z" style="fill:#212a39"/><path d="M266.43,296a37,37,0,0,0,5,22.49c1,1.73,5.64,0,4.44-2.06a34.29,34.29,0,0,1-4.56-20.86c.22-2.34-4.68-1.6-4.88.43Z" style="fill:#212a39"/><path d="M162,235.63a342,342,0,0,1,21-46.56c4.46-8.29,9.21-16.43,14.29-24.35q3.78-5.9,7.83-11.63c2.24-3.16,6.12-6.65,7.75-10.07s-.06-6.93-.8-10.12c3.89-2,8.27-2.33,12.25-4,3.61-1.51,5.68-5.36,8.58-7.95a82.38,82.38,0,0,1,19.48-13.48c12.69-6,26.46-5.65,37.63,3.36,1.09.88,2.14,1.81,3.14,2.79C322,141.7,317.54,221.34,305,296.83c0,0-62.15-19.32-81.9-28.2C206.38,261.1,162,235.63,162,235.63Z" style="fill:#e5e5e5"/><path d="M322.29,82.23c9.66-31.93,3.43-62.07-13.91-67.32S269.15,31.3,259.49,63.23c-.22.74-1.34,4.42-1.73,5.73-5.36,17.7-7.58,30.49-7.55,39.88.08,19.28,19,33.06,19,33.06s23.89-.66,34.22-14.76c5.65-7.72,11.3-20,17.09-39.19C320.94,86.69,322.06,83,322.29,82.23Z" style="fill:#e5e5e5"/><path d="M170.05,241.34c9.27-26,26.2-63.78,45.36-93.09,1.15-1.76-.93-1.43-2.39-5.63-1-2.78-1.4-10.89-1.4-10.89,6.36-1.33,13.91-2.2,18.22-7.38a1.37,1.37,0,0,1,.81-.56c.6-.06,1,.61,1.19,1.17,3.76,9.44,10.68,17.36,18.13,24.12,7.92,7.19,16.83,14.37,27.65,16.29,1.1.19,6.84-5.46,7.92-5.29,4.13.64,3.64,7,8.58,8,7.09,1.39,17.33-13.4,17.33-13.4,6.86,37.66,2.07,90.87-6.44,142.17,0,0-62.15-19.32-81.9-28.2C206.38,261.1,170.05,241.34,170.05,241.34Z" style="fill:#fff"/><path d="M308.58,144.82l-3.85-13.55L285,138.91l-41.05-25.74a56.61,56.61,0,0,0-5.6,4c-1.7,1.6,7,16.06,11.41,21.85,4,5.3,13.55,13.73,18.8,17.8A27.83,27.83,0,0,0,275.1,161c.2.08,3.88,1.65,3.93,1.55l6.27-13.37L294,164.1S307.43,158.17,308.58,144.82Z" style="fill:#fff"/><path d="M320.56,88c.38-1.26,1.5-4.94,1.73-5.72,9.66-31.93,3.43-62.07-13.91-67.32-7.51-2.27-13.1.6-17.51,6.73-11.45,15.93-21.52,34.25-28.05,52.77-2.46,7-4.74,15.4-6.06,19.79-1.42,4.73-4.5,15.64-4.5,15.64s-2.12-.8-2.26-.49a3.8,3.8,0,0,0-.18.54c-3.09.17-5.82,1-5.88,3.28-.1,3.51,2.19,14.37,5.05,18.56a35.39,35.39,0,0,0,5.23,6,46.07,46.07,0,0,0,9.49,6.72c5.64,3.05,11.25,3.94,17.65,3.58,6.56-.37,20.12-8.21,22.83-15.08a5.43,5.43,0,0,0-.92-5.58c.06-.09.13-.17.2-.26C309.12,119.42,314.77,107.09,320.56,88Z" style="fill:#fff"/><path d="M283.55,149.93c2.74,5.07,5.42,10.18,8.25,15.2.55,1,2.51.6,3.25.25,8.28-4,14.88-11.47,16-20.78.26-2.29-4.64-1.54-4.87.45A22.91,22.91,0,0,1,293,162.83l3.25.25c-2.83-5-5.5-10.13-8.25-15.19-.92-1.71-5.57,0-4.44,2Z" style="fill:#212a39"/><path d="M281.72,148l-5.25,15.55,4.66-1.25c-17-9.26-33.21-25.46-41.27-43-.64-1.4-5.34.18-4.83,1.29,8.17,17.76,24.36,34.08,41.58,43.45,1.12.61,4.18.16,4.66-1.25q2.61-7.78,5.24-15.55c.42-1.25-4.32-.66-4.79.74Z" style="fill:#212a39"/><path d="M281.82,176.49c-3.15,10.72-6.34,21.42-9.42,32.16-3.65,12.71-9.41,23.87-17.69,32.47.38,4,6.33,17.84,5.61,21.88,3-1.68,14.87-9.27,17.92-11.1,6.13-3.67,10.41-38.15,11-48.43.28-5.17,2.22-28.52-2.43-29.6l-1.71-.4c-1.33-.31-2.75.93-3.18,2.76A2,2,0,0,1,281.82,176.49Z" style="fill:#ddd"/><path d="M282.39,175.33c-2.25,10.94-4.53,21.87-6.71,32.83-2.57,13-7.39,24.58-14.91,33.83.71,3.92,7.79,17.25,7.41,21.34,2.86-1.93,14-10.48,16.94-12.56,5.8-4.17,7.19-38.88,6.89-49.18-.15-5.17-.17-28.6-4.9-29.29l-1.73-.25c-1.35-.2-2.67,1.15-2.94,3C282.42,175.15,282.41,175.24,282.39,175.33Z" style="fill:#ea4869"/><path d="M280.55,175.45c-3.85,18.75-5.75,39.49-15,56.53a66.14,66.14,0,0,1-3.49,5.69c-.7,1-2.82,2.92-3,4.08-.31,1.72.91,3.82,1.54,5.38,2,4.9,5.85,10.9,5.77,16.32,0,1.61,2.15,1.39,3.06.76,3.53-2.43,6.93-5.08,10.35-7.65,2.54-1.91,5.87-3.67,7.84-6.2,4.4-5.68,4.51-15.84,5.16-22.6a233,233,0,0,0,1.1-26.29c-.15-8,0-16.42-1.87-24.26-.63-2.66-1.42-5.43-4.26-6.28a5.41,5.41,0,0,0-7.17,4.52c-.33,1.88,3.38,1.46,3.68-.24.73-4.14,3.09-.39,3.58.95A29.28,29.28,0,0,1,289,182a135.11,135.11,0,0,1,1,14.91c.2,7.6.11,15.16-.35,22.75-.54,8.88-.64,19.44-4.26,27.73-1.35,3.1-4.57,4.72-7.2,6.69-3.74,2.81-7.43,5.7-11.28,8.35l3,.77c.07-5.1-3-10.41-5-15-.9-2.16-2.58-4.81-1.79-6.88.66-1.74,2.56-3.54,3.56-5.14s2-3.4,2.94-5.16c8.74-17,10.67-37.35,14.47-55.84C284.61,173.35,280.9,173.75,280.55,175.45Z" style="fill:#212a39"/><path d="M283.52,160c.78-1,1.76-1.36,3.12-.17,1.94,1.71,3.27,4.7,4.54,6.91,1.05,1.84,1.53,3.11-1.06,3.67-2.28.5-5,.21-7.33.3-3.74.15-1.78-5.84-1-7.51A17.24,17.24,0,0,1,283.52,160Z" style="fill:#ea4869"/><path d="M285.2,160c-.6.64.42,1.16.81,1.64a17.81,17.81,0,0,1,1.51,2.23c.64,1.1,1.23,2.24,1.84,3.36a7.64,7.64,0,0,1,.69,1.37c.28,1,.06.78-.71,1.05-1.38.49-3.64.1-5.11.08-2.35,0-2-2.42-1.51-4.19A16.29,16.29,0,0,1,285.2,160c.9-1.25-2.7-.91-3.36,0-1.68,2.34-3.65,6.46-3,9.46a2.75,2.75,0,0,0,2.81,2.2,30.93,30.93,0,0,0,8.21-.31c1.43-.29,3.8-.94,4-2.71s-1.84-4.28-2.69-5.74c-1-1.72-2.26-4-4.29-4.61a5,5,0,0,0-5,1.71c-.6.65.52.94,1,1A3.18,3.18,0,0,0,285.2,160Z" style="fill:#212a39"/><path d="M280.67,103.12c2.78,1.71,4.51,4.44,6.93,6.55a11.18,11.18,0,0,0,8.93,2.55c2.65-.29,3.75-3.81.45-3.44-5.76.63-8.24-5.74-12.57-8.4-1.76-1.09-6,1.33-3.74,2.74Z" style="fill:#212a39"/><path d="M326,34.47c3.2-2.46,8.51-6.65,9.19-10.82.95,4.88.6,10.24,1.38,15.29a35.77,35.77,0,0,1,.64,8.5,24.08,24.08,0,0,1-4.93,12.05A68.16,68.16,0,0,1,323.21,69c.41.48,1-.34,1.11-1l1-8c-.58.45-2.47,1-3.06,1.48l-3.79,2.89a6.49,6.49,0,0,0,1-5.66l-.91-.13c-1.68,1.65-3.92,2.12-6.12,3l1.23-.14a10.75,10.75,0,0,0-.29-4c-.67-2.5-2.39-4.61-3-7.1-1-3.8.72-3.2,2.81-6C316.22,40.17,321.94,37.57,326,34.47Z" style="fill:#bbdff5"/><path d="M255.56,22.77c.61-.52,1.21-1.05,1.78-1.6-5,0-9.36-1.71-14.06-3.31,5,1.37,10.41.61,15.37-1,16.41-5.28,31-17.51,49-16.85,7.1.25,13.25,4.12,18,9.17,4,4.26,11.22,10.74,6,16.16A81.68,81.68,0,0,1,302.89,44.7a81.57,81.57,0,0,1-16.8,4.7c-2.53.42-5.4.26-7.54,1.63-1.06.68-4.7,4.45-4.81,5.67.05-.59-1-7.42-1.83-6.91a24.2,24.2,0,0,0-7.61,6.77c-1.65,2.41-.67,6.78-2.85,8.59-3.51-1.9-3.05-6.71-3-10.08,0-2.93-5.68.3-6.7.81-2.65,1.34-9.32,2.76-10.7,5.07q3.26-5.46,6.52-10.93c-3.9.13-7.8.13-11.69,0,3.16.08,8.11-5.21,10.09-7.33,2.77-3,6.16-6.66,8-10.24-1.84,0-3.66.55-5.56.32a6.29,6.29,0,0,1-4.89-3A47.9,47.9,0,0,0,255.56,22.77Z" style="fill:#bbdff5"/><path d="M220.77,152.67c-5.35-5.85-6.29-14-6.74-21.58l-1.49,1.52a53.18,53.18,0,0,1,10.83-2.5c3.08-.39,4.17-1.25,6.35-3.3,6.81-6.37,13.65-13,22-17.36a1.47,1.47,0,0,0,.94-1.26c.07-15.43,4.75-30.68,9.27-45.29,4.79-15.51,12.82-31.85,26.1-41.85,5.25-3.95,11.8-7,18.44-5,6.07,1.77,10.41,6.9,13.07,12.41,7.31,15.14,5.68,34,1.59,49.79-4.32,16.67-9.71,34.8-19.86,48.93-1.19,1.65,3.6,1.17,4.46,0,10.17-14.16,15.53-32.06,20-48.71s6.5-38.15-2.7-53.83c-6.55-11.17-18.67-14.25-30.31-9.23C278.35,21.55,268.57,36,262.3,49.73c-4.64,10.12-7.69,21.17-10.39,31.94-2.28,9.1-4.07,18.4-4.11,27.81l.94-1.26c-8.29,4.31-15.13,10.79-21.94,17.12-.15.14-3.1,2.57-3,2.84-.28-.9,3.48-.48.31-.52a13.69,13.69,0,0,0-1.82.19,57.91,57.91,0,0,0-11.57,3c-.64.22-1.54.76-1.5,1.53.47,7.83,1.56,16.1,7.07,22.12,1,1.14,5.64-.58,4.5-1.83Z" style="fill:#212a39"/><path d="M209.93,144a341.21,341.21,0,0,0-50.24,91.44,1.17,1.17,0,0,0,.42,1.57c18.14,10.4,36.37,20.81,55.1,30.11,20.74,10.3,43.48,16.88,65.45,24q11.44,3.71,22.94,7.3c1.3.4,3.59-.2,3.85-1.77,5.11-31,9.1-62.27,9.65-93.68.42-24.06-.5-49.82-10-72.31-.68-1.6-3.51-1.21-4.42,0a31,31,0,0,1-6.13,6.13c-6.08,4.54-12.25,3-18.59-.28-10.93-5.57-18.38-15.75-25.46-25.4-1.22-1.67-5.84.15-4.43,2.07,8.86,12.1,18.59,24.62,33.62,29,10,2.94,19-2.25,25-10.26h-4.41c9.56,22.76,10.4,48.81,9.87,73.14-.67,30.84-4.6,61.58-9.62,92l3.86-1.77c-18.37-5.71-36.68-11.64-54.85-18-10.17-3.54-20.47-7-30.18-11.71C210.1,260.15,199.12,254,188.15,248q-12.19-6.75-24.29-13.67l.42,1.57a338.22,338.22,0,0,1,49.66-90.61c1.84-2.39-2.74-2.93-4-1.28Z" style="fill:#212a39"/><path d="M403.05,71.08c2.3,0,6.37-1.5,4.47-4.54-1.52-2.42-5.47-1.68-7.18.09s-2.7,5.46-3.95,7.84c-1.74,3.33-3.64,6.57-5.6,9.77-3.87,6.33-7.91,12.59-12.12,18.71-15.86,23-36.15,44.15-63.34,53.12-2.83.94-2.2,3.61.71,2.65,19.4-6.4,36.07-18.38,49.77-33.4A215.63,215.63,0,0,0,386.28,98.6c3.43-5.19,6.82-10.42,10-15.75,1.45-2.41,2.85-4.85,4.18-7.33,1.2-2.27,2.49-6.79,4.39-8.47L402,68l.78,1.08,2.87-1h-.78c-1.94,0-5.07,3-1.82,2.94Z" style="fill:#212a39"/><path d="M209.84,144.22a339.09,339.09,0,0,1-51.27,36.65q-14.13,8.28-28.93,15.38-7.65,3.67-15.44,7.05c-4.58,2-11,6.55-15.35,2.72-.91-.81-5.16,1.07-4.57,1.59,3,2.61,6,2.75,9.6,1.58,5.84-1.89,11.56-4.73,17.17-7.22,11.45-5.11,22.7-10.7,33.66-16.8a347.73,347.73,0,0,0,59.48-41.41c.9-.78-3.49-.29-4.35.46Z" style="fill:#212a39"/><path d="M279.87,57.31c-4.93-4.36-12.95-9.23-19.88-8-3.88.69-7.82,5.92-3.29,8.66,1.05.64,3.61-.8,2.24-1.64-4.13-2.5,1.34-5.22,4-4.94A21,21,0,0,1,268.29,53,32.4,32.4,0,0,1,277.62,59c.93.82,3.48-.55,2.25-1.64Z" style="fill:#212a39"/><path d="M308.8,70.07c-.87-6-9.07-5.74-11.91-1.41-.14.22,2.4.16,2.85-.54,2.29-3.49,5.74-.16,6.16,2.72.07.49,3-.1,2.9-.77Z" style="fill:#212a39"/><path d="M292.9,54.68l.34,8.19a.91.91,0,0,0,.44.76L300.62,68a.94.94,0,0,1-.17,1.68l-7.7,2.85a1,1,0,0,0-.58.65l-2,8a.94.94,0,0,1-1.65.35l-5.09-6.44a.94.94,0,0,0-.8-.35l-8.19.54a.93.93,0,0,1-.84-1.45L278.14,67a1,1,0,0,0,.09-.87l-3.05-7.62a.93.93,0,0,1,1.12-1.25l7.9,2.21a1,1,0,0,0,.86-.18l6.3-5.26A.94.94,0,0,1,292.9,54.68Z" style="fill:#f9e280"/><path d="M290.94,54.82c.11,2.52-.61,6.63.53,8.91.73,1.45,7.87,5.5,8,4.84-.22,1.26-7.64,2.27-8.91,4-1.7,2.36-.75,6.74-2.73,8.64l2.74-.73c-2.14-.77-3.41-4.5-5.17-6.05s-3.2-1.15-5.3-1a33.4,33.4,0,0,1-4.67.31c-1.22-.1-.11.17-.13.49,0-.34.7-1.13.95-1.42,1.31-1.56,3.64-4.36,3.9-6.45.23-1.83-1.47-5.61-2.48-7s0-.29-1.42-1c-1.67-.85-.27.34,0,.51,1.35.78,3.53,1,5.05,1.41,1.94.54,3.26.87,5.14-.18a24.89,24.89,0,0,0,3.41-2.85,14.33,14.33,0,0,0,1.93-1.61c1.3-1.53,0,.91-.66-.07,1,1.47,4.68,0,3.54-1.71l-.56-.82a1.78,1.78,0,0,0-1.6-.58,7.29,7.29,0,0,0-4.19,2.13,39.18,39.18,0,0,0-3.12,2.61c-1.16,1.21-1.69.69,0,.92-3-.4-7.7-3.64-10.64-1.82-3.49,2.16,1.12,6.92,1.45,9.59.37,3-4.28,5.59-4.39,9.07a1.07,1.07,0,0,0,.47,1c3.26,1.74,7.17-1,10.25.24-.94-.39,2.16,3.35,2.74,4.08,1.08,1.37,1.62,2.33,3.27,2.92a2.72,2.72,0,0,0,2.74-.73c2.2-2.13,1.64-7.72,2.85-9,.06-.07,3.83-1.26,4.85-1.63,1.67-.62,2.8-.88,3.9-2.3a1.21,1.21,0,0,0,.15-1.44c-1.39-2.85-5.64-2.94-7.38-5.36-1.13-1.57-.49-6-.58-8.15S290.87,53.07,290.94,54.82Z" style="fill:#212a39"/><path d="M323.53,63.08l1.65,8a.92.92,0,0,0,.56.68l7.55,3.2a.94.94,0,0,1,.1,1.68l-7.13,4a1,1,0,0,0-.48.74l-.7,8.17a.94.94,0,0,1-1.57.61l-6.06-5.53a.94.94,0,0,0-.85-.22l-8,1.85a.94.94,0,0,1-1.07-1.3l3.39-7.47a.93.93,0,0,0-.05-.87l-4.23-7a.94.94,0,0,1,.91-1.42l8.15.91a.94.94,0,0,0,.82-.31l5.37-6.2A.94.94,0,0,1,323.53,63.08Z" style="fill:#f9e280"/><path d="M321.6,63.59c.54,2.61.45,7,2.36,9,.94,1,8.5,3.41,8.48,3.09.06,1-7.08,3.54-8,4.85-1.84,2.59.25,7-1.53,9.38l2.29-.82c-1.57-.29-3.93-3.84-5.71-5s-3-.87-5-.42c-1.7.38-3.4.83-5.11,1.18-1.06.22-.43.21-.43.22,0,.6,1.09-1.28,1.06-1.23,1-1.41,2.9-5,2.87-6.81,0-2-2.22-5.2-3.48-6.62-.34-.38-.48-1.15-.88-1.47-1.59.38-2,.59-1.31.64l.78.09c1.28.62,3.8.44,5.21.58,2,.2,3.37.28,5-1a24.54,24.54,0,0,0,2.91-3.35A10.57,10.57,0,0,0,322.77,64c.26-.52,1-.6.41-.4l-2.1-.4.68.72c1.12,1.18,4.79-.34,3.55-1.65l-.68-.72a2.14,2.14,0,0,0-2.11-.4,6.44,6.44,0,0,0-3.43,2.42c-.8.91-1.59,1.83-2.39,2.75-.39.46-2.34,2.3-1.06,1.74s-.78-.37-1.5-.45l-3.62-.4c-1.85-.21-2.95-.38-4.69.44-.42.21-1.11.66-1.12,1.22,0,3.4,4.33,5.93,4.17,9-.12,2.39-5.37,7.28-2.46,9.43,2.51,1.84,7.54-1.58,10.19-1.52-1,0-.55-.07.43,1,.81.89,1.81,1.65,2.69,2.46,1.44,1.32,2.14,2.14,4.06,2.5a2.73,2.73,0,0,0,2.29-.82c1.08-1.44,1-2.36,1.18-4.16.07-.8.42-5.85-.05-5.07.72-1.21,4.16-2.36,5.4-3.07s2.3-1.2,3.09-2.65a1,1,0,0,0-.06-1c-1.87-2.64-6.2-2-8.29-4.21-1.26-1.32-1.46-6.15-1.88-8.2C325.13,60.9,321.25,61.89,321.6,63.59Z" style="fill:#212a39"/><path d="M91,230.18c-14.81,19.63-34,34.37-55.39,46.29-2.83,1.58,1.46,2.11,3,1.28,21.89-12.23,41.71-27.42,56.91-47.56,1.23-1.63-3.58-1.2-4.48,0Z" style="fill:#212a39"/><path d="M48.61,252.4C35.61,266,18.86,274.55,1.4,281.06c-3.17,1.18-.27,2.61,1.86,1.82,18.5-6.9,36.07-16,49.82-30.47,1.33-1.39-3.45-1.08-4.47,0Z" style="fill:#212a39"/><path d="M56.3,303.22c-7.25,4.94-13.12,11.44-19.28,17.62-.86.86.74,1.16,1.25,1.21a4.34,4.34,0,0,0,3.21-1.26c6-6,11.63-12.22,18.64-17,1-.66.33-1.19-.4-1.49-1-.41-2.62.37-3.42.91Z" style="fill:#212a39"/></svg>