<svg xmlns="http://www.w3.org/2000/svg" viewBox="0 0 242.74 517.41"><title>kb</title><path d="M0,499.25a8.48,8.48,0,0,0,.49,3.11c1.32,3.76,4.77,6.21,8.23,7.92,11.25,5.53,24.41,4.32,36.56,5.06q21.32,1.32,42.67,1.78,17.33.39,34.64.26c14.53-.1,29.53-.54,43-7.1,3.88-1.89,7.85-4.52,9.31-8.73,2-5.79-1.74-12.35-6.87-15.29-6-3.42-14.89-4.47-21.62-6.1-9.94-2.42-20.95-2.37-31.11-3.16a385.31,385.31,0,0,0-54.68-.71C51.25,476.9.6,483.26,0,499.25Z" style="fill:#e5e5e5"/><path d="M65.84,486.8C61.2,491.16,62.58,499,68,502.16c6,3.52,14.2,1.27,19.63-2.25,2-1.26-2.83-.6-3.68-.06C79,503.06,72.12,502.5,69.1,497c-1.87-3.4-1.86-7.86,1.09-10.64.8-.75-.72-.7-1.12-.71a5.51,5.51,0,0,0-3.23,1.14Z" style="fill:#212a39"/><path d="M50.64,478.4c-5.87,9.69-3.91,21.27,4.28,29,8.68,8.18,20.94,9.71,32.35,8.54,2.51-.26,3.88-3.4.56-3-10.51,1.08-21.85-.52-29.48-8.5-6.81-7.14-8.33-17.13-3.16-25.67,1.28-2.1-3.6-1.86-4.55-.3Z" style="fill:#212a39"/><path d="M181.25,252.21c5.64-25.88,12.17-52.45,13.06-79a2.44,2.44,0,0,1,0-.27c.05-1.79.09-3.56.1-5.32,0-.18,0-.37,0-.56,4.27-2,8.38-.74,12.76-1.43.49-3.43-2.82-6-5.12-8.19s-5-4.79-6.19-8.07c-.92-2.61-2.71-5.5-3.13-8.21a91.64,91.64,0,0,0-2.62-11.89.11.11,0,0,1,0-.05c-5.41-18.14-16.47-29.62-36.28-28.17-17.55,1.28-34.48,13.59-47,25.12-5.48,5-25.6,27.71-27.74,30.46-4.85,6.21-9.46,12.6-13.92,19.1C56.09,189,47.7,202.62,39.31,216.27c-2.13,3.47-4.25,6.94-6.34,10.44l-.33.57L32,228.44s57.62,24.19,77.63,29.85c16.94,4.8,67.25,12.95,67.25,12.95C177.53,268.42,180.53,255.52,181.25,252.21Z" style="fill:#e5e5e5"/><path d="M181.25,252.21c5.64-25.88,12.17-52.45,13.06-79a2.44,2.44,0,0,1,0-.27c.05-1.79.09-3.56.1-5.32,0-.18,0-.37,0-.56,4.27-2,8.38-.74,12.76-1.43.49-3.43-2.82-6-5.12-8.19s-5-4.79-6.19-8.07c-.92-2.61-2.71-5.5-3.13-8.21a91.64,91.64,0,0,0-2.62-11.89.11.11,0,0,1,0-.05c-5.41-18.14-9.47-26.62-29.28-25.17-17.55,1.28-34.48,13.59-47,25.12-5.48,5-25.6,27.71-27.74,30.46-4.85,6.21-9.46,12.6-13.92,19.1C63.09,192,54.7,205.62,46.31,219.27c-2.13,3.47-7.13,11.78-7.36,12.17,0,0,50.62,21.19,70.63,26.85,16.94,4.8,67.25,12.95,67.25,12.95C177.53,268.42,180.53,255.52,181.25,252.21Z" style="fill:#fff"/><path d="M29.85,231.68a2.31,2.31,0,0,0-.15,1.89c.39,1,23.33,10.79,29.71,13.48,6.1,2.58,25,10.24,28.12,11.34,1.58.54,20.58,6.86,26.53,8.08q19.75,4.06,39.71,7.22c2.91.47,15,3,18.07,2.92a4.05,4.05,0,0,0,3.48-5.29c-.84-2.51-3.51-2.65-5.73-2.94-22.75-3-46.52-4.91-68.26-11.52-14.13-4.3-27.67-10.47-41.22-16.34-2-.77-21.53-9.33-25.54-11.26a4.07,4.07,0,0,0-1.57-.5C31.6,228.71,30.38,230.54,29.85,231.68Z" style="fill:#d1d1d1"/><path d="M33.38,231.75c18.83,7.8,37.49,16.05,56.53,23.35,17.13,6.56,34.6,9.68,52.67,12.58,10.21,1.64,20.44,3.13,30.65,4.76,2.46.39,4.87-3.12,1.64-3.64-11.74-1.87-23.51-3.57-35.25-5.49-11.27-1.85-22.88-3.4-33.8-6.86C82,248.9,59.2,237.94,36.14,228.39c-2.13-.88-5.61,2.18-2.76,3.36Z" style="fill:#212a39"/><path d="M152.18,148.12C148.76,150,145,147,142.5,145A86.84,86.84,0,0,1,121,120.43c-.7-1.21-2.18-3.3-1.88-4.82.64-3.28,5-4.71,7.47-6.25a76.18,76.18,0,0,1,11.55-5.91c15.79-6.31,31.38-3.37,42.44,9.57,6.47,7.58,10.25,17.35,12.36,27.06,1,4.5-3.71,6.13-6.93,7.75a59.28,59.28,0,0,1-9.11,4c-3,1.09-8.2,2.83-8.87,1.62-.54-1-7-11.05-7-11.05S155.52,146.33,152.18,148.12Z" style="fill:#e5e5e5"/><path d="M154,144.37c-1.49.79-2.68-.38-4.11-1.24-7.45-4.47-26.09-26-25.5-29.12s4.55-4.29,6.83-5.68A68.34,68.34,0,0,1,141.8,103c14.42-5.71,28.71-3,38.87,8.9,6,6.95,9.45,15.89,11.42,24.77,1,4.69-3,5-6.78,6.85-5.22,2.51-12.8,7.29-14.36,5.36s-7.15-10.25-7.15-10.25S157.08,142.75,154,144.37Z" style="fill:#fff"/><path d="M189.63,140.1a119.73,119.73,0,0,1-12.11,6.29c-1.45.67-3,1.2-4.42,2-.19.1-1.69.53-1.68.67,0-.37,2.24.63,2.29-.37.07-1.5-3.05-5.14-3.82-6.42L166.78,137c-.63-1.06-3.51.15-4.26.59l-12.77,7.57,4.12-.76q-6.87-5.64-13.23-11.87c-4.81-4.69-13.45-11.8-13.85-19.11-.05-.82-4.91,0-4.83,1.29.39,7,8.75,14.15,13.36,18.71,4.47,4.4,9.14,8.63,14,12.61.91.75,3.3-.27,4.12-.76q6.39-3.78,12.77-7.57l-4.26.59q2.3,3.84,4.57,7.68c1,1.7,1.79,4.39,3.81,4.73,2.39.4,6.38-2.1,8.35-3a131.14,131.14,0,0,0,14.64-7.51c2-1.21-2.8-.66-3.69-.12Z" style="fill:#212a39"/><path d="M217.11,89.5c18.17-26.37,21.3-55.76,7-65.63s-40.67,3.51-58.85,29.88L162,58.48C151.9,73.1,146.12,84.15,143.41,92.74c-2.34,7.41-1.36,14.9.57,21.11a23.85,23.85,0,0,0,22.65,16.73c6.63,0,14.19-1.2,20.12-5.52,7.43-5.4,16.21-15,27.1-30.83C214.57,93.19,216.67,90.15,217.11,89.5Z" style="fill:#e5e5e5"/><path d="M217.11,89.5c18.17-26.37,21.3-55.76,7-65.63s-33.67,3.51-51.85,29.88L169,58.48c-10.08,14.62-17.79,26.09-20.5,34.68-5.58,17.66-21,4.11-1.3,28.46,9.63,11.87,26,13.31,39.57,3.44,7.43-5.4,16.21-15,27.1-30.83C214.57,93.19,216.67,90.15,217.11,89.5Z" style="fill:#fff"/><path d="M143.71,118.31c3.78,5.86,9.09,13.34,16.55,14.25,6.9.84,14.44-1.31,20.87-3.52,3.24-1.11.2-1.84-1.69-1.19-5.63,1.93-14.09,4.56-19.74,1.39-4.55-2.54-8.43-8-11.16-12.23-.79-1.22-5.26.63-4.83,1.3Z" style="fill:#212a39"/><path d="M159.24,154.27c-1-.81-2.78-.3-3.89,1.12l-.16.2c-7.07,8.07-14.16,16.12-21.17,24.23-8.3,9.61-17.82,17-28.5,21.17-1.26,3.61-1.67,18.1-3.92,21.33,3.29-.25,16.68-2.09,20.09-2.45,6.82-.73,24.44-29.05,29.07-37.79,2.33-4.39,13.42-24,9.81-26.78Z" style="fill:#e5e5e5"/><path d="M152.05,155.13c-7.6,7.56-15.23,15.1-22.79,22.71-8.94,9-18.95,15.74-29.88,19.15-1.52,3.52-2.93,17.94-5.39,21,3.3,0,16.79-.94,20.21-1.06,6.85-.26,26.39-27.3,31.61-35.69,2.63-4.23,15-23,11.63-26l-1.25-1.12c-1-.88-2.75-.5-4,.85Z" style="fill:#ea4869"/><path d="M150.05,154.49q-10.74,10.66-21.46,21.37c-6.41,6.42-13.32,12.25-21.52,16.3a61,61,0,0,1-6.62,2.79c-1,.34-2.36.55-3.08,1.4-1,1.17-1.16,3.26-1.46,4.68-1.12,5.22-1.15,12.23-4.22,16.75-.93,1.37,1.21,1.9,2,1.89,4.16-.08,8.31-.39,12.46-.64,3.21-.19,7,.15,10.06-1,6.69-2.45,12.06-10,16.36-15.28A225.5,225.5,0,0,0,147.78,182c4.19-6.54,8.75-13.24,11.51-20.54,1-2.72,2-5.6-.26-7.83-2.72-2.65-6.51-1.72-9,.88-2.05,2.16,2.6,2.75,4,1.27,1.12-1.18,1.43,1.75,1.46,2.26.08,1.79-1.24,4.08-2,5.67a111,111,0,0,1-6.37,11.49c-4,6.46-8.16,12.75-12.71,18.82-5.16,6.89-10.83,15.34-18.08,20.21-2.62,1.76-6,1.27-9.12,1.45-4.34.26-8.69.6-13,.68l2,1.89c4-6,2.91-14.45,5.39-21l-1.88,1.33c22.59-7.38,38-26.55,54.27-42.78C156.16,153.67,151.49,153.06,150.05,154.49Z" style="fill:#212a39"/><path d="M160.94,144.89c1.13-.35,2.14-.15,2.59,1.53.65,2.39.12,5.48,0,7.93-.13,2-.42,3.3-2.79,2.38-2.09-.81-4.1-2.49-6-3.65-3.08-1.87,1.67-5.62,3.19-6.53A16.89,16.89,0,0,1,160.94,144.89Z" style="fill:#ea4869"/><path d="M161.36,146.45c-.58-.26-.71-.17-.4.26a1.81,1.81,0,0,1,.24.72,9,9,0,0,1,.2,2.32c0,1.36-.18,2.71-.29,4.06a8.88,8.88,0,0,0-.17,1.86l-.1.43,1.27-.93c0-.07-2.08-1.14-2.27-1.26-.57-.36-1.11-.74-1.67-1.12s-2-.93-2-1.79c0-.67.82-1.4,1.26-1.83a13.8,13.8,0,0,1,4.6-2.94c.88-.35,1.82-1.45,1.17-2.38s-2.35-.64-3.26-.29c-3,1.17-7,3.72-8.35,6.84a3.07,3.07,0,0,0,1,3.88,26.77,26.77,0,0,0,6.69,4,5.23,5.23,0,0,0,5.22-.62c1.58-1.35,1.42-3.57,1.59-5.47.19-2.26.66-5.39-.58-7.46-1.08-1.8-3.14-1.86-5-1.41C157.54,144.06,158.38,147.18,161.36,146.45Z" style="fill:#212a39"/><path d="M94.69,156.6c5.37,4.43,13.47,2.79,19.84,2.59a2.86,2.86,0,0,0,2.68-1.9c.71-3.39,1.65-7,1.54-10.5-.08-2.45-5-1.65-4.88.41.11,3.48-.83,7.11-1.54,10.5l2.67-1.9c-5.29.17-12.12,1.76-16.57-1.91-1.57-1.3-5.84,1-3.74,2.71Z" style="fill:#e5e5e5"/><path d="M92.37,153.33c5.14,4.17,13.26,2.87,19.39,2.77,1,0,2.93-.44,3.39-1.56,1.19-2.89,2.62-6.14,2.63-9.32,0-1.2-4.82-.39-4.83,1.3,0,2.93-1.5,6.06-2.61,8.73l3.39-1.56c-5.21.08-12.51,1.37-16.85-2.15-1.19-1-5.61.91-4.51,1.79Z" style="fill:#212a39"/><path d="M232.29,44.89c3.42-1.81,9.12-4.92,10.44-8.76.12,4.77-1.08,9.79-1.15,14.7a34.76,34.76,0,0,1-.76,8.15,23.05,23.05,0,0,1-6.61,10.61,65.94,65.94,0,0,1-10.12,7.58c.31.52,1-.16,1.21-.74.75-2.48,1.49-5,2.23-7.45-.62.33-2.51.58-3.13.91L220.34,72a6.25,6.25,0,0,0,1.83-5.2l-.84-.28c-1.86,1.3-4.05,1.38-6.27,1.83l1.19.06a10.27,10.27,0,0,0,.37-3.86c-.23-2.48-1.52-4.75-1.73-7.21-.33-3.76,1.19-2.92,3.61-5.21C222.11,48.73,228,47.18,232.29,44.89Z" style="fill:#bbdff5"/><path d="M167.48,22.5c.67-.38,1.32-.8,2-1.23-4.75-.82-8.59-3.12-12.78-5.38,3.68,2,8.51,2.15,12.58,1.79,3.81-.35,8.29-.51,11.75-2.26a120.55,120.55,0,0,0-10.55-8.29c2.36-.55,4.66.88,6.82,2a27,27,0,0,0,15.66,2.61A32,32,0,0,1,185.46.78c7,3.09,14.2,6.21,21.82,7.28A31.85,31.85,0,0,0,202.6,0c6.55,3.07,13.74,4.6,20.22,7.82,6.84,3.4,9.51,8.06,13.48,14.12,2.74,4.19,8.79,10.83,2.85,15.25a78.74,78.74,0,0,1-30.38,13.68,78.36,78.36,0,0,1-16.66,1.75c-2.46,0-5.15-.62-7.4.33-1.12.47-5.16,3.46-5.46,4.59.14-.55.26-7.17-.62-6.83a23.19,23.19,0,0,0-8.3,5.19c-2,2-1.72,6.31-4.07,7.67-3-2.36-1.81-6.85-1.27-10,.48-2.77-5.42-.63-6.46-.31-2.73.84-9.27,1.12-10.95,3.08L155.51,47q-5.56-.77-11.07-1.86c3,.59,8.51-3.63,10.73-5.31,3.1-2.37,6.9-5.32,9.21-8.41-1.73-.33-3.55-.07-5.31-.6a6,6,0,0,1-4.13-3.66A46,46,0,0,0,167.48,22.5Z" style="fill:#bbdff5"/><path d="M188.38,126.28c13.76-10.21,24.26-25.46,33.29-39.8S239.06,52.32,234.32,35c-3.49-12.76-15.15-18.1-27.58-15.56-16.82,3.42-31.12,16.77-41.07,30.06a232.48,232.48,0,0,0-17,26.12c-4.65,8.35-9,17.28-9.06,27L141,101c-12.76,6.6-24.86,13.38-35.44,23.31C98.58,130.75,92.3,138,85.88,145c-22.55,24.5-39.65,54.48-56.59,83-1.42,2.39,3.49,2.64,4.66.68,16.58-27.9,33.34-57.38,55.39-81.38,6.21-6.76,12.32-13.76,18.93-20.13,10.3-10,22.31-16.62,34.88-23.13.6-.31,1.35-.94,1.35-1.7.09-16,11.62-31.58,20.3-44.18,9-13.12,19.81-25.85,34.68-32.48,11.81-5.27,25.7-4,29.85,10.08C234,51.47,226.66,69.68,218.71,83,210,97.73,199,113.56,185.12,123.85c-2.62,2,1.23,3.94,3.26,2.43Z" style="fill:#212a39"/><path d="M176.14,278.56c4.18-13.14,7.42-26.12,10.4-39.61,5.26-23.85,9.82-47.63,10.32-72.11l-1.43,1.4c3.6-1.39,7.71-.68,11.48-1.09.8-.09,2.71-.67,2.72-1.75.07-6.22-6.6-9.14-9.77-13.76-4.69-6.81-5.11-15.27-7.31-23-.53-1.86-5.35-.56-4.83,1.29,2,7.12,2.94,14,6.05,20.78a23,23,0,0,0,5,6.71c2.39,2.38,6,4.76,6,8.49l2.72-1.74c-4.93.53-9.34,0-14.06,1.77-.49.19-1.42.77-1.43,1.4-.5,24.49-5.06,48.26-10.32,72.12-3,13.49-6.22,26.47-10.4,39.61-.59,1.86,4.29,1.25,4.85-.53Z" style="fill:#212a39"/><path d="M157.15,430.45,64.82,397.31a7.56,7.56,0,0,1-3.65-2.8h0A7.58,7.58,0,0,1,70,383l92.32,33.15a7.58,7.58,0,0,1,3.66,2.8h0A7.58,7.58,0,0,1,157.15,430.45Z" style="fill:#fff"/><path d="M63.18,386.07c3.33-4.34,10.53.07,14.06,1.34l23.53,8.44,50.89,18.27c5.65,2,14.75,3.62,12.93,11.78-.33,1.44,4.47.69,4.79-.73,1.77-7.89-4.92-10-10.67-12l-24.13-8.66L78.15,384.22c-6.78-2.43-14-5.06-19.4,2-1.14,1.48,3.6.95,4.43-.13Z" style="fill:#212a39"/><path d="M170.37,277.94c33.07,25.85,4.3,69.81-5.32,89,0,0-24.66,45.19-35.24,41.72s2.31-51.91,2.31-51.91c3.18-10.15,6.51-19.89,9.89-29.05.43-1.16,1.18-2.51,1.7-3.63-6.32,13.45-14,26.45-21.41,39.33-18.19,31.78-31.43,34.21-36.75,33.94s-9.87-23.09,9.12-69.3C45,297.31,9.4,270.29,29.07,234.67c21.92,12,44.56,22,68.59,28.83,12.87,3.67,26.14,5.79,39.37,7.91C148.28,273.21,159.13,276.14,170.37,277.94Z" style="fill:#d1d1d1"/><path d="M170.37,277.94c33.07,25.85,4.3,69.81-5.32,89,0,0-25,46.08-35.24,41.72-3.37-1.44-.25-10.57.34-12.78a206.83,206.83,0,0,1,7.6-22c5.61-14.23,10.81-28.26,13.56-43.37.22-1.21,1.33-8.83-4-14-4.83,10.17-17.64,34-25,46.92-18.19,31.78-36.49,39.26-36.75,33.94-.41-8.19-2.06-27.32,16.93-73.52-49.64-30.74-82-56-66-85.34,21.91,11.95,37.15,18.17,61.18,25,12.87,3.67,26.14,5.79,39.37,7.91C148.28,273.21,159.13,276.14,170.37,277.94Z" style="fill:#e5e5e5"/><path d="M168.53,279.4c30.18,24.33,6.94,65.29-8.26,91.56-3.59,6.2-7.39,12.3-11.49,18.19-3.93,5.63-8.17,11.9-13.77,16-5.33,3.93-6.52-1.28-6.85-6.23-.47-7.18.71-14.56,1.93-21.61,1.11-6.44,2.42-12.9,4.1-19.22,3-11.25,6.73-23.25,11.84-33.69l-4.65-.68a426.36,426.36,0,0,1-25.49,46.09c-5.64,8.87-12.66,18.92-22.34,23.77-2.76,1.39-6.88,3.28-8.38.47-2.91-5.44-2-13.39-1.32-19.21,1.75-16.05,7.09-31.6,13.15-46.47a1.45,1.45,0,0,0-.48-1.79c-20.15-12.5-41.91-25.41-57.6-43.52-5.68-6.55-10.56-14.1-12.27-22.72-1.77-8.87.54-17.51,4.74-25.35l-3.69,1.38c21.57,11.7,44.08,21.78,67.71,28.57a310.42,310.42,0,0,0,36.09,7.55c12.76,2.07,25.31,5.18,38.07,7.29,2.51.42,4.84-3.18,1.61-3.72C158.74,274,146.51,271,134.06,269c-12.68-2.05-25.33-4.28-37.66-7.93-23-6.79-44.91-16.64-66-28.06-1.27-.69-3.09.24-3.7,1.38-9.14,17-5.82,34.29,6.12,49,15.87,19.51,38.88,33.11,60,46.2l-.48-1.8c-6,14.86-11.36,30.4-13.29,46.39-.8,6.63-1.93,16,1.71,22.16,2.35,4,6.93,3.27,10.81,2.1,9.15-2.74,16.37-10.52,22-17.83,6.2-8,11.08-16.9,16.12-25.66,5.73-10,11.36-20,16.3-30.45,1.22-2.57-3.64-2.73-4.65-.68-3.69,7.55-32.45,88-10.25,87,6-.28,11-6.38,14.56-10.54A170.73,170.73,0,0,0,160.54,379a303.87,303.87,0,0,0,19.51-36.8c4.7-10.71,8.58-22.44,8.22-34.27-.38-12.74-6.19-23.45-16.05-31.4C170.42,275,166.3,277.6,168.53,279.4Z" style="fill:#212a39"/><path d="M113,278.81c9,4,16.55,9.41,22.52,17.37,5.63,7.49,10.87,17.93,6.76,27.23-.55,1.24,4.16.75,4.8-.7,4.1-9.24-.69-19.36-6.1-27-6.22-8.82-14.36-14.68-24.09-19-1.28-.57-5.71,1.36-3.89,2.17Z" style="fill:#212a39"/><path d="M133.06,226.29a17.43,17.43,0,0,0-12.14,5.93c-5.73,6-10.81,13.13-19.71,14.56-9.87,1.58-13.95-7.25-14.95-15.52-1.19-9.76.48-19.82,2.38-29.36a171.73,171.73,0,0,1,16-46.2c.31-.6-4.12-.35-4.76.87a175.11,175.11,0,0,0-17,51.54c-1.59,9.12-2.92,19-.85,28.13,1.82,8,7,13.23,15.53,12.6a34.09,34.09,0,0,0,15.58-5.36,40,40,0,0,0,7.69-6.59c2.61-2.83,5.86-8.52,10.11-8.73,1.26-.06,5.27-2,2.11-1.87Z" style="fill:#212a39"/><path d="M198.3,167.81c.54,23.64-.63,47.38-.58,71a157.31,157.31,0,0,0,.8,17.37c.36,3.11,1,7.2,4.6,8,5.34,1.18,9.17-4.11,12.28-7.36.94-1-3.56-.43-4.36.41s-3.52,5-4.72,4.85c-3.45-.43-3.23-9.72-3.39-12-.65-9.34-.31-18.72-.22-28.07.18-18.47.84-37.08.42-55.54,0-.74-4.86,0-4.83,1.3Z" style="fill:#212a39"/><path d="M167.23,255.91l-28.86,79.66q-23,63.54-46,127.07l-10.6,29.28c-.68,1.87,4.2,1.3,4.85-.5l28.86-79.66q23-63.54,46-127.07l10.61-29.28c.67-1.87-4.21-1.3-4.86.5Z" style="fill:#212a39"/><path d="M77.87,487l4.61-12.74a7.5,7.5,0,0,1,14.11,5.11L92,492.14C90.87,495.19,76.46,490.92,77.87,487Z" style="fill:#fff"/><path d="M80.24,486.57c1.39-3.81,2.71-7.65,4.15-11.45,1.25-3.3,3.79-6.32,7.51-3.36,2.91,2.3,3,5.67,2,8.91-1.23,3.95-3.4,7.81-4.3,11.85,0,.19,1.29-.24,1.41-.25a8.47,8.47,0,0,1-2.18-.23,19.69,19.69,0,0,1-4.2-1.24c-1.74-.74-4.85-2.09-4.37-4.42.06-.27-4.53-.1-4.83,1.3-1.18,5.65,12.4,6.92,15.82,5.87,2.47-.76,3-1.73,3.85-4,1.23-3.38,2.57-6.74,3.68-10.16,3.22-9.87-8.3-13.32-15.28-8.75-4.83,3.17-6.17,11.74-8,16.85C75.26,488.14,79.82,487.74,80.24,486.57Z" style="fill:#212a39"/><path d="M101.93,447.63a4.8,4.8,0,0,1-1.7-.3,5,5,0,0,1-3-6.4L165,254a5,5,0,0,1,9.4,3.4l-67.73,187A5,5,0,0,1,101.93,447.63Z" style="fill:#fff"/><path d="M103.47,446.55c-6.09-1.07-3.76-6.27-2.46-9.86l4.74-13.09q8-22.16,16.06-44.32l37.09-102.4,5.67-15.63c.76-2.1,1.3-5.58,2.67-7.38,2.82-3.71,5.4.93,4.69,4a17.06,17.06,0,0,1-.75,2.07l-4,11q-17.5,48.33-35,96.66l-17.8,49.15c-3.2,8.83-5.79,18.26-9.71,26.8-.51,1.12-.58,2.87-2.33,3.08-2.07.25-4.22,2.46-.83,2,4.8-.58,6.94-3.14,8.42-7.22s3-8.32,4.52-12.48l16.92-46.7q19.31-53.31,38.62-106.6,2.59-7.2,5.2-14.38c.93-2.55,2.62-5.68,1.41-8.38-2.94-6.54-12.31-2.7-14.35,2.34-1.28,3.15-2.33,6.41-3.48,9.6L122.11,366l-18.48,51c-2.86,7.91-6.67,16-8.75,24.16-1.1,4.33,1.47,6.81,5.51,7.52C101.57,448.92,106,447,103.47,446.55Z" style="fill:#212a39"/><path d="M231.25,271.9,129,234.86l-14.36-5.2c-1.36-.49-5.75,1.56-3.87,2.24l102.23,37,14.36,5.2c1.37.5,5.75-1.55,3.87-2.23Z" style="fill:#212a39"/><path d="M229.31,278a5.08,5.08,0,0,1-1.7-.3l-38.23-13.85a5,5,0,0,1,3.4-9.41L231,268.31a5,5,0,0,1-1.71,9.71Z" style="fill:#fff"/><path d="M230.19,276.41c-7.14-1.25-14.4-5-21.19-7.46l-13.23-4.79c-1.3-.47-2.7-.85-4-1.43-.28-.13-.63-.17-.89-.32-1.66-1-5.19-6,.43-6.44,1.69-.15,4.78,1.72,6.33,2.29l13.72,5L224.62,268c1.31.47,2.7.85,4,1.43.28.13.63.17.89.32,1.46.89,5.28,6,.1,6.65-2.54.31-3.83,3.6-.52,3.19,4.94-.6,10.57-5.75,6.33-10.81-1.63-1.95-4.68-2.62-7-3.45l-27.87-10.1a52.42,52.42,0,0,0-7-2.43c-4.67-1-10.94,2.34-9.8,7.89.7,3.45,3.75,4.5,6.62,5.54l12.11,4.38c8.39,3,17.14,7.44,26,9C230.62,280,233.41,277,230.19,276.41Z" style="fill:#212a39"/><path d="M151,249.63a4.84,4.84,0,0,1-1.7-.3L111,235.48a5,5,0,0,1,3.41-9.4l38.24,13.85a5,5,0,0,1-1.71,9.7Z" style="fill:#fff"/><path d="M151.84,248.05c-7.14-1.26-14.4-5-21.19-7.46l-13.23-4.79c-1.3-.48-2.7-.86-4-1.44a9.44,9.44,0,0,1-.89-.32c-1.66-1-5.19-6,.43-6.47,1.69-.14,4.77,1.73,6.32,2.29l13.72,5,13.23,4.79c1.3.47,2.7.86,4,1.44a7.28,7.28,0,0,1,.89.32c1.45.88,5.28,6,.11,6.68-2.53.31-3.85,3.56-.53,3.15,4.92-.6,10.57-5.73,6.33-10.79-1.63-1.94-4.68-2.61-7-3.44l-27.87-10.09a52,52,0,0,0-7-2.44c-4.66-1-10.95,2.34-9.82,7.88.71,3.45,3.76,4.48,6.63,5.52l12.11,4.39c8.38,3,17.14,7.43,26,9C152.24,251.6,155.06,248.62,151.84,248.05Z" style="fill:#212a39"/><path d="M167,425.53a7.55,7.55,0,0,1-9.83,4.92L64.82,397.31a7.56,7.56,0,0,1-3.65-2.8h0Z" style="fill:#fff"/><path d="M164.59,425.9c-2.66,6.42-10.13,1.83-14.44.29l-23.37-8.39L75.44,399.37c-6.09-2.19-16.79-4.45-12.08-13.6.54-1-4.09-.64-4.79.73-4.36,8.46,3.61,11.61,9.82,13.84l25,9,56.51,20.29c7.05,2.53,15.77,4.48,19.46-4.44.49-1.19-4.21-.68-4.79.73Z" style="fill:#212a39"/><path d="M215.4,256.86c1-.93-1,.29-1,.05,0,0,.59.24.66.31.43.49,1,.8,1.4,1.34a10,10,0,0,1,1.6,3.57c.64,2.54.61,5.75-1.64,7.49-.89.69.8.75,1.13.74a6.1,6.1,0,0,0,3.24-1.14c3.46-2.69,2.92-8.25.74-11.59-2.45-3.77-7.36-3.12-10.45-.36-.83.73.73.75,1.12.73a5.66,5.66,0,0,0,3.24-1.14Z" style="fill:#212a39"/><path d="M141,237.07c1.91-5.22-2.12-10.38-7.4-10.8a5.59,5.59,0,0,0-3.41.91c-.69.55-.74.92.26,1,4.47.36,7.24,5.8,5.79,9.76-.29.8,4.32.35,4.76-.87Z" style="fill:#212a39"/><path d="M165.89,99.72c.53-1.4,1.84-3.73,3.57-3.66,2.22.09,3.47,4.26,2.74,6-.52,1.28-1.75,2.15-2.49,3.29-1,1.58-.87,3.43-1.25,5.23-.32,1.46,2.65,1.14,2.94-.2.38-1.79.27-3.4,1.36-4.92a21.9,21.9,0,0,0,2-2.6c1.26-2.4.41-5.43-1.32-7.42-3.53-4.08-8.86-.06-10.33,3.86-.6,1.59,2.31,1.63,2.78.37Z" style="fill:#212a39"/><path d="M162.23,96.43c1,8.78,7.62,23.22,18.55,17,1.18-.68-1.69-.32-2.21,0-4.21,2.38-8.6-4.09-10.17-7a29.4,29.4,0,0,1-3.27-10.79c-.06-.48-3,.06-2.9.77Z" style="fill:#212a39"/><path d="M168,103a.43.43,0,0,1-.19,0,.51.51,0,0,1-.27-.65,14.58,14.58,0,0,1,2.21-3.62.5.5,0,0,1,.77.64,13.22,13.22,0,0,0-2.05,3.37A.51.51,0,0,1,168,103Z" style="fill:#212a39"/></svg>