<svg xmlns="http://www.w3.org/2000/svg" viewBox="0 0 240 208"><title>category_kb</title><path d="M69.74,200.7a3.55,3.55,0,0,0,.2,1.25,6.1,6.1,0,0,0,3.31,3.18c4.52,2.23,9.81,1.74,14.7,2q8.56.53,17.15.71,7,.15,13.93.11c5.84,0,11.87-.22,17.27-2.86a6.79,6.79,0,0,0,3.74-3.51c.81-2.32-.7-5-2.76-6.14-2.4-1.38-6-1.8-8.69-2.46-4-1-8.42-1-12.51-1.27a153.55,153.55,0,0,0-22-.28C90.34,191.71,70,194.27,69.74,200.7Z" style="fill:#e5e5e5;"/><path d="M96.21,195.69a4,4,0,0,0,.85,6.18c2.4,1.41,5.71.51,7.89-.91.78-.51-1.14-.24-1.48,0-2,1.29-4.74,1.06-6-1.14a3.52,3.52,0,0,1,.44-4.28c.32-.3-.29-.28-.45-.28a2.18,2.18,0,0,0-1.3.45Z" style="fill:#232937;"/><path d="M90.1,192.32A9.17,9.17,0,0,0,91.82,204c3.49,3.28,8.42,3.9,13,3.43,1-.1,1.56-1.37.23-1.23-4.23.44-8.79-.21-11.85-3.42a8.32,8.32,0,0,1-1.27-10.31c.51-.85-1.45-.75-1.83-.12Z" style="fill:#232937;"/><path d="M142.6,101.39c2.27-10.41,4.9-21.09,5.25-31.75v-.1c0-.72,0-1.43.05-2.14v-.23c1.72-.82,3.37-.3,5.14-.57.19-1.38-1.14-2.4-2.06-3.3a9,9,0,0,1-2.49-3.24,20.72,20.72,0,0,1-1.26-3.3,38.22,38.22,0,0,0-1-4.78v0c-2.17-7.29-6.62-11.91-14.58-11.33-7.06.52-13.87,5.47-18.91,10.1-2.2,2-10.29,11.14-11.15,12.25q-2.93,3.75-5.6,7.68c-3.64,5.31-7,10.79-10.39,16.28-.85,1.39-1.71,2.79-2.54,4.2l-.14.22-.28.47s23.17,9.72,31.21,12c6.81,1.93,27,5.21,27,5.21C141.11,107.9,142.31,102.72,142.6,101.39Z" style="fill:#e5e5e5;"/><path d="M142.6,101.39c2.27-10.41,4.9-21.09,5.25-31.75v-.1c0-.72,0-1.43.05-2.14v-.23c1.72-.82,3.37-.3,5.14-.57.19-1.38-1.14-2.4-2.06-3.3a9,9,0,0,1-2.49-3.24,20.72,20.72,0,0,1-1.26-3.3,38.22,38.22,0,0,0-1-4.78v0c-2.17-7.29-3.8-10.7-11.77-10.12-7.05.52-13.86,5.46-18.9,10.1-2.21,2-10.3,11.14-11.16,12.24-2,2.5-3.8,5.07-5.59,7.68-3.65,5.31-7,10.8-10.39,16.28-.86,1.4-2.87,4.74-3,4.89,0,0,20.35,8.52,28.39,10.8,6.81,1.93,27,5.21,27,5.21C141.11,107.9,142.31,102.72,142.6,101.39Z" style="fill:#fff;"/><path d="M81.74,93.13a.92.92,0,0,0-.06.76c.16.41,9.38,4.34,11.94,5.42s10,4.12,11.3,4.56c.64.22,8.28,2.76,10.67,3.25q7.95,1.63,16,2.9c1.18.19,6,1.22,7.27,1.18a1.64,1.64,0,0,0,1.4-2.13c-.34-1-1.41-1.07-2.3-1.19-9.15-1.19-18.71-2-27.45-4.63A155.88,155.88,0,0,1,93.9,96.69c-.8-.31-8.65-3.75-10.26-4.53A1.6,1.6,0,0,0,83,92C82.44,91.94,82,92.67,81.74,93.13Z" style="fill:#d1d1d1;"/><path d="M83.16,93.16c7.57,3.14,15.07,6.45,22.72,9.39,6.89,2.64,13.91,3.89,21.18,5.06,4.1.66,8.21,1.25,12.32,1.91,1,.15,2-1.26.66-1.46-4.72-.76-9.45-1.44-14.17-2.21a98,98,0,0,1-13.59-2.76c-9.58-3-18.74-7.44-28-11.28-.86-.35-2.26.88-1.11,1.35Z" style="fill:#232937;"/><path d="M130.92,59.54c-1.38.74-2.88-.47-3.89-1.25a34.61,34.61,0,0,1-8.63-9.88c-.29-.49-.88-1.33-.76-1.94.26-1.32,2-1.89,3-2.51a31.74,31.74,0,0,1,4.64-2.38c6.35-2.53,12.62-1.35,17.06,3.85a24.79,24.79,0,0,1,5,10.88c.39,1.81-1.5,2.46-2.79,3.11a22.57,22.57,0,0,1-3.66,1.63c-1.2.44-3.3,1.14-3.57.65s-2.81-4.44-2.81-4.44S132.26,58.82,130.92,59.54Z" style="fill:#e5e5e5;"/><path d="M131.66,58c-.6.32-1.08-.15-1.65-.49-3-1.8-10.49-10.46-10.25-11.71s1.82-1.72,2.74-2.28a27.28,27.28,0,0,1,4.24-2.16c5.8-2.29,11.54-1.19,15.63,3.58a22.86,22.86,0,0,1,4.59,10c.42,1.88-1.22,2-2.73,2.75-2.09,1-5.14,2.93-5.77,2.15s-2.87-4.12-2.87-4.12S132.88,57.38,131.66,58Z" style="fill:#fff;"/><path d="M146,56.32a48.81,48.81,0,0,1-4.87,2.53c-.58.27-1.21.48-1.77.78a4.58,4.58,0,0,0-.68.27c0-.15.9.26.92-.15,0-.6-1.23-2.06-1.53-2.58-.42-.7-.84-1.4-1.25-2.1-.26-.42-1.42.06-1.72.24l-5.13,3,1.66-.3c-1.84-1.51-3.62-3.11-5.32-4.77-1.94-1.89-5.41-4.74-5.57-7.68,0-.33-2,0-1.94.52.15,2.83,3.52,5.68,5.37,7.51s3.67,3.48,5.63,5.08c.36.3,1.32-.11,1.65-.31l5.14-3-1.71.23,1.83,3.09c.41.68.72,1.77,1.53,1.9s2.57-.84,3.36-1.19a56.34,56.34,0,0,0,5.89-3c.8-.49-1.13-.27-1.49,0Z" style="fill:#232937;"/><path d="M157,36c7.3-10.61,8.56-22.42,2.8-26.39s-16.35,1.41-23.66,12l-1.31,1.9c-4,5.88-6.37,10.32-7.46,13.77a14.23,14.23,0,0,0,.23,8.48,9.58,9.58,0,0,0,9.11,6.73,13.68,13.68,0,0,0,8.08-2.22c3-2.17,6.52-6,10.9-12.39Z" style="fill:#e5e5e5;"/><path d="M157,36c7.3-10.61,8.56-22.42,2.8-26.39S146.28,11,139,21.61l-1.31,1.9c-4,5.88-7.15,10.48-8.24,13.94-2.24,7.1-8.46,1.65-.52,11.44,3.87,4.77,10.45,5.35,15.9,1.38,3-2.17,6.52-6,10.9-12.39Z" style="fill:#fff;"/><path d="M127.51,47.56c1.52,2.35,3.65,5.36,6.65,5.73,2.78.33,5.81-.53,8.39-1.42,1.31-.45.08-.74-.68-.48-2.26.78-5.66,1.83-7.93.56-1.83-1-3.39-3.21-4.49-4.91-.31-.5-2.11.25-1.94.52Z" style="fill:#232937;"/><path d="M133.75,62a1.18,1.18,0,0,0-1.56.46l-.06.08c-2.84,3.24-5.7,6.47-8.52,9.74a29.53,29.53,0,0,1-11.45,8.51c-.51,1.45-.67,7.27-1.58,8.57,1.33-.1,6.71-.84,8.08-1,2.74-.29,9.82-11.67,11.69-15.19.93-1.76,5.39-9.63,3.94-10.76Z" style="fill:#e5e5e5;"/><path d="M130.87,62.36c-3.06,3-6.13,6.07-9.17,9.13a29.58,29.58,0,0,1-12,7.7c-.61,1.41-1.18,7.21-2.17,8.44,1.33,0,6.75-.37,8.13-.42,2.75-.11,10.61-11,12.71-14.35,1-1.7,6-9.24,4.67-10.47l-.5-.45a1.18,1.18,0,0,0-1.59.34Z" style="fill:#bbdff5;"/><path d="M130.06,62.1q-4.32,4.29-8.63,8.59a32.93,32.93,0,0,1-8.65,6.55,23.07,23.07,0,0,1-2.66,1.13,2.8,2.8,0,0,0-1.24.56,4.71,4.71,0,0,0-.59,1.88c-.45,2.1-.46,4.92-1.69,6.73-.38.56.49.77.82.76,1.67,0,3.34-.15,5-.25a14.82,14.82,0,0,0,4-.39c2.68-1,4.84-4,6.57-6.14a90.67,90.67,0,0,0,6.1-8.36,46.21,46.21,0,0,0,4.62-8.26c.42-1.1.82-2.26-.1-3.15a2.47,2.47,0,0,0-3.61.35c-.83.87,1.05,1.11,1.61.51s.58.71.59.91a6,6,0,0,1-.79,2.28,45.2,45.2,0,0,1-2.56,4.62c-1.6,2.6-3.29,5.12-5.11,7.57-2.08,2.77-4.36,6.16-7.27,8.12-1.06.71-2.44.51-3.67.58-1.74.11-3.49.24-5.24.27l.82.76c1.63-2.39,1.17-5.8,2.17-8.44l-.75.53c9.08-3,15.25-10.67,21.81-17.2C132.52,61.77,130.64,61.53,130.06,62.1Z" style="fill:#232937;"/><path d="M134.44,58.24c.45-.14.86-.06,1,.62a10.35,10.35,0,0,1,0,3.19c-.05.81-.17,1.32-1.12,1a16.27,16.27,0,0,1-2.42-1.47c-1.24-.75.67-2.25,1.28-2.62A6.76,6.76,0,0,1,134.44,58.24Z" style="fill:#bbdff5;"/><path d="M134.61,58.87c-.24-.1-.29-.07-.17.1a.63.63,0,0,1,.1.29,3.32,3.32,0,0,1,.08.94c0,.54-.07,1.08-.11,1.63a3.67,3.67,0,0,0-.07.75l0,.17.51-.37s-.84-.46-.92-.51l-.66-.45c-.26-.18-.83-.37-.82-.72s.33-.56.5-.74a5.72,5.72,0,0,1,1.85-1.18c.35-.14.73-.58.47-1s-1-.26-1.31-.12a6.23,6.23,0,0,0-3.36,2.75,1.24,1.24,0,0,0,.42,1.56,10.85,10.85,0,0,0,2.69,1.61,2.11,2.11,0,0,0,2.1-.25c.64-.54.57-1.43.64-2.2a5.27,5.27,0,0,0-.23-3,1.69,1.69,0,0,0-2-.56C133.07,57.91,133.41,59.16,134.61,58.87Z" style="fill:#232937;"/><path d="M107.8,63c2.16,1.78,5.42,1.12,8,1a1.15,1.15,0,0,0,1.08-.76,19,19,0,0,0,.62-4.22c0-1-2-.67-2,.16a18.3,18.3,0,0,1-.61,4.22l1.07-.76c-2.13.07-4.87.71-6.66-.77-.63-.52-2.35.39-1.51,1.09Z" style="fill:#e5e5e5;"/><path d="M106.87,61.64c2.07,1.67,5.33,1.15,7.8,1.11.42,0,1.17-.18,1.36-.63a10.54,10.54,0,0,0,1.06-3.74c0-.49-1.94-.16-1.94.52a10.3,10.3,0,0,1-1.05,3.51l1.36-.63c-2.09,0-5,.55-6.78-.86-.47-.39-2.25.36-1.81.72Z" style="fill:#232937;"/><path d="M163.12,18c1.38-.72,3.67-2,4.2-3.52,0,1.92-.44,3.94-.47,5.91a13.87,13.87,0,0,1-.3,3.28A9.29,9.29,0,0,1,163.89,28,26.92,26.92,0,0,1,159.83,31c.12.21.41-.07.48-.3l.9-3c-.25.13-1,.23-1.26.36l-1.63.86a2.5,2.5,0,0,0,.73-2.09l-.33-.11a6.34,6.34,0,0,1-2.53.73l.48,0a4.11,4.11,0,0,0,.15-1.56c-.09-1-.61-1.91-.7-2.89-.13-1.51.48-1.18,1.46-2.1C159,19.58,161.38,19,163.12,18Z" style="fill:#bbdff5;"/><path d="M137.07,9c.27-.15.53-.32.78-.49a16.85,16.85,0,0,1-5.14-2.17,9.22,9.22,0,0,0,5.06.72,13.46,13.46,0,0,0,4.72-.9,47.15,47.15,0,0,0-4.24-3.34,4.31,4.31,0,0,1,2.74.79,10.8,10.8,0,0,0,6.3,1.05,12.86,12.86,0,0,1-3-4.39,34.11,34.11,0,0,0,8.78,2.93A12.94,12.94,0,0,0,151.19,0c2.63,1.23,5.52,1.85,8.12,3.14,2.75,1.37,3.83,3.24,5.42,5.68,1.1,1.68,3.53,4.35,1.15,6.13a31.86,31.86,0,0,1-12.21,5.5,31.43,31.43,0,0,1-6.7.7,7.81,7.81,0,0,0-3,.13,6.61,6.61,0,0,0-2.19,1.85c.06-.22.1-2.89-.25-2.75a9.39,9.39,0,0,0-3.34,2.09c-.78.81-.69,2.54-1.63,3.08-1.22-.95-.73-2.75-.51-4,.19-1.11-2.18-.25-2.6-.12-1.1.33-3.73.44-4.4,1.23l3.18-3.73c-1.49-.21-3-.46-4.45-.75,1.2.24,3.43-1.46,4.32-2.13a19.86,19.86,0,0,0,3.7-3.38,19.55,19.55,0,0,1-2.13-.24A2.44,2.44,0,0,1,132,10.92,18.31,18.31,0,0,0,137.07,9Z" style="fill:#bbdff5;"/><path d="M145.47,50.76c5.53-4.1,9.75-10.23,13.38-16s7-13.73,5.09-20.69c-1.41-5.13-6.09-7.28-11.09-6.26-6.76,1.38-12.51,6.74-16.51,12.09a91.72,91.72,0,0,0-6.84,10.5c-1.87,3.35-3.62,6.94-3.64,10.86l.54-.68c-5.13,2.65-10,5.38-14.25,9.37-2.78,2.61-5.31,5.54-7.89,8.34-9.06,9.85-15.93,21.9-22.74,33.36-.58,1,1.4,1.06,1.87.28,6.66-11.22,13.4-23.07,22.27-32.72,2.49-2.72,5-5.53,7.6-8.09,4.14-4,9-6.68,14-9.3a.89.89,0,0,0,.54-.68c0-6.44,4.67-12.7,8.16-17.76,3.63-5.28,8-10.4,13.94-13.06,4.75-2.12,10.33-1.6,12,4,1.87,6.32-1.07,13.64-4.27,19-3.52,5.9-7.93,12.27-13.5,16.41-1.06.78.49,1.58,1.31,1Z" style="fill:#232937;"/><path d="M140.55,112c1.68-5.28,3-10.5,4.18-15.92,2.11-9.59,4-19.15,4.15-29l-.58.56c1.45-.56,3.1-.27,4.62-.44.32,0,1.09-.27,1.09-.7,0-2.5-2.65-3.68-3.93-5.53-1.88-2.74-2.05-6.14-2.93-9.24-.22-.75-2.16-.23-1.94.52.81,2.86,1.17,5.63,2.43,8.35a9.19,9.19,0,0,0,2,2.7c1,1,2.42,1.91,2.4,3.41l1.09-.7c-2,.22-3.75,0-5.65.72-.19.07-.57.3-.57.56-.2,9.84-2,19.4-4.15,29-1.2,5.42-2.5,10.64-4.18,15.92-.24.75,1.72.5,2-.21Z" style="fill:#232937;"/><path d="M132.91,173,95.8,159.72a3.06,3.06,0,0,1-1.47-1.13h0A3,3,0,0,1,97.86,154L135,167.3a3,3,0,0,1,1.47,1.13h0A3,3,0,0,1,132.91,173Z" style="fill:#fff;"/><path d="M95.14,155.2c1.34-1.75,4.23,0,5.65.54l9.46,3.39,20.46,7.34c2.27.82,5.93,1.46,5.19,4.74-.13.58,1.8.28,1.93-.29.71-3.17-2-4-4.29-4.84l-9.7-3.48-22.69-8.14c-2.72-1-5.62-2-7.79.79-.46.59,1.45.38,1.78-.05Z" style="fill:#232937;"/><path d="M138.23,111.73c13.29,10.39,1.73,28.06-2.14,35.78,0,0-9.91,18.17-14.17,16.77s.93-20.86.93-20.86c1.28-4.08,2.62-8,4-11.68.17-.47.47-1,.68-1.46-2.54,5.4-5.64,10.63-8.61,15.81-7.31,12.77-12.63,13.75-14.77,13.64s-4-9.28,3.67-27.86c-20-12.35-34.28-23.22-26.37-37.53A134.76,134.76,0,0,0,109,105.93a138.58,138.58,0,0,0,15.83,3.18C129.35,109.83,133.71,111,138.23,111.73Z" style="fill:#d1d1d1;"/><path d="M138.23,111.73c13.29,10.39,1.73,28.06-2.14,35.78,0,0-10,18.53-14.17,16.77-1.35-.57-.1-4.25.14-5.13a83.48,83.48,0,0,1,3.06-8.86,93.45,93.45,0,0,0,5.45-17.43,6.6,6.6,0,0,0-1.61-5.63c-1.94,4.09-7.09,13.68-10.06,18.86-7.31,12.77-14.66,15.78-14.77,13.64-.16-3.29-.83-11,6.81-29.55C91,117.82,78,107.66,84.4,95.87A106.08,106.08,0,0,0,109,105.93a138.58,138.58,0,0,0,15.83,3.18C129.35,109.83,133.71,111,138.23,111.73Z" style="fill:#e5e5e5;"/><path d="M137.49,112.32c12.13,9.78,2.79,26.24-3.32,36.8-1.45,2.5-3,4.95-4.62,7.32s-3.28,4.78-5.53,6.44-2.63-.52-2.76-2.51a37.4,37.4,0,0,1,.78-8.69c.44-2.59,1-5.18,1.64-7.72a75.92,75.92,0,0,1,4.77-13.55l-1.87-.27a172.3,172.3,0,0,1-10.25,18.53c-2.27,3.56-5.09,7.61-9,9.56-1.11.55-2.77,1.31-3.37.19-1.17-2.19-.79-5.39-.53-7.73.7-6.45,2.85-12.7,5.28-18.68a.59.59,0,0,0-.19-.72c-8.1-5-16.85-10.21-23.16-17.5a20.29,20.29,0,0,1-4.93-9.13,15.17,15.17,0,0,1,1.91-10.19L80.87,95a137,137,0,0,0,27.22,11.48,123.8,123.8,0,0,0,14.51,3c5.13.83,10.18,2.08,15.3,2.93,1,.17,1.95-1.28.65-1.5-5-.83-9.91-2.06-14.92-2.87a122.28,122.28,0,0,1-15.14-3.18A137.56,137.56,0,0,1,82,93.65a1.23,1.23,0,0,0-1.49.55C76.82,101.05,78.15,108,83,113.89c6.38,7.84,15.63,13.31,24.11,18.57l-.2-.72a73.56,73.56,0,0,0-5.34,18.65c-.32,2.66-.78,6.45.69,8.91.94,1.59,2.79,1.31,4.34.84,3.68-1.1,6.59-4.23,8.86-7.17a88.75,88.75,0,0,0,6.48-10.31c2.31-4,4.57-8.06,6.56-12.25.49-1-1.47-1.09-1.87-.27-1.49,3-13,35.38-4.12,35,2.4-.11,4.43-2.56,5.85-4.23a70.22,70.22,0,0,0,6-8.54,122.28,122.28,0,0,0,7.84-14.79c1.89-4.31,3.45-9,3.31-13.78A16.52,16.52,0,0,0,139,111.15C138.25,110.56,136.59,111.59,137.49,112.32Z" style="fill:#232937;"/><path d="M115.17,112.08a22.19,22.19,0,0,1,9,7c2.26,3,4.37,7.21,2.72,10.95-.22.5,1.67.3,1.93-.28,1.65-3.72-.28-7.79-2.45-10.87a22.72,22.72,0,0,0-9.69-7.65c-.51-.23-2.29.54-1.56.87Z" style="fill:#232937;"/><path d="M123.23,91a7,7,0,0,0-4.88,2.38c-2.31,2.43-4.35,5.28-7.92,5.85-4,.64-5.61-2.91-6-6.24-.47-3.92.2-8,1-11.8a69.36,69.36,0,0,1,6.44-18.57c.13-.24-1.65-.14-1.91.35a70,70,0,0,0-6.84,20.72c-.64,3.66-1.17,7.62-.34,11.3.73,3.23,2.81,5.33,6.24,5.07a13.7,13.7,0,0,0,6.26-2.15,16,16,0,0,0,3.1-2.65c1.05-1.14,2.35-3.43,4.06-3.51.51,0,2.12-.82.85-.75Z" style="fill:#232937;"/><path d="M149.46,67.46c.21,9.5-.26,19-.24,28.56a62.61,62.61,0,0,0,.33,7c.14,1.25.4,2.89,1.84,3.21,2.15.48,3.69-1.65,4.94-2.95.38-.4-1.43-.18-1.75.16s-1.42,2-1.9,2c-1.39-.17-1.3-3.91-1.36-4.82-.26-3.76-.13-7.53-.09-11.29.07-7.42.34-14.9.17-22.32,0-.3-2,0-1.94.52Z" style="fill:#232937;"/><path d="M137,102.87l-11.61,32q-9.24,25.54-18.5,51.08l-4.26,11.77c-.27.75,1.69.52,2-.2q5.81-16,11.6-32,9.25-25.54,18.5-51.09l4.27-11.77c.27-.75-1.69-.52-1.95.2Z" style="fill:#232937;"/><path d="M101,195.78l1.86-5.11a3,3,0,0,1,5.67,2.05l-1.86,5.12C106.27,199.06,100.48,197.35,101,195.78Z" style="fill:#fff;"/><path d="M102,195.6c.55-1.53,1.09-3.08,1.66-4.6.51-1.33,1.53-2.54,3-1.35a3.09,3.09,0,0,1,.82,3.58c-.5,1.59-1.37,3.14-1.73,4.76,0,.08.51-.09.56-.1a3.18,3.18,0,0,1-.87-.09,7.64,7.64,0,0,1-1.69-.5c-.7-.3-2-.84-1.76-1.78,0-.1-1.82,0-1.94.52-.47,2.28,5,2.79,6.36,2.37,1-.31,1.22-.7,1.55-1.62.49-1.36,1-2.71,1.48-4.08,1.29-4-3.34-5.36-6.14-3.52-1.95,1.28-2.49,4.72-3.23,6.78C100,196.23,101.83,196.07,102,195.6Z" style="fill:#232937;"/><path d="M110.71,180a2.08,2.08,0,0,1-.68-.12,2,2,0,0,1-1.2-2.58l27.22-75.16a2,2,0,1,1,3.78,1.37L112.6,178.62A2,2,0,0,1,110.71,180Z" style="fill:#fff;"/><path d="M111.33,179.51c-2.44-.43-1.51-2.52-1-4l1.9-5.26,6.46-17.82,14.91-41.17L135.9,105a12.09,12.09,0,0,1,1.07-3c1.14-1.49,2.17.38,1.89,1.6a8.46,8.46,0,0,1-.31.84q-.8,2.2-1.6,4.42l-14.07,38.85-7.16,19.76c-1.29,3.55-2.33,7.35-3.9,10.78-.21.45-.24,1.15-.94,1.24s-1.7,1-.33.82a3.78,3.78,0,0,0,3.38-2.91c.61-1.67,1.21-3.34,1.82-5q3.41-9.37,6.8-18.77,7.77-21.42,15.52-42.85l2.1-5.78c.37-1,1.05-2.29.56-3.37-1.18-2.63-4.95-1.08-5.77.94-.51,1.26-.93,2.58-1.4,3.86l-14.73,40.68q-3.72,10.25-7.43,20.51c-1.15,3.18-2.68,6.42-3.52,9.71-.44,1.74.59,2.74,2.22,3C110.57,180.47,112.34,179.69,111.33,179.51Z" style="fill:#232937;"/><path d="M162.7,109.3,121.6,94.41l-5.77-2.09c-.55-.2-2.31.63-1.55.9l41.1,14.89,5.77,2.09c.55.2,2.31-.63,1.55-.9Z" style="fill:#232937;"/><path d="M161.92,111.76a2.08,2.08,0,0,1-.68-.12l-15.37-5.57a2,2,0,1,1,1.37-3.78l15.37,5.57a2,2,0,0,1-.69,3.9Z" style="fill:#fff;"/><path d="M162.28,111.12c-2.88-.51-5.79-2-8.52-3l-5.32-1.93c-.52-.19-1.09-.34-1.59-.58-.11,0-.26-.06-.36-.12-.67-.41-2.09-2.4.17-2.59a8.51,8.51,0,0,1,2.55.92l5.51,2,5.32,1.93c.52.19,1.08.35,1.59.58a2.6,2.6,0,0,1,.36.13c.58.35,2.12,2.41,0,2.67-1,.12-1.54,1.45-.21,1.28,2-.24,4.25-2.31,2.54-4.34a6.22,6.22,0,0,0-2.8-1.39l-11.21-4.06a21.61,21.61,0,0,0-2.8-1c-1.88-.39-4.4.94-3.94,3.17.28,1.39,1.5,1.81,2.66,2.23l4.87,1.76c3.37,1.22,6.89,3,10.43,3.61C162.45,112.56,163.57,111.34,162.28,111.12Z" style="fill:#232937;"/><path d="M130.43,100.35a2.09,2.09,0,0,1-.69-.12l-15.37-5.57a2,2,0,0,1,1.37-3.78l15.37,5.57a2,2,0,0,1-.68,3.9Z" style="fill:#fff;"/><path d="M130.78,99.71c-2.87-.5-5.79-2-8.52-3l-5.32-1.92c-.52-.19-1.08-.35-1.59-.58-.11,0-.25-.07-.36-.13-.66-.41-2.08-2.41.18-2.6.67-.06,1.91.7,2.54.92l5.51,2,5.32,1.93c.52.19,1.08.34,1.59.57.11,0,.25.07.36.13.58.36,2.12,2.43,0,2.69-1,.12-1.54,1.43-.21,1.26,2-.24,4.25-2.3,2.55-4.33a6.52,6.52,0,0,0-2.81-1.39l-11.2-4.05a18.7,18.7,0,0,0-2.81-1c-1.87-.39-4.4.94-3.94,3.17.28,1.38,1.51,1.8,2.66,2.21l4.87,1.77c3.37,1.22,6.89,3,10.43,3.61C130.94,101.14,132.08,99.94,130.78,99.71Z" style="fill:#232937;"/><path d="M136.87,171.06a3,3,0,0,1-4,2L95.8,159.72a3.06,3.06,0,0,1-1.47-1.13h0Z" style="fill:#fff;"/><path d="M135.9,171.21c-1.07,2.58-4.07.74-5.8.11L120.71,168l-20.64-7.41c-2.45-.88-6.75-1.78-4.86-5.46.22-.42-1.64-.26-1.93.29-1.75,3.4,1.46,4.67,4,5.57l10.06,3.61L130,172.7c2.83,1,6.34,1.8,7.82-1.78.2-.48-1.69-.28-1.93.29Z" style="fill:#232937;"/><path d="M156.33,103.26c.42-.38-.41.11-.42,0s.24.09.27.12c.17.2.4.32.56.54a4,4,0,0,1,.64,1.43,2.87,2.87,0,0,1-.65,3c-.36.27.32.3.45.29a2.44,2.44,0,0,0,1.3-.46c1.39-1.08,1.17-3.31.3-4.66-1-1.51-3-1.25-4.2-.14-.33.29.29.3.45.29a2.27,2.27,0,0,0,1.3-.45Z" style="fill:#232937;"/><path d="M126.41,95.3a3.3,3.3,0,0,0-3-4.34,2.14,2.14,0,0,0-1.37.37c-.28.21-.3.37.1.4a3,3,0,0,1,2.33,3.92c-.12.32,1.73.14,1.91-.35Z" style="fill:#232937;"/><path d="M136.43,40.09c.21-.57.74-1.5,1.43-1.48.89,0,1.4,1.72,1.1,2.44a9,9,0,0,1-1,1.32,5.72,5.72,0,0,0-.5,2.1c-.13.59,1.07.46,1.18-.08a4.76,4.76,0,0,1,.55-2,8,8,0,0,0,.8-1,2.75,2.75,0,0,0-.53-3c-1.42-1.64-3.56,0-4.15,1.56-.24.63.93.65,1.12.15Z" style="fill:#232937;"/><path d="M135,38.76c.4,3.53,3.06,9.34,7.45,6.85.48-.27-.68-.13-.88,0-1.7,1-3.46-1.64-4.09-2.81a11.83,11.83,0,0,1-1.32-4.34c0-.19-1.2,0-1.16.31Z" style="fill:#232937;"/><path d="M137.29,41.41l-.08,0a.2.2,0,0,1-.11-.26,6,6,0,0,1,.89-1.45.2.2,0,0,1,.31.25,5.25,5.25,0,0,0-.82,1.36A.22.22,0,0,1,137.29,41.41Z" style="fill:#232937;"/></svg>