<svg xmlns="http://www.w3.org/2000/svg" viewBox="0 0 1000 900.58"><path d="M257.89,884.74C236.71,880.16-17.75,838.9,1,534.56S43.23,138.69,142.16,105.2,481.57-86.73,670.28,63.93s392.34,285.78,311.53,526.34-94,320.8-304.87,308.53S358.6,906.53,257.89,884.74Z" style="fill:#f9f9f9"/><path d="M257.89,884.74C215,875.46,174,861.2,136.73,837.56,114.25,823.32,76.33,795.5,54,757.67c-18.07-30.61,87-40.93,112.42-40.21,41.22,1.17,82,9.7,123.19,10.85,37.29,1,74.44-4,111.63-6.81a964.34,964.34,0,0,1,185,3.68c14.19,1.66,28.46,3.63,42.7,2.54,15.2-1.16,29.9-5.78,44.75-9.26,68.54-16.07,139.84-7.83,207.9,6.57,31.1,6.58,50.38,9.61,37.22,43.47a286.3,286.3,0,0,1-28.52,54.3c-48.9,73.15-131.8,80.75-213.35,76C466.11,886.52,358.6,906.53,257.89,884.74Z" style="fill:#eef7fa"/><ellipse cx="479.32" cy="671.83" rx="282.26" ry="27.46" style="fill:#efefef"/><path d="M383.46,733.29c24.58,6.26,46.38-17.35,38-41.29l-.18-.52c-3.81-10.79-10.94-20.12-22.56-22.83-3.37-.79-7.23-.69-12.35-.77-10.43-.17-21.05-.15-31.36-1.56-13.52-1.85-30.28-4-41.5-11.83a92.47,92.47,0,0,1-16.76-15.83C295,636.58,283.26,624.4,284,622.11c-4.21,12.73-8.17,25.54-11.78,38.45a42,42,0,0,0,30,52.06Z" style="fill:#e3e3e3"/><path d="M273.32,649c-3.61,12.2-6.82,23.26-3.22,35.91.31,1.11,5.13-.2,4.82-1.29-3.52-12.42-.38-23.48,3.16-35.46.3-1-4.39-.41-4.76.84Z" style="fill:#293141"/><path d="M379.24,492.86c1.06.71,2.09,1.46,3.09,2.24a66.68,66.68,0,0,1,14.15,15.59c17.87,26.68,23.95,61.88,26.87,93.34a184.89,184.89,0,0,1,.14,35.13c-1,9.88-3.74,34-3.75,34.08-.17,1.5-15.31,4-17,4.21-36.46,5.18-71.84-5-106.31-15.56-5.31-1.63-11-2.79-15.84-5.34a57.18,57.18,0,0,1-11.35-7.68c-4.74-4.4,17.85-91.7,40.13-123.54C335,488.67,357.45,478.23,379.24,492.86Z" style="fill:#fff"/><path d="M378.17,564.54c0,1.49.46,20.09.23,20.1,3.65.33,7.56-.12,11.23-.17,2.38,0,9.93,1,11.37-.72,1.26-1.48-.31-6.52-.44-8.23-.32-4.16-.43-8.35-.64-12.52Z" style="fill:#bbdff5"/><path d="M375.75,565.19c.08,3.38.15,6.75.21,10.13.05,2.68.92,7.08,0,9.62-.29.81,1,1,1.47,1.06,4.86.31,9.7-.27,14.57,0,3,.16,6.7.53,9.49-.9s2.53-3.85,2.11-6.57a153.2,153.2,0,0,1-1.3-16.17c-.07-1.54-4.92-.56-4.83,1.29.2,4.15.13,8.4.65,12.53.3,2.35,2,6.05-.28,7.18-1.59.79-5.18-.23-7-.25-3.86,0-7.68.41-11.55.17l1.47,1.06c.9-2.53,0-6.74,0-9.36-.07-3.7-.14-7.39-.23-11.08,0-1.5-4.87-.57-4.83,1.3Z" style="fill:#293141"/><path d="M333.91,501c8.4,12.28,21.24,23.18,35.72,27.36,10.73,3.11,23.77,2.32,29.93-8.32,1.12-1.93-3.71-1.44-4.49-.08-6.12,10.57-19.16,7.77-28.55,3.53-11.24-5.08-21.2-14.26-28.12-24.37-.9-1.31-5.59.28-4.49,1.88Z" style="fill:#293141"/><path d="M392.4,509.08c10.51,14.73,16.85,30.83,21.17,48.29,4.73,19.1,7.93,38.67,8.35,58.37.3,14.48-1.38,28.78-3,43.14-.46,4.09-2,9.42-1.52,13.52a2.72,2.72,0,0,1-.12,1c.44-1.41.44-.8-1.26-.29-2.34.69-4.78,1.13-7.18,1.59-35.73,6.83-71.53-2.4-105.63-12.74-8.63-2.62-17.52-4.48-25.25-9.32-2.73-1.71-6.74-3.7-7.45-7-.6-2.84.47-6.53,1.07-9.31,3.51-16.07,7.47-32,12.41-47.71,10.84-34.45,25.74-69.72,54.34-93.21,2.53-2.07-1.34-3.71-3.2-2.18-27.16,22.3-42.46,54.73-53.36,87.43C276.1,597.69,272,615,267.7,632.51c-1.15,4.64-3.7,11.68-1.42,16.32,1.41,2.88,5.37,4.92,8,6.56a50.86,50.86,0,0,0,11.83,5.54c37.31,11.79,77.56,24.24,117.09,18.18a100.62,100.62,0,0,0,14.51-3c2.85-.89,4.23-1.69,4.67-4.59,1.82-12,2.95-24.27,3.91-36.35,1.79-22.78-.59-45.77-5.32-68.07-4.61-21.66-11.15-42-24.12-60.17-1.26-1.77-5.87.1-4.43,2.12Z" style="fill:#293141"/><path d="M418.33,447.23c9.69-37.39,1.08-72-19.22-77.23s-44.63,20.78-54.32,58.17c-.22.86-1.34,5.17-1.73,6.7-5.38,20.73-7.36,35.63-6.88,46.48.65,14.7,10.46,25,21.9,33.12,4.67,3.29,10.3,5.55,16,5.19,5.11-.33,9.9-2.71,13.92-5.89,16.63-13.15,23.51-40.25,28.59-59.84C417,452.45,418.09,448.14,418.33,447.23Z" style="fill:#fff"/><path d="M358.27,372.74c-9.86,8.17-16.26,19.64-23.69,30.08s-16.86,20.51-29.32,23.49c5.13,3.88,8.71,9.41,12.4,14.67s7.82,10.53,13.53,13.47,13.45,2.92,17.92-1.69c2.47-2.55,3.63-6.07,4.51-9.51,2.43-9.48,3.34-19.28,5.33-28.86,1.72-8.22,3.63-19.64,13.11-22.07a31.81,31.81,0,0,1,9.5-.52c7.11.37,14.26,1,21.07,3.12,5.2,1.59,10.77,4.06,14.75,7.86,4.42,4.23,3.35,12,3.2,17.83a125,125,0,0,1-7,38.56c-7.17,20.14,11.44,10.82,17.19.06,5.84-10.93,5.42-24.7,6.56-36.36.6-6,1.57-12.06,1-18.08-1.52-15.55-11.16-32.22-25.12-39.64C396,356,373,360.56,358.27,372.74Z" style="fill:#bbdff5"/><path d="M402.27,499.13c6.24-10.76,10.34-22.54,13.91-34.41,3.06-10.17,6.3-20.4,8-30.91,2.85-18,3-42.23-10.39-56.54-10.36-11.08-25.73-9.17-37.36-1.22-16.93,11.57-27.26,31.83-33.06,50.93A292.24,292.24,0,0,0,334.54,462c-1.89,10.92-3.26,22.45,1.11,33,.82,2,5.6.56,4.83-1.3-3.69-8.85-3.11-18.13-1.81-27.42a220.78,220.78,0,0,1,6.59-29.63c5.31-18.74,12.15-37.38,26-51.64,10.16-10.47,26.18-18.37,38.05-5.71C422,392.79,422,415.54,419.53,432.6c-1.49,10.34-4.59,20.33-7.54,30.32-3.66,12.36-7.79,24.64-14.29,35.84-1.27,2.19,3.61,2,4.57.37Z" style="fill:#293141"/><path d="M361.28,502c4.94,6.86,12,9.34,20.14,7,2.95-.83,2.12-4-.85-3.19-6.38,1.8-11.13-.77-14.86-5.94-1.23-1.71-5.85.12-4.43,2.09Z" style="fill:#293141"/><path d="M333,549.89c-4.77,4.38-13.79,3.37-19.82,3.65l2,.76c-1.43-2.91-3.38-6.45-3.59-9.73-.17-2.62-5.05-1.94-4.91.32.27,4.06,2.32,8,4.09,11.59.32.65,1.39.79,2,.76,7.59-.36,17.4.55,23.44-5,2.4-2.2-1.38-4.06-3.24-2.35Z" style="fill:#293141"/><path d="M376.18,489.41c-1.67-2.76.05-7.62,2.18-9.42a5.67,5.67,0,0,1,4.26-1.27c2.77.31,6.64,3.12,3.56,5.75a7.49,7.49,0,0,1-3.46,1.38c-.73.14-1.24.36-2,.54a4.1,4.1,0,0,0-2.49,1.29,11.85,11.85,0,0,1-.8,1.34C377.12,489.4,376.47,489.87,376.18,489.41Z" style="fill:#293141"/><path d="M750,614.26c.3,12.83-4.66,24.92-10.14,36.27-7,14.55-14.62,28.84-21.91,43.24-3.67,7.24-13.29,19.56-23.11,14.23-3.42-1.85-4.5-6.24-4.7-10.13-1.09-20.27,9.41-39,13.56-58.36.51-2.38,1-4.9.24-7.23a14.11,14.11,0,0,0-3.8-5.44c-8.33-8.51-20.08-20.51-31.62-24.44-7.58-2.59-22.44-2.46-26.1,6.05-12.53,29.11-19.29,60.43-22.36,91.78-1.31,13.34-1.35,29.37-14.88,37.07a7.69,7.69,0,0,1-4.39,1.14,10.79,10.79,0,0,1-3.72-1.26c-9.09-4.37-10.42-12.71-11.54-21.58-4-32.08-10-63.75-12.66-96-2.81-34.37-2.09-68.93.32-103.3-.17,2.4,14.18,11.32,16.41,12.9a91.92,91.92,0,0,0,20.15,11.2c12.81,4.86,29.57,2.78,43.14,1.24,10.33-1.18,20.62-3.82,30.77-6.23,5-1.19,8.69-2.23,12.15-2.3,11.93-.24,21.15,7,27.5,16.56,10.59,15.87,19.5,33,24.66,51.4A52.93,52.93,0,0,1,750,614.26Z" style="fill:#bbdff5"/><path d="M747.59,614.45c0,11.83-3.88,22.79-8.84,33.37-5,10.77-10.57,21.32-16,31.88-4.32,8.4-8,18.72-15.6,24.82-4.51,3.61-11.28,4.44-13.64-2.08-1.67-4.63-1.09-10.27-.51-15.06,1.27-10.72,5-20.91,8.35-31.12,2.48-7.56,8.42-19.81,3.74-27.26-2.24-3.57-6-6.59-9-9.52a138.09,138.09,0,0,0-11.21-10c-6-4.74-12.82-8.88-20.55-10-6.21-.86-13.4-.41-18.87,2.91-7.13,4.34-9.18,14.89-11.75,22.24a316,316,0,0,0-14.85,64.69c-1.12,8.84-1.39,17.85-3,26.62-1.38,7.71-7.9,25.59-18.87,18.77-7.8-4.86-8.39-14.45-9.46-22.68-1.53-11.85-3.32-23.66-5.07-35.48-4-26.76-7.54-53.52-8.57-80.58a748,748,0,0,1,1.7-79.93l-4.86.84c.44,3.08,5.64,5.92,7.86,7.49,3.94,2.8,8,5.46,12,8.15,6.76,4.52,14.16,8.77,22.1,10.8,7,1.77,14.24,2,21.39,1.67,17.32-.74,34.05-4.2,50.85-8.24,8.58-2.07,16.3-2.92,24.19,1.91,7,4.3,11.52,11.17,15.8,18,10.54,16.84,21.77,37.43,22.57,57.74.1,2.5,5,1.74,4.89-.38-.65-16.51-8.12-32.76-15.83-47.11-7-12.94-15.1-28.88-29.95-34-6.38-2.21-12.67-1.76-19.13-.25-9.14,2.13-18.22,4.56-27.48,6.15-16.69,2.86-36.27,5.61-52.21-1.45-7.14-3.17-13.44-7.68-19.92-12-2.47-1.63-4.93-3.28-7.31-5.05-1.37-1-4.75-2.9-5-4.77-.3-2.11-4.73-1-4.86.84-1.75,25.3-2.62,50.67-1.84,76,.77,24.79,3.52,49.37,7.08,73.9,1.75,12.14,3.63,24.26,5.33,36.41,1.28,9.09,1,20.37,5.88,28.51,3.38,5.67,11,10.76,17.66,8.05,7.24-2.94,12.08-10,14.36-17.21,2.63-8.31,2.74-17.2,3.67-25.8,1.26-11.7,3-23.35,5.44-34.87a286.47,286.47,0,0,1,10.3-37.16c1.82-5.14,3.5-10.81,6.1-15.6,2.34-4.31,6.8-5.64,11.45-6,9.87-.7,18.11,4,25.6,10a146.64,146.64,0,0,1,12.09,11c1.36,1.37,2.75,2.73,4.07,4.14,3.53,3.76,4.31,6.81,3.32,11.8-2.12,10.7-6.4,20.89-9.5,31.32-2.83,9.54-5.74,20.81-3.61,30.79,1.76,8.22,9.94,11.11,17.31,7.88,8.73-3.84,13.33-12.81,17.44-20.84,6.48-12.65,13.12-25.23,19.27-38.05,5.57-11.62,10.34-23.66,10.29-36.73C752.47,611.57,747.58,612.31,747.59,614.45Z" style="fill:#293141"/><path d="M648.85,551.58q10.77-.78,21.51-2c3.82-.44,52.21-7.14,52.14-7.56-18-108-41.81-153.82-75.5-171.5-1.25-.66-28.84-4.87-38.56,6.42-5.49,6.38-9.83,14-13.51,21.92-1.81,3.89-2.44,8.81-5.27,11.81-3.11,3.32-7.06,5.34-10,9,1.75,3.12,4.45,6.42,4.11,10.51-.36,4.28-2.78,9.5-3.8,13.75q-1.83,7.68-3.36,15.45-3.07,15.64-5.08,31.53a445.77,445.77,0,0,0-3.89,57.88c0,5.38,49.2,4.08,54,4Q635.25,552.56,648.85,551.58Z" style="fill:#fff"/><path d="M667.87,323c-2-37.86-20.27-67.68-40.83-66.6s-35.62,32.65-33.63,70.51c.05.87.28,5.23.36,6.78,1.1,21,3.65,35.52,7.31,45.54,7.52,20.58,51.92,21.1,51.92,21.1s6.45-3,12.06-22.07c3.07-10.43,4.35-25.79,3.16-48.48C668.14,328.28,667.91,323.92,667.87,323Z" style="fill:#fff"/><path d="M648,406.33c3.12,3,6.2,6.1,9.36,9.09a2.9,2.9,0,0,0,2.93.05c8-4.51,15.31-12.21,15.12-21.89-.05-2.58-4.94-1.9-4.9.34.16,8.14-5.59,14.75-12.38,18.61l2.93.05c-2.91-2.77-5.76-5.6-8.64-8.41-1.61-1.56-6.16.46-4.42,2.16Z" style="fill:#293141"/><path d="M647.1,405.6q-2.39,6.12-4.75,12.25l1.49-1.17c-3,1.2-10.22.25-14.35-1-11.55-3.59-21.2-11.28-28.83-20.45-.94-1.13-5.56.54-4.51,1.79,10.29,12.38,26.28,23.86,43.22,22.61,2.23-.17,6.11-.37,7.69-2.28,1.15-1.39,1.65-4.17,2.29-5.83l2.55-6.58c.51-1.3-4.24-.76-4.8.7Z" style="fill:#293141"/><path d="M654.39,432.34c1.29,12.63,2.53,25.27,3.89,37.89,1.62,14.93.35,29.15-4.67,41.74,2.11,4,14.32,16.06,15.3,20.62,2.43-3.06,11.65-16.14,14.09-19.38,4.87-6.49-5.43-44.6-9.25-55.66-1.92-5.56-9.9-30.95-15.27-30.09l-2,.31c-1.53.25-2.5,2.16-2.17,4.27C654.37,432.14,654.38,432.24,654.39,432.34Z" style="fill:#bbdff5"/><path d="M652.58,432.83c1.12,11.05,2.21,22.1,3.38,33.15s1.78,22.1-.35,33.14q-.66,3.38-1.6,6.68c-.48,1.64-2.41,4.87-2.21,6.54s2.57,3.76,3.6,5c3.83,4.62,10,9.83,11.7,15.73.34,1.2,3,.09,3.48-.49,3-3.78,5.7-7.74,8.5-11.64,2.08-2.9,5.22-6,6.42-9.43,1.08-3.07.63-6.94.33-10.09a139,139,0,0,0-2.63-16,258.84,258.84,0,0,0-7.44-27.8c-2.84-8.49-5.53-17.34-9.94-25.18-1.43-2.56-3.16-5.78-6.41-6-4-.22-7.38,2.11-6.83,6.33.14,1.07,3.79.28,3.62-1-.66-5.12,2.36-3.46,4.06-1.45a28,28,0,0,1,3.55,6.15,148.8,148.8,0,0,1,6,15.24c2.95,8.51,5.56,17.1,7.73,25.85,2.45,9.91,6,21.68,4.8,32-.46,3.9-3.35,6.74-5.57,9.83-3.15,4.39-6.22,8.85-9.55,13.11l3.49-.5c-1.53-5.28-6.66-9.88-10.1-14-1.92-2.26-5.17-4.83-4.6-8,.89-5,3-9.81,3.78-14.94,1.45-9.76.93-19.47-.11-29.24-1.21-11.37-2.33-22.74-3.49-34.1C656.1,430.81,652.45,431.56,652.58,432.83Z" style="fill:#293141"/><path d="M650.42,415.38c.51-1.31,1.45-2.09,3.33-1.25,2.68,1.19,5.13,4,7.26,5.95,1.77,1.63,2.72,2.85.11,4.34-2.3,1.31-5.35,1.92-7.85,2.82-4,1.43-3.92-5.73-3.62-7.81A19.07,19.07,0,0,1,650.42,415.38Z" style="fill:#bbdff5"/><path d="M652.21,415.09c.54-.94.56-1,.06-.2l1.1.61a15.58,15.58,0,0,1,1.91,1.43c1.22,1,2.34,2.18,3.49,3.29,1.53,1.47,3.32,2.75.57,4.23a18.45,18.45,0,0,1-5.49,1.85c-4,.59-2.27-9.24-1.64-11.21.29-.9-3.26-.45-3.59.57-1,3-1.81,8.48.17,11.3.88,1.26,2.25,1.43,3.69,1.19a36.27,36.27,0,0,0,8-2.59c1.44-.61,4.27-1.76,4-3.74-.15-1-1.15-1.75-1.79-2.39-1.12-1.1-2.25-2.22-3.42-3.26-2.85-2.55-8.37-5.35-10.67-.51C648.27,416.4,651.74,416.09,652.21,415.09Z" style="fill:#293141"/><path d="M653.18,354.73c-2.4,4.12-8.36,5.42-10.52.44-.82-1.89-5.59-.46-4.83,1.29,3.69,8.51,16,5.32,19.9-1.42,1.25-2.13-3.63-1.89-4.55-.31Z" style="fill:#293141"/><path d="M653.41,270.51c2.48-3.85,6.53-10.38,5.66-15.11,2.9,4.86,4.58,10.73,7.37,15.82a41.16,41.16,0,0,1,4,8.84,27.34,27.34,0,0,1-.63,14.78,78.67,78.67,0,0,1-6,13.7c.62.35,1-.77.81-1.47q-1-4.49-2-9c-.46.71-2.26,2.06-2.71,2.76l-2.94,4.56a7.34,7.34,0,0,0-1.78-7.17c-1,3-3.51,4.51-5.79,6.48l1.27-.62a12.22,12.22,0,0,0-1.87-4.2c-1.68-2.42-4.33-4-6-6.42-2.53-3.68-.47-3.7.69-7.48C645.16,280.39,650.27,275.4,653.41,270.51Z" style="fill:#bbdff5"/><path d="M573.61,285.17q.67-1.19,1.29-2.4c-5.39,1.92-10.67,1.78-16.31,1.89,5.9-.48,11.37-3.36,16-7,15.51-12,26.41-30.67,45.89-36.91,7.68-2.46,15.75-.7,22.79,2.86,5.93,3,16.13,7.16,12.68,14.95a93.53,93.53,0,0,1-39.49,43.28c-2.54,1.43-5.67,2.36-7.44,4.66-.87,1.13-3.29,6.56-3,7.91-.17-.65-3.9-7.56-4.62-6.69A27.68,27.68,0,0,0,596,317.92c-.84,3.21,1.9,7.51.27,10.27-4.49-.67-5.85-6-7.14-9.59-1.13-3.13-6,2.51-6.85,3.45-2.32,2.45-8.9,6.54-9.48,9.54l2.76-14.19q-6.18,2.44-12.49,4.53c3.41-1.13,6.66-8.69,8-11.72,1.82-4.24,4-9.49,4.6-14-2,.68-3.7,2-5.82,2.48a7.13,7.13,0,0,1-6.4-1.37C567.29,293.6,570.89,289.86,573.61,285.17Z" style="fill:#bbdff5"/><path d="M603.49,378.58c-5.93-16.65-6.83-34.83-7.66-52.32-.9-18.84,1.61-39.81,12.3-55.88,4.17-6.27,10.52-12.86,18.56-12.95,7.18-.09,13.63,4.27,18.43,9.26,12.91,13.44,18.27,33.71,20,51.77,1.83,19.55,3,41.11-2.4,60.21-.31,1.08,4.41.46,4.78-.82,5.23-18.34,4-38.45,2.73-57.24-1.32-19.76-6.92-42.59-21.72-56.8-10.05-9.64-24.29-11.2-35.69-2.82-14.91,11-20,32.23-21.52,49.63-1,12.1-.11,24.52,1,36.59,1,11,2.65,22.18,6.38,32.66.44,1.21,5.21-.23,4.83-1.29Z" style="fill:#293141"/><path d="M614.8,392.12c10.55,5.07,21.7,11.73,33.89,9.44,9.94-1.86,15.83-9.71,18.36-19,.75-2.77-4-2.87-4.65-.66-2.48,9.15-8,16.51-18.27,16.38-9.55-.11-18.22-5.5-26.58-9.52-2.12-1-5.54,2.06-2.75,3.4Z" style="fill:#293141"/><path d="M600.05,385.36A89.67,89.67,0,0,0,590.76,404a18.72,18.72,0,0,1-6.31,9.38,55.71,55.71,0,0,0-7,6.31.63.63,0,0,0-.2.58c1.4,2.4,3.23,4.82,3.85,7.58.79,3.49-.58,7-1.64,10.32a192.84,192.84,0,0,0-5.6,23.37c-2.87,14.9-5,29.95-6.47,45q-1.06,10.74-1.63,21.52-.3,5.79-.44,11.61c-.06,2.48-1.14,7.89,0,10.09,1.64,3.15,9.14,3.11,12,3.38,14,1.34,28.15,1,42.17.75a492.33,492.33,0,0,0,60.65-4.72q21-3,42-6.14c.64-.09,3-.67,2.8-1.76-5.87-32.39-11.86-65.16-22-96.55-5.09-15.76-11.68-30.88-21.2-44.49-4.59-6.57-9.68-12.77-14.72-19-.87-1.09-5.49.55-4.51,1.76,9,11.11,17.81,22.21,24.33,35,9.89,19.37,15.53,40.8,20.51,61.86,4.92,20.77,9,41.74,12.78,62.74l2.8-1.76c-34.08,5-67.69,10.1-102.23,10.76-15,.29-30.84,1.26-45.66-1.41-1.71-.3-4-.52-4.93-2.11-.7-1.28,0-5.42,0-6.77,0-1.94.07-3.88.13-5.81q.21-7.12.68-14.23a496.32,496.32,0,0,1,5.75-49.38c1.58-9.49,3.28-19.07,5.71-28.38,1.77-6.8,5.77-13.44,2.2-20.29-.77-1.48-2.35-3-1.68-4.84.53-1.44,3.52-3.11,4.74-4.09,2.29-1.84,4.56-3.7,6-6.31,1.65-3,2.32-6.43,3.68-9.55a100.77,100.77,0,0,1,7.15-13.26c1-1.64-3.72-1-4.43.14Z" style="fill:#293141"/><path d="M728.22,315.69c-.9,3.81.06,7.3,1.7,10.76a32.17,32.17,0,0,1,3.17,11.73c.9,11.12-.54,22.42-2.4,33.37-3.49,20.6-15.59,43.63-39.55,42.56-1.66-.08-5.18,2.32-1.95,2.46,21.45,1,37.22-14.34,43.51-33.88,3.62-11.27,5-23.8,5.41-35.59.18-5.76.37-12.27-1.47-17.8-1.65-4.94-4.93-8.72-3.62-14.3.36-1.54-4.45-.8-4.8.69Z" style="fill:#293141"/><path d="M643.83,305.69c2.2-6.68,10.46-8.75,17-9.74,9.33-1.43,18.68-2.56,28-4.25q20.79-3.76,41.21-9.08c-6.78,5.72-13.94,12-15.75,20.41-1.37,6.3.62,13,4.38,18.33s9.17,9.57,15,13c-14.58-2.41-29.16-4.82-43.79-7q-11-1.63-22-3c-5-.63-10.14-1.1-15-2.49C644.86,319.58,641.43,313,643.83,305.69Z" style="fill:#fff"/><circle cx="743.31" cy="307.82" r="27.9" style="fill:#bbdff5"/><path d="M653.16,323.44q41,6.4,82,12.5c1.1.16,5.19-1.63,4-1.81l-49.59-7.55L664,322.68c-8.08-1.23-18.26-2.55-18.91-12.8-.76-12.08,13.54-12.75,22.36-14.24l25.87-4.36c6.26-1.06,12.45-2.7,18.64-4.11l22.48-5.12c2.82-.65,2.48-2-.37-1.38-16,3.65-31.94,7.6-48.12,10.34l-28.54,4.81c-5.95,1-12.06,2.58-15.39,8.13a12.78,12.78,0,0,0,4.9,17.55c3.22,1.83,7.12,2.08,10.71,2.63l15.14,2.31,62.4,9.5,4-1.81q-41-6.08-82-12.5c-1.11-.18-5.19,1.62-4,1.81Z" style="fill:#293141"/><path d="M751.78,317l-.2.16a13,13,0,0,1-9.33,2.61h0A12.43,12.43,0,1,1,744.91,295a13,13,0,0,1,8.56,4.54,12.16,12.16,0,0,1-1.69,17.4Z" style="fill:#fff"/><path d="M743,313.11a5.75,5.75,0,1,1,6.57-5.07A5.87,5.87,0,0,1,743,313.11Z" style="fill:#71777f"/><path d="M768.51,308c-.34,13.84-10.82,25.9-25.19,25.82-14.06-.08-25.53-12.27-25.58-26.15s11.12-25.93,25.19-25.82c14.28.11,25.23,12.25,25.58,26.15.06,2.61,5,1.95,4.9-.33-.31-12.66-8-23.94-20.24-28a31.32,31.32,0,0,0-33.09,9.1,29.66,29.66,0,0,0-3.2,34.17c6.36,10.85,19.26,16.23,31.49,14a30.56,30.56,0,0,0,25-29.32C773.47,305.08,768.56,305.71,768.51,308Z" style="fill:#293141"/><path d="M786.8,396.2c-7.31-2.55-12.82.66-19.25,3.92q-10.18,5.16-20.55,9.94a350.13,350.13,0,0,1-47.63,18.18c-32.24,9.42-68,13.06-99.15-2-1.79-.87-6.06,1.59-3.74,2.72,29.09,14,62,12.83,92.72,5.37A309.27,309.27,0,0,0,736,418.52c7.72-3.24,15.34-6.73,22.88-10.37q5.4-2.61,10.75-5.32c4.67-2.37,8.88-5.38,14.33-3.47,2,.69,5.67-2.16,2.82-3.16Z" style="fill:#293141"/><path d="M479.31,699.29c-155.88,0-282.26-12.29-282.26-27.46,0,37.25-47.94,117.46,332.26,117.46,156.49,0,217.75-94.33,230-114C741.66,688.84,623,699.29,479.31,699.29Z" style="fill:#eef7fa"/><path d="M232.42,751.6c3.7,1.93,15.47-2,19.61-2.73,25.66-4.66,51.85-3.57,77.74-2.08,23.69,1.36,48.16,0,71.39,5.39,24.92,5.81,49.62,13.16,75.22,15.28,38.25,3.17,72.08-15.33,109-19.88,28.34-3.48,56.44,3.17,84.3,7.45l3.35.48c53.48-29.13,78.82-68.31,86.23-80.18-17.65,13.51-136.28,24-280,24-155.88,0-282.26-12.29-282.26-27.46C197.05,692.27,182.62,725.64,232.42,751.6Z" style="fill:#fff"/><g style="opacity:0.4"><path d="M227.34,751.15c33.24,18.48,73.23,24.84,110.4,29.75,32.46,4.29,65.18,6.6,97.88,8,20.69.91,41.4,1.43,62.11,1.68,22.24.28,44.52.65,66.69-1.52,38.73-3.79,76.64-14.41,110.87-33.08,2.85-1.55-1.32-2.69-3.08-1.73-30.26,16.5-63.73,26.45-97.87,30.76-21.75,2.74-43.54,2.81-65.43,2.63-20.6-.17-41.2-.59-61.79-1.38-55.88-2.14-113.08-5.63-167.47-19.57-16.71-4.28-33.38-9.68-48.51-18.09-1.55-.86-5.93,1.33-3.8,2.51Z" style="fill:#293141"/></g><path d="M194.62,672.09c-.1,12.69-3.31,25.06-1.06,37.77,3.37,19,17.67,32.12,33.78,41.29,1.55.88,5.93-1.3,3.8-2.51-16-9.12-29.93-22.1-32.91-41-1.9-12.12,1.15-23.93,1.25-36,0-2.22-4.84-1.3-4.86.51Z" style="fill:#293141"/><path d="M675.29,756c34.86-19.29,65.13-46.69,86.29-80.55,1.29-2.05-3.59-1.8-4.54-.28-20.82,33.3-50.54,60.13-84.83,79.1-2.84,1.57,1.33,2.7,3.08,1.73Z" style="fill:#293141"/><path d="M636.7,650.71c17.67,1.18,35.31,2.61,52.91,4.52,2.2.24,5-2.88,1.75-3.24-17.6-1.91-35.25-3.34-52.91-4.51-2.18-.15-5,3-1.75,3.23Z" style="fill:#293141"/><path d="M454.77,646q56-.42,112,1.28c2.05.07,5.05-3,1.79-3.06q-56-1.79-112-1.28c-2,0-5.05,3.09-1.79,3.06Z" style="fill:#293141"/><path d="M385.11,695.83c-45.82-1.7-91.9-4-137.35-10.39-12.91-1.8-26.19-3.65-38.59-7.83-3.75-1.27-14-4.82-7-9.12,6.25-3.83,14.48-5.2,21.53-6.67,13.32-2.79,26.85-4.54,40.36-6.1,2.61-.3,3.78-3.73.48-3.35-12.83,1.48-25.66,3.19-38.34,5.66-7.87,1.53-16,3.21-23.39,6.45-6.26,2.76-11.76,8.28-4.06,13,9.14,5.57,21.41,7.09,31.73,8.91,19.83,3.49,39.92,5.56,60,7.32,30.92,2.7,61.93,4.35,92.94,5.5,2.23.08,5-3.22,1.72-3.34Z" style="fill:#293141"/><path d="M740.88,663.4c2.92.74,21.35,4.81,17.64,10.18-1.66,2.4-6.09,3.55-8.65,4.41-14.16,4.76-29.42,6.68-44.16,8.6-52.87,6.88-106.46,9-159.71,10.26q-58.06,1.36-116.13.33c-2.22,0-5,3.29-1.72,3.34,69,1.19,138.14.32,207-4.13,25-1.63,50.09-3.67,75-7.11,14.65-2,30.1-4,44-9.39,3.2-1.24,7.82-3,9.42-6.39,4-8.28-15.55-12.14-19.78-13.22-2-.5-5.71,2.38-2.83,3.12Z" style="fill:#293141"/><path d="M346.68,899.11H177.31a10.72,10.72,0,0,1-5.5-1.5A53.08,53.08,0,0,1,199.11,799l1.19,0a10.78,10.78,0,0,0,10-6.27,77.89,77.89,0,0,1,70.95-45.19,71.37,71.37,0,0,1,40.64,12.29c1.66,1.09,3.28,2.25,4.86,3.45,2,1.54,3.18,2.15,4.7,4.29a80.42,80.42,0,0,0,8.43,10c2.77,2.79,6.23,4.15,8.89,6.93,1.49,1.55,4.87,3.3,6.05,5.06,6.72,10,25.37-.68,27.69-2.1a56.34,56.34,0,0,1,52.53-2.67c7.53,3.48,13.33,9.06,20.28,13.43,8.05,5,13.7-8,15.1-13.72,1.12-4.57,1.61-9.5,3.37-13.88,4.83-12,9.51-25.72,16.25-36.78,8.89-14.6,20.79-26.51,34.64-36.72,18.84-14,55-23.41,77.34-23.41A115.9,115.9,0,0,1,708.92,744a10.87,10.87,0,0,0,10.76,6.4c1.53-.11,3-.16,4.52-.16a78.95,78.95,0,0,1,39.31,147.42,11,11,0,0,1-5.46,1.47H346.68Z" style="fill:#fff"/><path d="M251.9,812.29c20.18-3.15,40,9.12,46.62,28.37,6.85,19.85-2,41.76-20.33,51.77-1.7.93.9,1.15,1.75.69,19.26-10.54,28.95-33.59,21-54.49-7.46-19.68-28.06-31-48.62-27.76-1.31.21-2.47,1.73-.45,1.42Z" style="fill:#293141"/><path d="M347.27,898.37H177.07c-2.52,0-2.21-.21-5-2a52.76,52.76,0,0,1-16.83-72.25,50.93,50.93,0,0,1,51.24-23.7c.69.11,2.07-.17,2.35-.93,8.09-22,25.29-39.84,47.68-47.36,25.35-8.51,53.51-2.62,73.95,14.37.71.59,3.38-.53,2.7-1.09A80.46,80.46,0,0,0,206,800l2.35-.93c-31.33-5-62,18.33-63.69,50.49a53.82,53.82,0,0,0,20.13,44.68c2.71,2.16,6.22,5.2,9.73,5.64a38.44,38.44,0,0,0,4.8,0H346.09c1,0,3.12-1.47,1.18-1.47Z" style="fill:#293141"/><path d="M382.94,898.37H372.27c-1,0-3.11,1.47-1.18,1.47h10.67c1,0,3.12-1.47,1.18-1.47Z" style="fill:#293141"/><path d="M221.9,837.9a29.1,29.1,0,0,1,31.61,19.58,29.45,29.45,0,0,1-13.82,34.95c-1.7.94.9,1.16,1.75.69,13.25-7.38,20.11-23.14,14.52-37.67-5.24-13.62-19.44-21.07-33.61-19-1.31.2-2.47,1.71-.45,1.41Z" style="fill:#293141"/><path d="M352.48,850.25c-4.46-27.41,10.93-55.32,36.87-65.65,28.36-11.29,60.57,2,74.83,28.4.48.88,3.26-.1,2.9-.78a62.86,62.86,0,0,0-59.29-33,64,64,0,0,0-51.36,32.3A61.1,61.1,0,0,0,349.58,851c.14.84,3.05.18,2.9-.77Z" style="fill:#293141"/><path d="M296.89,812.28c-2.1-14.11,5.35-28.55,18.85-33.95,14.66-5.86,30.89,1.45,38.29,14.81.48.88,3.26-.11,2.89-.78a33.72,33.72,0,0,0-40.66-15.62A33.28,33.28,0,0,0,294,813.06c.13.83,3,.18,2.9-.78Z" style="fill:#293141"/><path d="M421.09,889.29a34.67,34.67,0,0,1-25.51-32.4,33.9,33.9,0,0,1,31-34.59c1.34-.11,2.47-1.58.44-1.41-17,1.43-31.86,13.92-34.06,31.3a35.47,35.47,0,0,0,25.81,38.41c.79.21,3.39-1,2.33-1.31Z" style="fill:#293141"/><path d="M605.66,888.85c-27.25-14.72-41-47.27-30.89-76.9,9.77-28.73,39.33-46.84,69.34-42,1.43.23,2.94-1.79,1-2.1a66.55,66.55,0,0,0-62.63,24.48A65.76,65.76,0,0,0,575,861.15a66.59,66.59,0,0,0,28.41,29.37c1.11.6,3.65-.91,2.23-1.67Z" style="fill:#293141"/><path d="M471.1,790a141.17,141.17,0,0,1,37.43-78.52c34.62-36,93.4-47,139.12-27.23C677,697,699.48,721.81,710.38,751.73a1.2,1.2,0,0,0,1.32.67,77.56,77.56,0,0,1,69.24,24,78.81,78.81,0,0,1,19.36,67.72,78,78,0,0,1-31.39,48.81c-2.33,1.66-5.55,4.5-8.23,5.16-1.53.37-3.64,0-5.2,0H524.3c-6.08,0-12.52-.6-18.58,0a8.22,8.22,0,0,1-.86,0c-1.65,0-2.22,2.12-.26,2.12H744.51c5,0,11.11.94,16.09,0,2.91-.55,6.06-3.12,8.49-4.75a80.69,80.69,0,0,0,32-43.11c14.57-47.59-19.35-98-68.8-102.78a79,79,0,0,0-20.37.76l1.32.67c-9.79-26.88-28.69-49.82-53.83-63.68-24.91-13.75-53.49-17.08-81.4-12.89-23.25,3.49-45.44,12.73-63.35,28.11-14.39,12.35-25.66,28-33.7,45.15-6.26,13.35-11,27.88-12.84,42.57-.18,1.48,2.77,1.09,2.94-.22Z" style="fill:#293141"/><path d="M467.68,898.05H451.82c-1.66,0-2.23,2.12-.26,2.12h15.87c1.65,0,2.22-2.12.25-2.12Z" style="fill:#293141"/><path d="M654.79,888.85c-18.24-10-27.69-31.46-21.31-51.55a42.72,42.72,0,0,1,47.12-29.21c1.43.22,2.95-1.8,1-2.1-21-3.28-42.25,8.51-50,28.47-8.27,21.28,1.14,45.23,21,56.06,1.11.6,3.65-.9,2.23-1.67Z" style="fill:#293141"/><path d="M542.46,886.64c-26-14-42.67-41.5-41.89-71.22a78.38,78.38,0,0,1,40.52-66.32,76.14,76.14,0,0,1,48.72-8.16c1.43.23,3-1.79,1-2.11a79.91,79.91,0,0,0-50.6,149.48c1.11.6,3.65-.91,2.24-1.67Z" style="fill:#293141"/><path d="M709.49,888.85c-12.81-7.1-19.76-21.75-16-36.14A30.93,30.93,0,0,1,728,830.11c1.43.21,3-1.82,1-2.1-15.47-2.31-31.21,6.09-37.07,20.83-6.29,15.83.63,33.53,15.34,41.68,1.1.61,3.64-.89,2.23-1.67Z" style="fill:#293141"/><path d="M540.18,421.84a8.48,8.48,0,0,0-10.63,4.49l-121.9,261.4A17.91,17.91,0,0,1,391.76,698,41.49,41.49,0,0,0,355.08,722L323.45,789.8l75.18,35.06L430.26,757A41.46,41.46,0,0,0,425,713.52a17.89,17.89,0,0,1-2.34-18.77l122-261.67A8.29,8.29,0,0,0,540.18,421.84Z" style="fill:#fff"/><path d="M411.86,801.15q9.08-19.46,18.14-38.91c3.48-7.45,6.52-14.76,6.57-23.19a41.59,41.59,0,0,0-6-21.65c-4.31-7.15-9.24-12.7-6.12-21.64,1.6-4.59,4.12-9,6.17-13.39q7.55-16.2,15.1-32.39l45-96.44q21.27-45.6,42.53-91.21,5.85-12.56,11.71-25.12c.69-1.47,1.49-2.94,2.08-4.46,3.5-9-5.45-14.26-13.25-11.49-6.34,2.26-8.18,8.86-10.77,14.43q-6.94,14.87-13.87,29.73l-44.4,95.22-43.41,93.1-13,27.84c-.92,2-1.82,4-2.77,5.95a23,23,0,0,1-1.73,3.15c-5.21,7.57-14.27,5.93-22.11,8C369.66,702,359.12,709.83,353.37,721c-1.92,3.75-3.59,7.65-5.38,11.47q-11,23.65-22.06,47.31l-4.86,10.43a.26.26,0,0,0,.1.38l42.67,19.9c1.26.59,5-1.41,4.55-1.63l-39.91-18.61c-.59-.27-1.94-.6-2.36-1.1-.59-.69-.09.68-.11-.19,0-1.31,1.78-3.82,2.32-5l10.39-22.29C344.93,748.4,351,735,357.35,721.77a42.22,42.22,0,0,1,10.52-14c7.27-6.2,15.08-8,24.29-8.91,7.78-.79,14.56-4.92,18.06-12,9-18.23,17.22-36.93,25.82-55.37q24.18-51.84,48.35-103.69,20.07-43,40.12-86c2.39-5.13,4.37-11,7.36-15.78,4.53-7.29,11.9-1.16,11,5.19a10.85,10.85,0,0,1-.94,3.05c-1,2.23-2.06,4.41-3.09,6.62q-17.64,37.81-35.27,75.64l-48.9,104.85L422.26,691c-.65,1.38-1.34,2.75-1.94,4.15a18.58,18.58,0,0,0,.56,16.43c1.9,3.44,4.61,6.31,6.4,9.85A41.89,41.89,0,0,1,431,732.51c2,10.66-.94,20.2-5.36,29.69l-11.49,24.65L407.1,802c-.31.66,4.19.35,4.76-.87Z" style="fill:#293141"/><g style="opacity:0.4"><path d="M363.84,810.51l32.51,15.16c1,.49,4.12-.11,4.66-1.25q5.42-11.64,10.85-23.27c.31-.67-4.19-.36-4.76.87q-5.43,11.63-10.85,23.27l4.66-1.25-32.52-15.16c-1.26-.58-5,1.41-4.55,1.63Z" style="fill:#293141"/></g><path d="M365.34,783.65q15.2-32.56,30.37-65.12c1.14-2.45-3.73-2.38-4.6-.5q-15.19,32.57-30.37,65.12c-1.14,2.45,3.73,2.38,4.6.5Z" style="fill:#293141"/><path d="M406.59,724.08q-7.8,16.74-15.62,33.49-5.27,11.31-10.54,22.6c-1.76,3.78-3.2,8.28-5.7,11.66-1.81,2.45,2.74,3.07,4,1.35,2.46-3.33,3.94-7.47,5.68-11.21q5.37-11.49,10.73-23l16-34.39c1.15-2.45-3.72-2.38-4.6-.5Z" style="fill:#293141"/><path d="M319.6,556.08c5.41,27.08,20.55,51,41.89,68.38a140.12,140.12,0,0,0,34.87,20.75c7.27,3,14.87,4,22.68,4.27,2.71.1,5.36.28,8-.6,3-1,8.32-4,8.18,1.2,0,.95,4.79.26,4.83-1.3.12-4.51-5-4.87-8.41-4.11-2.77.63-4.79,2.39-7.7,2.69-4.85.51-10.78-.48-15.5-1.53-14-3.12-27.75-11.84-39-20.43-22.94-17.5-39.28-42.22-45-70.62-.25-1.21-5.11-.06-4.83,1.3Z" style="fill:#293141"/><path d="M514.28,490c-1.07-3.83-5-4.29-8.5-3.38-3.72,1-6.35,3.52-8.38,6.67-6.36,9.91-10.87,20.82-17.89,30.35-13.46,18.27-36.77,38.22-60.34,25.56-1.6-.86-6,1.38-3.78,2.56,17.73,9.52,36.8,2.89,51.42-9.21a105.69,105.69,0,0,0,19.93-22.38c3.47-5.13,6.41-10.56,9.37-16,1.31-2.4,2.64-4.78,3.95-7.19.61-1.13,1.19-2.3,1.89-3.37l.71-1.06q2.07-3.68,6.79-1.26c.54,1.94,5.37.65,4.83-1.3Z" style="fill:#293141"/></svg>