<svg xmlns="http://www.w3.org/2000/svg" viewBox="0 0 240 208"><title>create-account</title><path d="M64.49,205.09C59.6,204,.79,194.5,5.12,124.16s9.76-91.49,32.62-99.23,78.44-44.36,122.06-9.54,90.67,66.05,72,121.65-21.74,74.14-70.46,71.3-73.58,1.79-96.85-3.25Z" style="fill:#f9f9f9"/><path d="M117.71,122.84c-12.2-7.84-7.27-25.35,7.22-25.67a10.69,10.69,0,0,1,6,1.7c12.2,7.83,7.27,25.34-7.22,25.66a10.68,10.68,0,0,1-6-1.69ZM145,99.28c-8.06-14.38-28.89-17.08-40.33-1.87a24.36,24.36,0,0,0-4.13,14.53c1.54,16.63,16.42,25.29,29.76,21.82a1.18,1.18,0,0,1,1.34.56l29.85,53.25a1.19,1.19,0,0,0,1.62.46l6.77-3.8a1.19,1.19,0,0,0,.46-1.62l-2.15-3.82a1.18,1.18,0,0,1,.46-1.62l6.77-3.8a1.18,1.18,0,0,0,.46-1.61l-3-5.31a1.19,1.19,0,0,0-1.62-.45l-6.78,3.8a1.18,1.18,0,0,1-1.61-.46l-3-5.3a1.18,1.18,0,0,1,.45-1.61l3.83-2.15a1.18,1.18,0,0,0,.45-1.61l-3-5.31a1.18,1.18,0,0,0-1.61-.45l-3.83,2.14a1.19,1.19,0,0,1-1.62-.45l-14.13-25.21a1.19,1.19,0,0,1,.23-1.44A23.69,23.69,0,0,0,145,99.28Z" style="fill:#e3e3e3"/><path d="M117.71,122.84c-12.2-7.84-7.27-25.35,7.22-25.67a10.69,10.69,0,0,1,6,1.7c12.2,7.83,7.27,25.34-7.22,25.66a10.68,10.68,0,0,1-6-1.69ZM145,99.28c-8.06-14.39-28.59-16.85-38.46-2.9C104,100,102,106.44,102.39,110.85c1.49,16.59,15.63,23.93,29,20.4a1.18,1.18,0,0,1,1.34.57l29.85,53.25a1.19,1.19,0,0,0,1.62.45l4.89-2.74a1.19,1.19,0,0,0,.45-1.62l-2.14-3.82a1.19,1.19,0,0,1,.45-1.62l6.78-3.8a1.18,1.18,0,0,0,.46-1.61l-2.16-3.86a1.19,1.19,0,0,0-1.62-.45l-6.78,3.8a1.18,1.18,0,0,1-1.61-.46l-3.79-6.75a1.18,1.18,0,0,1,.46-1.61l3.83-2.15a1.18,1.18,0,0,0,.45-1.61l-2.16-3.86a1.18,1.18,0,0,0-1.61-.45l-3.83,2.14a1.19,1.19,0,0,1-1.62-.45l-14.13-25.21a1.19,1.19,0,0,1,.23-1.44A23.69,23.69,0,0,0,145,99.28Z" style="fill:#fff"/><path d="M124.15,134.75a26.4,26.4,0,0,0,2.95-.19,27.46,27.46,0,0,1,2.8-.51,1.29,1.29,0,0,1,1.25.6c.31.51.59,1,.88,1.56l4,7.08q6.24,11.1,12.46,22.22,5.36,9.57,10.73,19.14a32,32,0,0,0,1.76,3.12c1.09,1.51,3.06,0,4.22-.64,1.62-.91,3.27-1.77,4.87-2.73,1.79-1.08.46-2.61-.29-4a11.72,11.72,0,0,1-1.08-2c-.36-1.13.7-1.46,1.46-1.89l5.15-2.89c.59-.33,1.25-.67,1.28-1.45a3.71,3.71,0,0,0-.74-1.72,40.82,40.82,0,0,0-2.41-4.28c-1.1-1.51-3.06,0-4.22.64l-2.81,1.57a9.36,9.36,0,0,1-2.06,1.16c-.71.14-1.05-.73-1.35-1.26-.52-.94-1-1.87-1.57-2.8a14.43,14.43,0,0,1-.93-1.67c-.51-1.31.84-1.73,1.74-2.24,1.17-.65,3.73-1.48,2.94-3.23s-1.77-3.17-2.65-4.73c-.35-.63-.72-1.17-1.54-1.18a3.9,3.9,0,0,0-1.94.7l-2.69,1.51c-.56.31-.91.05-1.25-.45a28.12,28.12,0,0,1-1.44-2.57l-5.93-10.57-5.61-10a15,15,0,0,1-1.05-1.88c-.36-.91.2-1.35.78-2a24,24,0,0,0,1.69-1.94,24.35,24.35,0,0,0,2.57-4.08,23.75,23.75,0,0,0-12.9-32.78A24.71,24.71,0,0,0,124.09,87c-.32,0-1.21.48-.48.47a23.58,23.58,0,0,1,20,36.4,29.31,29.31,0,0,1-3.33,4,1.45,1.45,0,0,0-.34,1.78c1.09,2.36,2.58,4.6,3.84,6.86q3.18,5.64,6.34,11.29c1.27,2.28,2.45,4.65,3.84,6.86.82,1.3,2.2.69,3.27.09l2.69-1.51c.74-.41,1.12.22,1.46.83a46,46,0,0,1,2.63,4.69c.5,1.19-.39,1.56-1.24,2s-1.69.93-2.52,1.42c-1.74,1-.8,2.24-.05,3.58l1.53,2.73a3.78,3.78,0,0,0,1.05,1.49c1.24.73,3-.68,4-1.25l2.81-1.58a7.45,7.45,0,0,1,1.84-1c.69-.11,1.1,1,1.38,1.45l1.53,2.73a12.4,12.4,0,0,1,.89,1.59c.45,1.16-.44,1.5-1.24,2l-5.14,2.88a3.09,3.09,0,0,0-1.29,1c-.44.78.15,1.53.52,2.2.48.85,1,1.7,1.44,2.56a1.29,1.29,0,0,1-.45,1.91c-1.62,1-3.37,1.89-5,2.82-.59.34-1.28,1-1.9.44a1.65,1.65,0,0,1-.28-.41c-.31-.52-.59-1.05-.88-1.57q-4.78-8.55-9.58-17.11l-12.6-22.46-4.62-8.25c-.67-1.19-1.25-2.51-2-3.63a1.52,1.52,0,0,0-1.44-.71c-.89,0-1.79.39-2.68.52a24.79,24.79,0,0,1-3.44.27c-.32,0-1.21.48-.48.47Z" style="fill:#232937"/><path d="M117.49,122.14A14.35,14.35,0,0,1,111.43,112a13.55,13.55,0,0,1,3.49-10.41c.24-.27-.82-.15-1,.06a13.89,13.89,0,0,0-3.62,10.37,14.44,14.44,0,0,0,6.15,10.48c.26.19,1.24-.25,1-.39Z" style="fill:#232937"/><path d="M106,117.82c-6.64-12.88,6.39-25.58,19.1-18.61a10.64,10.64,0,0,1,4.36,4.48c6.64,12.88-6.38,25.58-19.09,18.61a10.78,10.78,0,0,1-4.37-4.48Zm35.28-6.72c.21-16.49-16.37-29.25-33.77-21.79A24.26,24.26,0,0,0,96.77,99.83c-6.94,15.16,1.56,30.1,14.76,33.77a1.18,1.18,0,0,1,.87,1.16l-.77,61a1.19,1.19,0,0,0,1.15,1.22l7.68.1a1.18,1.18,0,0,0,1.18-1.18l.06-4.44a1.18,1.18,0,0,1,1.19-1.18l7.73.1a1.19,1.19,0,0,0,1.19-1.17l.08-6.06a1.17,1.17,0,0,0-1.16-1.19l-7.69-.1a1.18,1.18,0,0,1-1.16-1.2l.07-6.09a1.19,1.19,0,0,1,1.22-1.16l4.43,0a1.18,1.18,0,0,0,1.21-1.16l.08-6a1.18,1.18,0,0,0-1.19-1.19l-4.43-.06a1.18,1.18,0,0,1-1.16-1.2l.36-28.9a1.21,1.21,0,0,1,.91-1.14A23.64,23.64,0,0,0,141.3,111.1Z" style="fill:#e3e3e3"/><path d="M106,117.82c-6.64-12.88,6.39-25.58,19.1-18.61a10.64,10.64,0,0,1,4.36,4.48c6.64,12.88-6.38,25.58-19.09,18.61a10.78,10.78,0,0,1-4.37-4.48Zm35.51-6.72c.21-16.49-16.34-28.71-32-21.75-4.06,1.8-9,6.46-10.85,10.47-7,15.11,1.57,28.54,14.93,32.15a1.18,1.18,0,0,1,.89,1.16l-.78,61a1.19,1.19,0,0,0,1.17,1.21l5.58.07a1.18,1.18,0,0,0,1.19-1.18l.06-4.41a1.19,1.19,0,0,1,1.2-1.18l7.93.1a1.19,1.19,0,0,0,1.21-1.18l.06-4.42a1.18,1.18,0,0,0-1.18-1.2l-7.86-.1a1.2,1.2,0,0,1-1.18-1.21l.09-7.7a1.18,1.18,0,0,1,1.21-1.16l4.43.05a1.18,1.18,0,0,0,1.2-1.17l.06-4.38a1.19,1.19,0,0,0-1.18-1.2l-4.41-.06a1.18,1.18,0,0,1-1.17-1.2l.37-28.9a1.19,1.19,0,0,1,.92-1.14,23.7,23.7,0,0,0,18.13-22.68Z" style="fill:#fff"/><path d="M111.75,135.47q-.09,7-.17,13.95-.18,13.62-.35,27.23L111,195.18c0,.61-.09,1.27.46,1.71a2.7,2.7,0,0,0,1.75.32l3.15,0,3,0a4.58,4.58,0,0,0,1.73-.16c1.76-.65,1.19-3.29,1.21-4.77,0-.63-.13-1.6.55-1.79a11.51,11.51,0,0,1,2.62,0c1.64,0,3.31.13,5,.06a1.91,1.91,0,0,0,2.05-1.53,18.13,18.13,0,0,0,0-1.95c0-1.07,0-2.14,0-3.21,0-.72.13-1.52-.56-2a3.18,3.18,0,0,0-1.73-.25l-3.07,0-3.06,0c-.83,0-1.59-.12-1.68-1.16-.15-1.79,0-3.68.07-5.48a4,4,0,0,1,0-.77c.15-.62.38-.57.9-.56l3.1,0a3.54,3.54,0,0,0,2.07-.39c.68-.44.69-1.08.7-1.8,0-1.78.22-3.64.07-5.42s-3.25-1.34-4.55-1.35c-.93,0-2.06.12-2.18-1.13a4.39,4.39,0,0,1,0-.63l.3-23.4c0-1.37,0-2.75.05-4.12a3.46,3.46,0,0,1,0-.72c.23-1.17,3-1.6,4-2a24.38,24.38,0,0,0,12.87-12.46A24,24,0,0,0,127.7,88.84a24.51,24.51,0,0,0-9-2c-.26,0-1.28.46-.72.48a23.55,23.55,0,0,1,13.71,42.16,24.13,24.13,0,0,1-4.18,2.56c-1.46.69-3,1-4.52,1.6-1.14.47-1.13,1.31-1.14,2.33l-.3,23.34c0,1.29,0,2.59,0,3.89,0,1,.17,1.89,1.42,2,.89.08,1.81,0,2.7,0s2.27-.24,2.57.86a7.37,7.37,0,0,1,0,2c0,1.08,0,2.16,0,3.24,0,.54.14,1.67-.43,1.91a4.25,4.25,0,0,1-1.18,0l-1.66,0c-1.37,0-3.38-.2-3.54,1.64s0,3.67-.07,5.49,1.23,1.78,2.62,1.8l6,.07c.81,0,1.43.3,1.49,1.22s0,1.66,0,2.49l0,3a4.23,4.23,0,0,1,0,.71c-.14.6-.23.49-.65.56a17.26,17.26,0,0,1-2.69,0l-3.16,0c-1.3,0-3.42-.26-3.64,1.51-.18,1.52.33,3.31-.13,4.76-.23.71-1.1.43-1.74.42l-3.26,0c-1.16,0-3.81.48-4-1.17a41.7,41.7,0,0,1,.05-4.33c0-3.3.09-6.6.13-9.9q.16-13.37.34-26.72l.24-18.53c0-.32,0-.63,0-.94s-1.11,0-1.12.3Z" style="fill:#232937"/><path d="M114,123.41a12.76,12.76,0,0,1-6.29-4,14.26,14.26,0,0,1-2.8-7,13.6,13.6,0,0,1,4.8-12.12c.24-.2-.8-.11-1,.07a13.9,13.9,0,0,0-4.9,12.35,14.49,14.49,0,0,0,2.76,7,13,13,0,0,0,6.54,4.21c.26.08,1.25-.34.91-.45Z" style="fill:#232937"/><path d="M98.9,111.14c.61-14.48,18.22-19,25.81-6.7a10.72,10.72,0,0,1,1.57,6c-.62,14.48-18.23,19-25.81,6.7a10.66,10.66,0,0,1-1.57-6ZM133,122.81c8.35-14.21.18-33.57-18.73-35.78a24.4,24.4,0,0,0-14.62,3.76c-13.59,9.71-13.56,26.93-3.84,36.7a1.21,1.21,0,0,1,.19,1.45L65.05,181.56a1.2,1.2,0,0,0,.42,1.63l6.7,3.93a1.17,1.17,0,0,0,1.62-.42L76,182.92a1.17,1.17,0,0,1,1.62-.42l6.7,3.93A1.17,1.17,0,0,0,86,186L89,180.77a1.17,1.17,0,0,0-.42-1.62l-6.69-3.94a1.18,1.18,0,0,1-.43-1.62l3.08-5.24a1.19,1.19,0,0,1,1.63-.43L90,170.15a1.2,1.2,0,0,0,1.63-.42l3.08-5.24a1.19,1.19,0,0,0-.43-1.63l-3.78-2.22a1.2,1.2,0,0,1-.42-1.63l14.64-24.91a1.19,1.19,0,0,1,1.37-.53A23.69,23.69,0,0,0,133,122.81Z" style="fill:#f7e080"/><path d="M98.9,111.14c.61-14.48,18.22-19,25.81-6.7a10.72,10.72,0,0,1,1.57,6c-.62,14.48-18.23,19-25.81,6.7a10.66,10.66,0,0,1-1.57-6ZM133,122.81c8.35-14.22-.28-33.29-16.89-34.69-4.41-.37-11,1.18-14.57,3.75-13.58,9.65-12.79,25.56-3,35.28a1.18,1.18,0,0,1,.19,1.45L67.76,181.22a1.18,1.18,0,0,0,.42,1.63L73,185.69a1.2,1.2,0,0,0,1.63-.42l2.22-3.78a1.18,1.18,0,0,1,1.62-.43l6.7,3.94a1.2,1.2,0,0,0,1.63-.42L89,180.77a1.17,1.17,0,0,0-.42-1.62l-6.69-3.94a1.18,1.18,0,0,1-.43-1.62l3.93-6.68a1.19,1.19,0,0,1,1.62-.42l3.78,2.23a1.19,1.19,0,0,0,1.63-.43l2.24-3.8a1.19,1.19,0,0,0-.43-1.63l-3.78-2.22a1.2,1.2,0,0,1-.42-1.63l14.64-24.91a1.19,1.19,0,0,1,1.37-.53A23.69,23.69,0,0,0,133,122.81Z" style="fill:#ffeea7"/><path d="M94.67,94.79a24.15,24.15,0,0,0-5.6,21.9,23.85,23.85,0,0,0,5.31,10c.67.76,1.47,1.36,1,2.42a6.82,6.82,0,0,1-.41.68L82.82,150.5,67.65,176.3a59.26,59.26,0,0,0-3.13,5.32c-.78,1.73,2,2.66,3.09,3.33l3.24,1.9a2.8,2.8,0,0,0,2.12.62c1-.21,1.4-.91,1.89-1.73l1-1.7c.19-.31.41-1,.7-1.18.65-.5,1.86.59,2.39.9l3.39,2a7.73,7.73,0,0,0,1.94,1,2.29,2.29,0,0,0,2.38-1.11c.61-1,1.17-2,1.75-3a10.93,10.93,0,0,0,1.32-2.33c.27-1-.65-1.47-1.37-1.9l-3.24-1.9c-.83-.49-1.75-.93-2.54-1.49-1.09-.77-.49-1.63,0-2.49l1.94-3.3a4.2,4.2,0,0,1,.57-1c.47-.43.8-.1,1.22.15,1.55.91,4.21,3.27,5.81,1.2a18.24,18.24,0,0,0,1.24-2.09c.59-1,1.21-2,1.76-3a1.44,1.44,0,0,0-.62-2.13c-1-.62-2-1.2-3.07-1.8-1.52-.9-.7-1.95-.05-3.07q1.52-2.56,3-5.13l8-13.66,2.5-4.25c.36-.61.4-.78,1.32-.62a35.77,35.77,0,0,0,5.55.75A25,25,0,0,0,131.26,126,23.76,23.76,0,0,0,127.2,91.6a24.44,24.44,0,0,0-20.09-4.16,23.38,23.38,0,0,0-9.78,4.78c-.25.21.8.11,1-.07a22,22,0,0,1,12-4.86,22.57,22.57,0,0,1,10.9,1.88,23.6,23.6,0,0,1,12.27,31.76,22.65,22.65,0,0,1-24.71,12.94c-1.33-.25-2.91-1.06-4.15-.14a7.63,7.63,0,0,0-1.54,2.33q-3.55,6-7.1,12.08l-6.13,10.43a3.7,3.7,0,0,0-.45.83c-.3,1.16.92,1.63,1.71,2.1a26.81,26.81,0,0,1,2.64,1.55c1.09.82.19,1.89-.31,2.75-.63,1.07-1.26,2.13-1.88,3.2a3.51,3.51,0,0,1-.47.8c-.48.39-1-.07-1.35-.31-1.46-.86-4-3.08-5.55-1.23a13.06,13.06,0,0,0-1.23,2c-.59,1-1.2,2-1.78,3-.45.79-.54,1.53.3,2.13a25.42,25.42,0,0,0,2.31,1.36L87,178.7c.85.5,2,1,1.48,2.17a17.71,17.71,0,0,1-1.31,2.22,16.27,16.27,0,0,1-1.66,2.83c-.59.65-1.29,0-1.89-.41l-3.27-1.92c-1.44-.85-3.46-2.49-4.87-.61a24.17,24.17,0,0,0-1.42,2.41c-.44.75-.69,1.75-1.68,1.36a21.29,21.29,0,0,1-2.75-1.62l-3-1.78c-.74-.43-1.42-.89-1-1.9.07-.15.18-.3.27-.45l1.45-2.48Q74.11,167,80.9,155.45t13.73-23.37l1.56-2.64c.1-.18.22-.35.31-.54.49-1-.18-1.57-.86-2.31a23.81,23.81,0,0,1-5.5-21.46,24.35,24.35,0,0,1,5.54-10.41c.24-.27-.83-.14-1,.07Z" style="fill:#232937"/><path d="M99.45,111c.27-5.2,3-10.17,7.82-12.38a13.59,13.59,0,0,1,18.4,10.44,14.69,14.69,0,0,1-1.82,8.43,12.66,12.66,0,0,1-12,6.57c-6.51-.54-12.53-6.38-12.37-13.06,0-.2-1.1,0-1.11.3-.16,6.54,5.56,12.2,11.84,13.13a14.74,14.74,0,0,0,13.45-5.16,14.93,14.93,0,0,0,3.12-7.77A12.39,12.39,0,0,0,123,101.37a14.32,14.32,0,0,0-14.43-3.68,14.57,14.57,0,0,0-10.25,13.6c0,.18,1.1,0,1.11-.3Z" style="fill:#232937"/><path d="M144.12,94.07a47.27,47.27,0,0,0,18.74-19.75A46.29,46.29,0,0,0,136.65,10a49,49,0,0,0-47.88,9.55,46.77,46.77,0,0,0-14,47.06,46.78,46.78,0,0,0,35.13,33,47.74,47.74,0,0,0,6.41.89,2.6,2.6,0,0,0,1.58-.42c.3-.25.35-.4-.12-.44A46,46,0,0,1,85.54,24.81a45,45,0,0,1,19.69-14.12,44.18,44.18,0,0,1,25.23-1.18A46,46,0,0,1,148,90.27a45.69,45.69,0,0,1-5.62,3.79c-.41.24-.23.37.12.44a2.9,2.9,0,0,0,1.58-.43Z" style="fill:#232937"/></svg>