<svg xmlns="http://www.w3.org/2000/svg" viewBox="0 0 240 208"><title>create-cr</title><path d="M61.89,186.7c-5.08-.86-66.15-8.59-61.65-65.58S10.37,47,34.12,40.73,115.58,4.79,160.87,33,255,86.51,235.63,131.56s-22.56,60.07-73.16,57.77S86.06,190.77,61.89,186.7Z" style="fill:#ecf8fb"/><rect x="134.22" y="100.43" width="93.1" height="13.02" rx="4.93" style="fill:#fff"/><path d="M228.64,95.94h-33a5.21,5.21,0,0,1-5.2-5.19h0a5.22,5.22,0,0,1,5.2-5.2h33a5.21,5.21,0,0,1,5.19,5.2h0A5.21,5.21,0,0,1,228.64,95.94Z" style="fill:#fff"/><path d="M234.81,127.86h-33a5.2,5.2,0,0,1-5.19-5.19h0a5.2,5.2,0,0,1,5.19-5.19h33a5.2,5.2,0,0,1,5.19,5.19h0A5.2,5.2,0,0,1,234.81,127.86Z" style="fill:#fff"/><path d="M217.48,117.89c-1.6,0-2.91-1-2.91-2.22s1.31-2.22,2.91-2.22h-12.7c1.61,0,2.91,1,2.91,2.22s-1.3,2.22-2.91,2.22Z" style="fill:#fff"/><path d="M221.6,100.57c-1.68,0-3-1-3-2.31s1.36-2.32,3-2.32H208.34c1.68,0,3,1,3,2.32s-1.36,2.31-3,2.31Z" style="fill:#fff"/><rect x="17.57" y="62.85" width="93.1" height="13.02" rx="4.93" transform="translate(128.25 138.72) rotate(-180)" style="fill:#fff"/><path d="M16.26,80.36h33a5.21,5.21,0,0,1,5.19,5.19h0a5.21,5.21,0,0,1-5.19,5.2h-33a5.21,5.21,0,0,1-5.19-5.2h0A5.2,5.2,0,0,1,16.26,80.36Z" style="fill:#fff"/><path d="M10.09,48.44h33a5.2,5.2,0,0,1,5.19,5.19h0a5.2,5.2,0,0,1-5.19,5.19h-33a5.21,5.21,0,0,1-5.2-5.19h0A5.21,5.21,0,0,1,10.09,48.44Z" style="fill:#fff"/><path d="M27.41,58.41c1.61,0,2.91,1,2.91,2.22s-1.3,2.22-2.91,2.22h12.7c-1.6,0-2.91-1-2.91-2.22s1.31-2.22,2.91-2.22Z" style="fill:#fff"/><path d="M23.3,75.73c1.67,0,3,1,3,2.31s-1.36,2.32-3,2.32H36.56c-1.68,0-3-1-3-2.32s1.36-2.31,3-2.31Z" style="fill:#fff"/><polygon points="88.67 174.51 72.26 167.5 139.66 167.5 156.07 174.51 88.67 174.51" style="fill:#fff"/><path d="M156.07,174.89H88.67l-.15,0-16.41-7a.39.39,0,0,1,.15-.74h67.4a.4.4,0,0,1,.15,0l16.41,7a.39.39,0,0,1-.15.74Zm-67.32-.77H154.2l-14.62-6.23H74.13Z" style="fill:#293241"/><rect x="72.26" y="121.45" width="67.4" height="46.05" style="fill:#fff"/><path d="M139.66,167.89H72.26a.38.38,0,0,1-.38-.39v-46a.38.38,0,0,1,.38-.38h67.4a.38.38,0,0,1,.38.38V167.5A.38.38,0,0,1,139.66,167.89Zm-67-.77h66.63V121.83H72.64Z" style="fill:#293241"/><polygon points="139.66 167.5 156.16 174.49 156.16 128.38 139.66 121.45 139.66 167.5" style="fill:#fff"/><path d="M156.16,174.87a.4.4,0,0,1-.15,0l-16.5-7a.4.4,0,0,1-.24-.36v-46a.4.4,0,0,1,.17-.32.39.39,0,0,1,.36,0L156.31,128a.38.38,0,0,1,.23.35v46.11a.37.37,0,0,1-.17.31A.33.33,0,0,1,156.16,174.87ZM140,167.25l15.74,6.66V128.64L140,122Z" style="fill:#293241"/><rect x="78.61" y="153.97" width="19.61" height="8.5" style="fill:#abdff5"/><path d="M92.76,155.9H80.08a.38.38,0,0,1-.38-.38.39.39,0,0,1,.38-.39H92.76a.39.39,0,0,1,.38.39A.38.38,0,0,1,92.76,155.9Z" style="fill:#293241"/><path d="M81.72,158H80.08a.38.38,0,0,1,0-.76h1.64a.38.38,0,0,1,0,.76Z" style="fill:#293241"/><path d="M84.58,158H83a.38.38,0,0,1,0-.76h1.63a.38.38,0,1,1,0,.76Z" style="fill:#293241"/><path d="M87.44,158H85.81a.38.38,0,0,1,0-.76h1.63a.38.38,0,1,1,0,.76Z" style="fill:#293241"/><path d="M97.26,161.9H77.66a.38.38,0,0,1-.38-.38V153a.38.38,0,0,1,.38-.38h19.6a.39.39,0,0,1,.39.38v8.5A.39.39,0,0,1,97.26,161.9ZM78,161.14H96.88V153.4H78Z" style="fill:#293241"/><path d="M152.76,157a.38.38,0,0,1-.38-.39v-7.82a.38.38,0,0,1,.38-.38.39.39,0,0,1,.39.38v7.82A.39.39,0,0,1,152.76,157Z" style="fill:#293241"/><path d="M152.76,159.92a.38.38,0,0,1-.38-.38v-1.23a.38.38,0,0,1,.38-.38.39.39,0,0,1,.39.38v1.23A.39.39,0,0,1,152.76,159.92Z" style="fill:#293241"/><path d="M152.76,164.58a.39.39,0,0,1-.38-.39V161a.38.38,0,0,1,.38-.38.39.39,0,0,1,.39.38v3.21A.4.4,0,0,1,152.76,164.58Z" style="fill:#293241"/><path d="M89.26,143.94c0,1.92-1.19,3.47-2.64,3.47s-2.6-1.58-2.59-3.5,1.19-3.48,2.63-3.47S89.27,142,89.26,143.94Z" style="fill:#abdff5"/><ellipse cx="125.06" cy="144.14" rx="3.49" ry="2.61" transform="translate(-19.77 268.39) rotate(-89.68)" style="fill:#abdff5"/><path d="M97.9,137.46h0a2.51,2.51,0,0,1-2.5-2.54.39.39,0,0,1,.38-.38.38.38,0,0,1,.38.39,1.78,1.78,0,0,0,.51,1.25,1.77,1.77,0,0,0,2.49,0,1.82,1.82,0,0,0,.53-1.25.38.38,0,0,1,.38-.38h0a.4.4,0,0,1,.38.39,2.53,2.53,0,0,1-2.53,2.5Z" style="fill:#293241"/><path d="M114.83,137.87h0a2.5,2.5,0,0,1-1.78-.76,2.53,2.53,0,0,1-.73-1.79.4.4,0,0,1,.39-.38h0a.4.4,0,0,1,.38.39,1.73,1.73,0,0,0,.5,1.25,1.76,1.76,0,0,0,2.5,0,1.75,1.75,0,0,0,.52-1.24A.38.38,0,0,1,117,135h0a.38.38,0,0,1,.38.38,2.52,2.52,0,0,1-.76,1.78A2.49,2.49,0,0,1,114.83,137.87Z" style="fill:#293241"/><path d="M106.59,149h-.13a19.83,19.83,0,0,1-13.41-5.16.39.39,0,0,1,0-.54.38.38,0,0,1,.54,0,19.37,19.37,0,0,0,12.86,4.94,19.87,19.87,0,0,0,12.85-4.38.38.38,0,0,1,.52.56A20.32,20.32,0,0,1,106.59,149Z" style="fill:#293241"/><path d="M65.69,74.07a46,46,0,1,1,92,0h0c0-5-6.2-8.63-13.84-8.63S130,69.52,130,74.55h0c-.64-5.45-8.42-9.11-18.11-9.11S94.1,69.07,93.6,74.6h0c0-5-6.42-9.16-14.07-9.16S65.69,69,65.69,74.05Z" style="fill:#fff"/><path d="M66.64,75a46,46,0,0,1,92,0h0c0-5-6.2-8.63-13.85-8.63s-13.85,4.08-13.85,9.12h0c-.64-5.45-8.42-9.12-18.1-9.12S95.05,70,94.55,75.56h0c0-5-6.42-9.17-14.06-9.17S66.64,70,66.64,75Z" style="fill:#abdff5"/><path d="M93.6,75h0a.38.38,0,0,1-.36-.38c0-4.76-6.27-8.78-13.69-8.78-7.67,0-13.45,3.53-13.46,8.21v0a.38.38,0,0,1-.76,0v0a46.37,46.37,0,0,1,92.73,0,.38.38,0,0,1-.76,0c0-4.7-5.79-8.25-13.46-8.25-7.43,0-13.47,3.92-13.47,8.73a.38.38,0,0,1-.76,0c-.6-5.09-8-8.78-17.73-8.78-9.9,0-17.42,3.71-17.88,8.82A.39.39,0,0,1,93.6,75Zm18.26-9.92a29.37,29.37,0,0,1,12.62,2.55,10.73,10.73,0,0,1,5.38,5.09c1.3-4.35,7.06-7.64,14-7.64,6.29,0,11.38,2.33,13.35,5.77a45.61,45.61,0,0,0-91,0c2-3.43,7.06-5.75,13.35-5.75a18.82,18.82,0,0,1,10.11,2.75,9.31,9.31,0,0,1,4,4.88,10.56,10.56,0,0,1,5.39-5.09A30,30,0,0,1,111.86,65.06Z" style="fill:#293241"/><path d="M130,74.48a.38.38,0,0,1-.38-.38c0-20.64-5.52-35.67-16.39-44.7-.69-.57-1-.78-1-1a.38.38,0,0,1,.25-.47.38.38,0,0,1,.47.22,6.9,6.9,0,0,0,.79.7,37.54,37.54,0,0,1,9.69,12c4.62,8.74,7,19.94,7,33.29A.38.38,0,0,1,130,74.48ZM112.93,28.15Zm0,0Z" style="fill:#293241"/><path d="M93.51,74.6a.38.38,0,0,1-.38-.38c0-13.35,2.36-24.56,7-33.34A38.08,38.08,0,0,1,110,28.82a7.29,7.29,0,0,0,.8-.7.37.37,0,0,1,.46-.22.38.38,0,0,1,.26.47c-.08.25-.34.46-1,1-11,9.1-16.55,24.18-16.55,44.81A.38.38,0,0,1,93.51,74.6Zm17.23-46.45Z" style="fill:#293241"/><path d="M112.49,121.52a.33.33,0,0,1-.26-.11.38.38,0,0,1,0-.54L157.39,73.8a.38.38,0,1,1,.55.53L112.76,121.4A.36.36,0,0,1,112.49,121.52Z" style="fill:#293241"/><path d="M112.11,121.52l-.14,0a.4.4,0,0,1-.22-.5l17.86-46.58a.38.38,0,0,1,.72.27l-17.86,46.59A.39.39,0,0,1,112.11,121.52Z" style="fill:#293241"/><path d="M111.89,121.52a.39.39,0,0,1-.36-.24L93.24,74.74a.38.38,0,0,1,.22-.49.38.38,0,0,1,.49.21L112.25,121a.38.38,0,0,1-.22.49A.35.35,0,0,1,111.89,121.52Z" style="fill:#293241"/><path d="M111.39,121.52a.39.39,0,0,1-.28-.12L65.41,74.33A.38.38,0,0,1,66,73.8l45.7,47.07a.39.39,0,0,1-.27.65Z" style="fill:#293241"/></svg>