<svg xmlns="http://www.w3.org/2000/svg" viewBox="0 0 240 208"><title>ets</title><path d="M64.83,203.24C60,202.19,2,192.78,6.23,123.35s9.63-90.32,32.2-98S115.86-18.39,158.91,16,248.42,81.17,230,136.06s-21.45,73.18-69.56,70.38S87.81,208.21,64.83,203.24Z" style="fill:#f9f9f9"/><polygon points="146.91 87.22 74.81 87.46 74.81 155.44 146.91 155.44 146.91 87.22" style="fill:#e3e3e3"/><path d="M147.26,86.77H122.71L83.92,87,75,87c-.43,0-1,.66-.36.66H99.2L138,87.45l8.92,0c.44,0,1-.65.36-.65Z" style="fill:#293141"/><polygon points="74.81 87.37 50.4 96.78 50.4 164.9 74.81 155.75 74.81 87.37" style="fill:#efefef"/><path d="M75.5,95.25v-8c0-.43-.54-.37-.82-.27L52.85,95.45l-3.11,1.2c-.72.28-.08.85.49.63l21.83-8.41,3.11-1.2-.81-.27v7.94c0,.58,1.14.4,1.14-.09Z" style="fill:#293141"/><rect x="50.63" y="96.81" width="71.86" height="67.99" style="fill:#fff"/><path d="M122.69,96.58h-72c-.22,0-.77.11-.77.42v67.9c0,.12.26.12.32.12h72s.77-.08.71-.38V96.72c.06-.27-.91.29-.91.29v68l.78-.42H50.76l.33.13v-68l-.82.31h72C122.6,97.13,122.69,96.58,122.69,96.58Z" style="fill:#293141"/><polygon points="147.13 87.42 122.49 96.89 122.49 164.75 147.13 155.63 147.13 87.42" style="fill:#efefef"/><path d="M147.59,134.47V87.17c0-.4-.54-.32-.79-.23l-21.61,8.44-3.06,1.2c-.11,0-.32.18-.32.33v68c0,.4.55.32.79.23l17.19-6.36,2.49-.92c.72-.27.08-.77-.46-.56l-17.17,6.35-2.49.92.79.24v-68l-.32.34,21.55-8.42,3-1.19-.78-.23v47.29c0,.52,1.16.32,1.16-.11Z" style="fill:#293141"/><rect x="57.7" y="139.7" width="20.53" height="17.11" style="fill:#efefef"/><path d="M57.33,144.26H74.49c.38,0,1.18-.61.45-.46H57.78c-.37-.15-1.18.41-.44.46Z" style="fill:#293141"/><path d="M57.17,148.82H74.33c.38,0,1.19-.58.45-.45H57.62c-.38-.13-1.18.44-.46.45Z" style="fill:#293141"/><path d="M56.72,153.38H74.47c.45,0,1.2-.68.44-.68H57.15C56.7,152.7,56,153.38,56.72,153.38Z" style="fill:#293141"/><path d="M96.21,126.24a12.51,12.51,0,0,1-20.62.64c-.31-.39-1.35,0-1,.49a14.38,14.38,0,0,0,11.78,5.41,14.54,14.54,0,0,0,10.77-6.22c.39-.58-.64-.74-.91-.32Z" style="fill:#293141"/><path d="M67.23,126.44c0,2-1.16,3.69-2.68,3.71s-2.78-1.59-2.81-3.61,1.16-3.69,2.68-3.72S67.2,124.41,67.23,126.44Z" style="fill:#f9ab98"/><path d="M111.57,125.62c0,2-1.17,3.69-2.69,3.72s-2.77-1.6-2.81-3.62,1.17-3.69,2.68-3.72S111.53,123.6,111.57,125.62Z" style="fill:#f9ab98"/><path d="M96.37,116.92,93,119.06c-.13.08-.35.35-.09.46,1.2.45,2.43.83,3.67,1.17.36.1,1.3-.46.67-.62A35,35,0,0,1,93.8,119l-.09.46,3.35-2.15c.62-.4-.33-.58-.69-.34Z" style="fill:#293141"/><path d="M73.22,118.18l3.34,2.14c.06-.23.12-.46.18-.67a34.93,34.93,0,0,1-3.43,1.08c-.68.18-.47,1,.22.8,1.26-.34,2.49-.74,3.71-1.2.25-.09.46-.48.17-.67l-3.35-2.15c-.43-.27-1.38.32-.84.66Z" style="fill:#293141"/><path d="M104.45,78a35.25,35.25,0,0,1,25.31-19.86c11.07-2.2,23.1,1,31.07,9.12a30.37,30.37,0,0,1,8.06,15.08c.11.54,1.21.25,1.1-.29a32,32,0,0,0-20.81-23.36,37.66,37.66,0,0,0-33.56,4.54,35.25,35.25,0,0,0-12.23,14.62c-.27.59.85.62,1.06.15Z" style="fill:#293141"/><path d="M108.31,76.31A11.26,11.26,0,0,0,103.46,78l.9.12a6,6,0,0,0-1.45-4.14c-.29-.29-1.33.13-1,.44a5.67,5.67,0,0,1,1.37,3.83c0,.42.69.25.9.12a9.26,9.26,0,0,1,4-1.37c.56,0,.91-.72.13-.66Z" style="fill:#293141"/><path d="M142.55,154.61l-1.69-8.82a5.37,5.37,0,0,1,1.76-5.09l7.72-6.68a2.87,2.87,0,0,1,2.81-.54l9.63,3.35a5.39,5.39,0,0,1,3.53,4.09L168,149.8a4.86,4.86,0,0,1-1.6,4.58l-7.16,6.19a4.67,4.67,0,0,1-4.6.88l-8.87-3.08A5,5,0,0,1,142.55,154.61Z" style="fill:#f9ab98"/><path d="M142,154.55l-1.52-7.93a4.84,4.84,0,0,1,1.59-4.56l6.94-6a2.57,2.57,0,0,1,2.51-.48l8.65,3a4.84,4.84,0,0,1,3.17,3.68l1.53,8a4.35,4.35,0,0,1-1.43,4.11L157,159.9a4.21,4.21,0,0,1-4.13.79l-8-2.77A4.45,4.45,0,0,1,142,154.55Z" style="fill:#f4cac1"/><path d="M143.11,154.47c-.46-2.42-.92-4.85-1.4-7.27a9,9,0,0,1-.27-3.57,6.31,6.31,0,0,1,2.49-3.55l6.39-5.51A7,7,0,0,1,151,134a2.41,2.41,0,0,1,2.23-.07c1.2.4,2.4.83,3.6,1.25l4.23,1.47a8.73,8.73,0,0,1,3.14,1.52A6.43,6.43,0,0,1,166,142c.27,1.44.56,2.93.84,4.4.54,2.8,1.57,5.78-.93,8-2,1.75-4,3.46-6,5.19-1.46,1.24-2.85,2.19-4.9,1.55-1.12-.36-2.23-.78-3.34-1.17L147,158.35c-1.94-.67-3.42-1.76-3.9-3.89-.09-.41-1.2-.13-1.11.29.83,3.65,4.57,4.31,7.59,5.36,2.84,1,6.22,2.85,9.16,1.24a17.87,17.87,0,0,0,2.69-2.15l3.88-3.36a12.56,12.56,0,0,0,2.53-2.46,5.87,5.87,0,0,0,.58-4.51c-.52-2.69-1-5.41-1.55-8.09a5.8,5.8,0,0,0-3.78-4.27c-1-.38-2.08-.73-3.12-1.09l-4.82-1.67a7.34,7.34,0,0,0-3.24-.73,5.63,5.63,0,0,0-3,1.73L145.19,138c-1,.86-2,1.7-3,2.58a5.89,5.89,0,0,0-1.85,5.61c.53,2.87,1.1,5.72,1.65,8.58C142.07,155.16,143.18,154.89,143.11,154.47Z" style="fill:#293141"/><path d="M149.3,146.46a1.38,1.38,0,0,0-1.87.45,1.33,1.33,0,0,0-.12,1,1.4,1.4,0,0,0,1.7,1,1.35,1.35,0,0,0,.81-.61A1.38,1.38,0,0,0,149.3,146.46Z" style="fill:#293141"/><path d="M160.34,144a1.33,1.33,0,0,0-1.85.39,1.34,1.34,0,0,0,.39,1.86l.12.06h0a1.4,1.4,0,0,0,1.06.15,1.33,1.33,0,0,0,.8-.61A1.37,1.37,0,0,0,160.34,144Z" style="fill:#293141"/><path d="M152.11,151.82a1,1,0,0,0-.77,1.19.8.8,0,0,0,.09.26,4.52,4.52,0,0,0,8.49-1.67,1,1,0,0,0-.91-1.1.94.94,0,0,0-.29,0Z" style="fill:#293141"/><path d="M150.28,109.41,154,86.17a2.77,2.77,0,0,1,3.16-2.29,2.79,2.79,0,0,1,1.3.58l18.28,14.83a2.76,2.76,0,0,1,.4,3.88A2.79,2.79,0,0,1,176,104l-22,8.42a2.75,2.75,0,0,1-3.7-3Z" style="fill:#9fcded"/><path d="M150.06,107.7l3.11-19.54a2.31,2.31,0,0,1,2.65-1.93,2.29,2.29,0,0,1,1.1.49l15.37,12.47a2.32,2.32,0,0,1,.33,3.26,2.28,2.28,0,0,1-1,.69l-18.48,7.07a2.31,2.31,0,0,1-3-1.33A2.26,2.26,0,0,1,150.06,107.7Z" style="fill:#cbe7f4"/><path d="M150.42,109.26q1.31-8.17,2.6-16.34c.36-2.25.65-4.53,1.08-6.77.35-1.82,1.91-2.66,3.5-1.5.59.44,1.14.93,1.71,1.39L174.43,98.3c.45.37.92.72,1.37,1.1a2.61,2.61,0,0,1-.56,4.41c-2.08.91-4.28,1.64-6.4,2.45l-11.14,4.27-3.65,1.4c-.21.08-.42.18-.64.25-1.79.52-3.14-1.31-3-2.92,0-.35-1.06-.14-1.09.16-.26,2.51,2.08,3.86,4.31,3.14.61-.19,1.2-.45,1.79-.68l9.87-3.79,9.36-3.58a6.69,6.69,0,0,0,2.25-1.12,2.92,2.92,0,0,0-.14-4.43c-4.83-4.19-10-8.07-14.93-12.09-1.51-1.23-3.5-3.54-5.64-3.33A3.43,3.43,0,0,0,153,86.31c-.17.88-.28,1.78-.42,2.67q-1.61,10-3.18,20c0,.17-.05.34-.08.5C149.28,109.76,150.37,109.57,150.42,109.26Z" style="fill:#293141"/><path d="M162.63,100.48A2.51,2.51,0,1,1,159.39,99a2.51,2.51,0,0,1,3.24,1.44Z" style="fill:#293141"/><path d="M158.12,94.72a1.14,1.14,0,0,0-1.59-.28h0a1.12,1.12,0,0,0-.44.75,1.19,1.19,0,0,0,1,1.33,1.12,1.12,0,0,0,.83-.2,1.16,1.16,0,0,0,.23-1.6Z" style="fill:#293141"/><path d="M166.05,95.93A1.14,1.14,0,1,0,164,97a1.57,1.57,0,0,0,.19.26h0a1.21,1.21,0,0,0,.77.47,1.08,1.08,0,0,0,.83-.2,1.14,1.14,0,0,0,.24-1.59Z" style="fill:#293141"/><rect x="169.89" y="111.99" width="24.54" height="24.54" rx="1.52" transform="translate(-28.24 190.24) rotate(-51.71)" style="fill:#f7e080"/><rect x="169.35" y="113.7" width="21.41" height="21.41" rx="1.52" transform="translate(-29.15 188.64) rotate(-51.71)" style="fill:#ffeea7"/><path d="M183.31,140.08l-15-11.84a20.73,20.73,0,0,1-1.88-1.48c-1-1.06.1-2.06.76-2.89l6.93-8.79,3.49-4.41a17.55,17.55,0,0,1,1.85-2.35c.92-.81,1.68.1,2.32.6l3.65,2.88,9.46,7.47c.85.69,1.79,1.31,2.59,2s.52,1.63-.11,2.43l-12.5,15.84c-.36.45-.69,1-1.57.49-.41-.26-1.37.31-.85.64,1.39.89,2.59.15,3.46-1l2.85-3.61,8-10.14c.65-.83,1.36-1.64,2-2.51.84-1.16.35-2.21-.64-3l-8.49-6.7c-2.61-2-5.17-4.22-7.85-6.2-2.44-1.8-4.31,1.76-5.57,3.35l-8,10.12-2.63,3.33c-.78,1-1,2.12.05,3,2.41,2,5,3.94,7.49,5.91l8.8,6.95.52.41C182.85,141,183.81,140.47,183.31,140.08Z" style="fill:#293141"/><path d="M182.3,119.18a1.4,1.4,0,0,0-1.37-1.4,1.36,1.36,0,0,0-1,.43,1.44,1.44,0,0,0,0,2,1.28,1.28,0,0,0,1,.39A1.38,1.38,0,0,0,182.3,119.18Z" style="fill:#293141"/><path d="M189.38,125.71a1.37,1.37,0,1,0-2.73,0h0a1.42,1.42,0,0,0,.42,1,1.36,1.36,0,0,0,1,.39A1.39,1.39,0,0,0,189.38,125.71Z" style="fill:#293141"/><path d="M183.93,129.41a5.33,5.33,0,0,1-5.7-6.3c.07-.37-1-.19-1.1.16a5.8,5.8,0,0,0,6.63,6.69c.51-.06.94-.65.17-.55Z" style="fill:#293141"/><path d="M72.3,82.34a28.73,28.73,0,0,0-9.43-5.48c-.41-.13-1.3.46-.66.66a27.88,27.88,0,0,1,9.08,5.27c.33.27,1.37-.17,1-.46Z" style="fill:#293141"/><path d="M74.83,81.06q-1.45-4.61-2.9-9.21c-.14-.44-1.24-.14-1.1.3q1.44,4.6,2.9,9.21c.14.44,1.24.14,1.1-.3Z" style="fill:#293141"/><path d="M78.4,79.17a27.6,27.6,0,0,1,4.32-7.87c.3-.38-.8-.3-1,0a28.28,28.28,0,0,0-4.39,8c-.13.36,1,.23,1.1-.14Z" style="fill:#293141"/></svg>