<svg xmlns="http://www.w3.org/2000/svg" viewBox="0 0 240 208"><title>ideas</title><path d="M63.07,204.66c-5-1.06-64.5-10.6-60.12-80.93S12.84,32.24,36,24.5,115.41-19.86,159.56,15,251.36,81,232.46,136.6s-22,74.15-71.34,71.31S86.63,209.69,63.07,204.66Z" style="fill:#f8f8f8;"/><path d="M46,39.21h64c.32-6.14-2.73-12.28-8.17-15.14a16.57,16.57,0,0,0-17.4,1.5C80.05,21.81,75.52,18,70,16.26s-12.28-.65-15.68,4c-2.35,3.21-2.67,7.61-1.52,11.41-5,0-10,.08-14.94.36-2.84.15-6.71,1-6.85,3.82C30.81,40.1,46,39.21,46,39.21Z" style="fill:#fff;"/><path d="M182.54,44.73a5.49,5.49,0,0,0-3.84-.44c-.78.18-1.54.46-2.31.69-1.46.45-1.59.84-2.18-.44s.14-2.81-1.13-4.26a4.86,4.86,0,0,0-3.65-1.65,4.59,4.59,0,0,0-1.45.22,18.12,18.12,0,0,0-3.92-6.21c-3.65-3.51-9.23-5-14-3a14.85,14.85,0,0,0-5.52,4.09,17.23,17.23,0,0,0-2.06,3,26.76,26.76,0,0,1-1.42,3.06c-1.4-.53-2.7-1.23-4.17-1.63-2.88-.79-6-1-8.52.92a6.8,6.8,0,0,0-2.71,6.88c.38,1.46,1.07,2.53,2.55,2.56,2.08,0,4.17,0,6.26,0h51.7A11,11,0,0,0,182.54,44.73Z" style="fill:#fff;"/><path d="M209.8,67A11.33,11.33,0,0,0,206.54,57a12,12,0,0,0-12.66-2.72,13.51,13.51,0,0,0-5,3.69A16.77,16.77,0,0,0,187,60.62a24.93,24.93,0,0,1-1.27,2.77c-1.28-.48-2.45-1.11-3.78-1.48-2.6-.72-5.43-.86-7.71.84a6.11,6.11,0,0,0-2.42,6.32c.23.83.84,2.19,1.78,2.27.27,0,.55,0,.82,0h32.78c.55,0,.62-.1.95-.55A9.29,9.29,0,0,0,209.8,67Z" style="fill:#fff;"/><path d="M15.43,63a11.34,11.34,0,0,1,3.26-10,12,12,0,0,1,12.66-2.72,13.42,13.42,0,0,1,5,3.7,15.51,15.51,0,0,1,1.87,2.68,27,27,0,0,0,1.28,2.77c1.28-.48,2.45-1.11,3.78-1.48,2.6-.72,5.43-.86,7.71.84A6.11,6.11,0,0,1,53.4,65c-.23.83-.84,2.19-1.78,2.27-.27,0-.55,0-.82,0H18c-.56,0-.63-.1-1-.55A9.41,9.41,0,0,1,15.43,63Z" style="fill:#fff;"/><path d="M182,178.61a3.89,3.89,0,0,1,2,3.3c-.28,6-19.66,7.85-23.61,8.52-19.91,3.38-41.3,6.18-61.55,4.75-12.21-.85-23.84-6.56-33.13-14.35-2.36-2-9.77-7.27-9.36-11,.47-4.13,7.25-4.8,10.39-5.46,11.65-2.43,23.66-2.87,35.51-3.23a266.06,266.06,0,0,1,36.15,1.13c15,1.59,31.15,6.68,43.44,16.17Z" style="fill:#e5e5e5;"/><polygon points="64.68 113.78 139.36 102.21 139.36 161.33 64.68 172.89 64.68 113.78" style="fill:#e5e5e5;"/><path d="M64.68,113.77l74.68-11.56L127.11,88.05,54,99.61a.73.73,0,0,0-.55,1.2Z" style="fill:#fff;"/><path d="M64.64,114.2,90,110.28l40.1-6.21,9.25-1.43c.24,0,.85-.34.55-.68l-7.76-9-4-4.63c-.39-.45-.6-.74-1.21-.69-2.11.19-4.24.68-6.34,1l-12.34,2-31.66,5L55.11,99a9.14,9.14,0,0,0-1.45.24c-2,.65-.18,2.4.52,3.22l9.22,10.65.77.9c.35.4,1.41-.06,1-.51l-5.9-6.82-3.88-4.49c-.22-.25-1.86-1.7-1.43-2.17.12-.13.79-.12,1-.15l2.34-.37,7.95-1.26,24-3.8,24.63-3.9,8.74-1.38,2.78-.44a6.36,6.36,0,0,0,1.46-.23.69.69,0,0,1,.2,0l-.47-.18,12.25,14.16.56-.68-25.33,3.92L74,111.92l-9.25,1.43C64.11,113.44,63.88,114.32,64.64,114.2Z" style="fill:#232937;"/><polygon points="139.24 102.21 171.99 122.02 171.99 181.14 139.24 161.63 139.24 102.21" style="fill:#f6f6f6;"/><path d="M139.79,161.48V104.87c0-.3-1.11-.11-1.11.3v56.61c0,.31,1.11.11,1.11-.3Z" style="fill:#232937;"/><path d="M139.23,102.21,172,122l10.46-10.19a1.91,1.91,0,0,0-.35-3L152.73,91.33a1.9,1.9,0,0,0-2.29.25Z" style="fill:#f1f1f1;"/><path d="M139.23,102.21,172,122l7.46-7.33a3.14,3.14,0,0,0-.6-4.94l-21-12.49A12.73,12.73,0,0,0,142.62,99Z" style="fill:#fff;"/><path d="M139.42,102.59l28.67,17.34,4.09,2.47s.15.1.19,0c3.44-3.34,6.95-6.61,10.31-10,1.53-1.56.34-3.31-1.2-4.24l-4.85-2.88-16.39-9.76-6.14-3.66c-1.27-.76-2.64-1.89-4.06-.72-2,1.65-3.8,3.61-5.67,5.38l-5.52,5.24c-.17.16.61,1,.77.86l8.1-7.68c1-1,2-2,3.09-2.93s2.17-.29,3.22.34l22.42,13.36,4.33,2.57c.81.48,1.95.83,1.83,2s-2.09,2.63-2.94,3.46l-5.23,5.09-2.05,2c-.14.14-1,.81-.6.82-.44,0-1.34-.81-1.7-1l-10-6-20.64-12.48-.41-.25C138.59,101.55,139.23,102.47,139.42,102.59Z" style="fill:#232937;"/><path d="M142.79,124.9c-1.36.87-3,3.93-3,3.93a20.69,20.69,0,0,0-1.93-5,18.68,18.68,0,0,0-3.89-3.32,15.12,15.12,0,0,0,4.39-1.29,21.45,21.45,0,0,0,3.51-3.77,15.68,15.68,0,0,0,1.74,4.4,23.75,23.75,0,0,0,4,3.45A18.37,18.37,0,0,0,142.79,124.9Z" style="fill:#fff;"/><path d="M142.43,124.71a12.11,12.11,0,0,0-3.21,4.09l1.08-.12a17.11,17.11,0,0,0-1.79-4.81,13.55,13.55,0,0,0-4.15-3.67l-.51.62a11.7,11.7,0,0,0,5-1.54,17.06,17.06,0,0,0,3.52-3.82l-1.08.12a11.35,11.35,0,0,0,2,4.8,20.84,20.84,0,0,0,3.77,3.18l.36-.59a16.43,16.43,0,0,0-5,1.74c-.64.39.32.61.71.38a14.52,14.52,0,0,1,4.46-1.51c.24,0,.69-.35.36-.59a19.31,19.31,0,0,1-3.62-3.06,11.25,11.25,0,0,1-2-4.65c-.1-.44-.92-.08-1.08.13a19.75,19.75,0,0,1-2.91,3.28,9,9,0,0,1-4.4,1.46c-.23,0-.92.35-.51.62a12.87,12.87,0,0,1,4,3.55,17.35,17.35,0,0,1,1.7,4.66c.11.41.95.12,1.08-.13a11.12,11.12,0,0,1,2.88-3.76C143.76,124.66,142.81,124.45,142.43,124.71Z" style="fill:#232937;"/><path d="M138.71,102.41l28.66,17.34,4.09,2.47c.29.17,1.23-.28,1-.39l-28.66-17.34L139.76,102c-.28-.17-1.23.29-1,.4Z" style="fill:#232937;"/><polygon points="97.44 133.59 172.38 122.02 172.38 181.14 97.44 192.71 97.44 133.59" style="fill:#f1f1f1;"/><path d="M97.44,134.81c2.77,4.14,7.23,12.32,9.34,15.8,1.32,2.17,5.08,2,8.1,1.46,10.36-2,20.63-3.66,31-5.34l19.85-3.2c.37-.05,6.64-.9,6.64-1.07v38.68L97.44,192.71Z" style="fill:#fff;"/><polygon points="97.49 192.58 64.18 172.69 64.18 113.71 97.49 133.6 97.49 192.58" style="fill:#e5e5e5;"/><path d="M64.68,135.69l18.61,12.07A5.77,5.77,0,0,0,90,145.88l7.4-9.84v56.67L64.68,173.2Z" style="fill:#f1f1f1;"/><path d="M96.88,136.26v54.39c0,.24,1.12.06,1.12-.3V136c0-.23-1.12-.06-1.12.3Z" style="fill:#232937;"/><path d="M64.12,132.19v40.46a1.32,1.32,0,0,0,.14.88,5.23,5.23,0,0,0,1.07.64L81,183.51l15.18,9.05a2.15,2.15,0,0,0,1.65.48l3.87-.59,38.6-6,31.49-4.86.51-.08c.22,0,.62-.16.62-.45V137.9c0-.58-1.13-.42-1.13.09v43.19l.61-.45L146,184.81l-40.64,6.27-5.72.88a6.69,6.69,0,0,0-2.16.34c.27-.19.52.24.17,0a7,7,0,0,0-.65-.39l-2.47-1.47-8-4.75L68.83,175.09c-1.22-.73-2.43-1.58-3.7-2.21.39.19,0,.39.12.11a2.15,2.15,0,0,0,0-.62V132.11c0-.59-1.13-.43-1.13.08Z" style="fill:#232937;"/><path d="M97.44,133.59,172.38,122l11.41,13.19a.59.59,0,0,1-.45,1L110,148.91a.58.58,0,0,1-.44-.21Z" style="fill:#f1f1f1;"/><path d="M97.44,133.59,172.38,122l4.93,5.74a4.38,4.38,0,0,1-2.57,7.18l-63.31,11a6.23,6.23,0,0,1-5.94-2.25Z" style="fill:#fff;"/><path d="M97.37,134,122.71,130l40.36-6.23,9.25-1.43-.45-.13,7.76,9c1.14,1.32,2.47,2.6,3.48,4,.45.62.24.58-.36.68L163,139.36l-31.26,5.42L111,148.37c-.35.07-.81.2-1,.08a4.75,4.75,0,0,1-.83-1l-1.78-2.22-8.8-11-.64-.79c-.28-.35-1.35.06-1,.46l5.68,7.11,4.12,5.16a33,33,0,0,0,2.22,2.78c.75.75,2.19.18,3.1,0l7.5-1.3,24.55-4.25,25.79-4.47c4.43-.77,8.87-1.51,13.29-2.31.9-.16,1.7-.74,1.06-1.67a37.67,37.67,0,0,0-2.62-3l-8-9.23c-.38-.44-.63-.95-1.24-1a9.07,9.07,0,0,0-1.27.2l-6.62,1-23.71,3.66-26.53,4.09-16,2.47-.78.12C96.93,133.32,96.61,134.07,97.37,134Z" style="fill:#232937;"/><path d="M64.68,113.77l32.76,19.82L87.76,144.4a3.68,3.68,0,0,1-4.52.77c-13.87-7.72-29.45-18.75-29.45-18.75a.92.92,0,0,1-.33-1.52Z" style="fill:#f1f1f1;"/><path d="M64.68,113.77l32.76,19.82-8.26,8.78a4.15,4.15,0,0,1-5,.81,275.66,275.66,0,0,1-26.27-16.69,3.62,3.62,0,0,1-.46-5.52Z" style="fill:#fff;"/><path d="M64.26,114.11l28.66,17.34L97,133.92l0-.51q-3.84,4.07-7.66,8.14c-.91,1-1.78,2.06-2.77,2.95s-2.19.43-3.3-.18q-1.44-.8-2.85-1.62-2.79-1.59-5.53-3.26Q65.94,134,57.31,128.2a21.88,21.88,0,0,1-3.09-2.11c-.34-.33-.54-.57-.22-1.07a2.5,2.5,0,0,1,.43-.43l1.74-1.73,9-8.91c.49-.49-.57-.72-1-.35L55.71,122l-2.07,2.06a4.28,4.28,0,0,0-.88,1c-.67,1.33,1.44,2.29,2.32,2.89q8.67,5.88,17.6,11.36c1.94,1.18,3.88,2.35,5.84,3.49l2.86,1.63a13.17,13.17,0,0,0,2.71,1.41c2,.57,3.27-.84,4.49-2.14l9.33-9.92a.34.34,0,0,0,0-.51L69.2,115.91l-4.09-2.47C64.67,113.17,63.71,113.77,64.26,114.11Z" style="fill:#232937;"/><path d="M91.42,149.14v10c0,.6,1.14.45,1.14-.07V149.06c0-.6-1.14-.45-1.14.08Z" style="fill:#232937;"/><path d="M91.43,161.33v1.59c0,.46,1.12.23,1.12-.14V161.2c0-.47-1.12-.24-1.12.13Z" style="fill:#232937;"/><path d="M91.43,164.74v4.13c0,.56,1.13.38,1.13-.1v-4.12c0-.57-1.13-.39-1.13.09Z" style="fill:#232937;"/><path d="M151.34,161.09a11.34,11.34,0,0,1-6.57,5.63A10.61,10.61,0,0,1,134.62,164c-.28-.28-1.4-.1-1,.29a12.34,12.34,0,0,0,10.88,3.23,12,12,0,0,0,8-6.21c.22-.42-.92-.58-1.11-.21Z" style="fill:#232937;"/><path d="M135.66,157.76a3.07,3.07,0,0,1-1,1.39,1.85,1.85,0,0,1-2.44-.65c-.26-.31-1.37-.15-1,.29a3.25,3.25,0,0,0,5.6-.82c.18-.46-1-.6-1.11-.21Z" style="fill:#232937;"/><path d="M153.35,154.64a3.08,3.08,0,0,1-1,1.39,1.87,1.87,0,0,1-2.45-.65c-.25-.31-1.37-.15-1,.28a3.25,3.25,0,0,0,5.6-.81c.18-.46-1-.6-1.11-.21Z" style="fill:#232937;"/><path d="M96.18,92c-.71,1.44-.57,4.94-.57,4.94a20.52,20.52,0,0,0-4.25-3.29,18.78,18.78,0,0,0-5-.84,15,15,0,0,0,3.1-3.37,21.64,21.64,0,0,0,1-5,15.75,15.75,0,0,0,3.76,2.86,23.33,23.33,0,0,0,5.17.91A18.76,18.76,0,0,0,96.18,92Z" style="fill:#fff;"/><path d="M95.66,92a11.77,11.77,0,0,0-.61,5.11l1.07-.38a15.78,15.78,0,0,0-4.32-3.35,15,15,0,0,0-5.28-.89l.24.45a11,11,0,0,0,3.29-3.72,17.06,17.06,0,0,0,1-4.86l-1.08.28a11.51,11.51,0,0,0,4.34,3.11,21.23,21.23,0,0,0,4.9.78l-.24-.45A15.6,15.6,0,0,0,95.66,92c-.26.49.86.4,1,.05a14.79,14.79,0,0,1,3.13-3.75c.25-.24,0-.43-.24-.45a21.49,21.49,0,0,1-4.43-.68,10.49,10.49,0,0,1-4.19-3c-.24-.24-1-.09-1.08.29a20.5,20.5,0,0,1-.82,4.46c-.53,1.55-2,2.76-3.22,3.78-.27.22,0,.44.24.45a12.83,12.83,0,0,1,5,.88,16,16,0,0,1,4,3.13c.28.28,1.09.06,1.08-.37A11.09,11.09,0,0,1,96.71,92C96.94,91.52,95.82,91.62,95.66,92Z" style="fill:#232937;"/><path d="M181,100.65c-1.6.12-4.54,2-4.54,2a20.34,20.34,0,0,0,.67-5.33,19,19,0,0,0-1.86-4.77,14.75,14.75,0,0,0,4.47.94,21.75,21.75,0,0,0,4.88-1.66,15.51,15.51,0,0,0-.54,4.69,23.29,23.29,0,0,0,1.86,4.91A18.59,18.59,0,0,0,181,100.65Z" style="fill:#fff;"/><path d="M181,100.31a12.47,12.47,0,0,0-5,2.18l.91.12a16.77,16.77,0,0,0,.69-5.07,13.11,13.11,0,0,0-1.88-5.12l-.9.47a10.93,10.93,0,0,0,5.06.92,18,18,0,0,0,4.86-1.71l-.79-.19a11.6,11.6,0,0,0-.47,5.19,19.84,19.84,0,0,0,1.79,4.5l.89-.47a16.16,16.16,0,0,0-5.2-.82c-.58,0-.91.71-.14.67a14.86,14.86,0,0,1,4.67.79c.2.06,1.07-.12.9-.47A21.35,21.35,0,0,1,184.73,97a10.79,10.79,0,0,1,.41-5.25c.1-.38-.63-.26-.79-.19a17,17,0,0,1-4.22,1.54,9.85,9.85,0,0,1-4.57-.88c-.19-.07-1.07.14-.89.47a13.82,13.82,0,0,1,1.87,4.89,15.76,15.76,0,0,1-.68,5.13c-.1.44.76.22.92.12a10.67,10.67,0,0,1,4.11-1.88C181.45,100.92,181.8,100.22,181,100.31Z" style="fill:#232937;"/><path d="M128.87,92.62v10.27a8.66,8.66,0,0,1-8.77,8.57h0a9.52,9.52,0,0,1-9.65-9.37V92.65Z" style="fill:#fff;"/><path d="M109.89,92.8q0,3.93,0,7.88a16.52,16.52,0,0,0,.26,3.71,9.59,9.59,0,0,0,3.64,5.4,10.38,10.38,0,0,0,11.78.16,8.88,8.88,0,0,0,3.57-5,13.22,13.22,0,0,0,.29-3.55c0-3,0-6,0-9,0-.23-1.12-.06-1.12.3,0,2.28,0,4.55,0,6.83,0,2.93.24,5.84-1.62,8.35-3,4-8.75,4.14-12.44,1-2.61-2.24-3.23-5.21-3.24-8.47,0-2.65,0-5.31,0-8,0-.23-1.12-.06-1.12.3Z" style="fill:#232937;"/><path d="M110.13,96.27c4.22,2.25,9,3.51,13.77,2.53a12.65,12.65,0,0,0,5.35-2.29c.59-.47-.29-.93-.75-.56a11.21,11.21,0,0,1-4.59,2c-4.54,1-9.14-.31-13.14-2.46-.49-.26-1.27.46-.64.8Z" style="fill:#232937;"/><path d="M110,100.19c6,3,13.58,4.22,19.22-.31.59-.47-.31-.85-.74-.5-5.18,4.15-12.1,3-17.62.17-.43-.22-1.41.36-.86.64Z" style="fill:#232937;"/><path d="M109.94,103.47c3.13,2.46,6.82,4.39,10.9,4a18.11,18.11,0,0,0,8-3.14c.63-.4-.36-.45-.67-.26A15.73,15.73,0,0,1,121,107c-3.76.28-7.19-1.67-10.05-3.91-.28-.21-1.29.22-1,.41Z" style="fill:#232937;"/><path d="M129.49,92.74c-7.23,2.43-9.82,2.5-19.82,0-.32-.08,0-1.3,0-1.3a15.25,15.25,0,0,0-5.17-11.35l-.61-.51a22.53,22.53,0,0,1-7.64-16.76c0-12.51,10.41-22.71,23.24-22.73s23.3,10.14,23.32,22.65a22.48,22.48,0,0,1-7.57,16.77l-.64.55a15.25,15.25,0,0,0-5.12,11.34S129.8,92.63,129.49,92.74Z" style="fill:#ffe27a;"/><path d="M130.26,92.73c-6.8,2.44-9.25,2.51-18.67,0-.29-.07,0-1.3,0-1.3a15.64,15.64,0,0,0-4.87-11.34l-.57-.51A23.13,23.13,0,0,1,99,62.84c0-12.51,9.8-22.7,21.89-22.73s21.95,10.15,22,22.66a23.1,23.1,0,0,1-7.13,16.77l-.61.55a15.63,15.63,0,0,0-4.81,11.34S130.55,92.63,130.26,92.73Z" style="fill:#ffefa6;"/><path d="M129.29,92.58a30.47,30.47,0,0,1-6.83,1.69,25.22,25.22,0,0,1-6.93-.51c-1.37-.27-2.74-.58-4.11-.91-.29-.07-1.15-.15-1.32-.43s0-.53.05-.73a5.56,5.56,0,0,0,.06-1.09,15.21,15.21,0,0,0-2.75-7.94c-1.38-2-3.3-3.31-4.89-5.08a22.73,22.73,0,0,1-4.44-7.41,22.16,22.16,0,0,1,.35-15.89,22.74,22.74,0,0,1,25-13.52A23,23,0,0,1,142.16,61a22.43,22.43,0,0,1-6.61,17.79c-1.93,1.9-3.82,3.54-5.05,6a15.21,15.21,0,0,0-1.41,4.5,9.48,9.48,0,0,0-.16,2.25c0,.29.32.94,0,1.18s.8.14,1-.05c.44-.4,0-1.62.06-2.16a15,15,0,0,1,1-4.73c1.09-2.78,2.95-4.69,5.07-6.68A22.75,22.75,0,0,0,143.36,63c.16-10.65-7.58-20-17.84-22.46A24.75,24.75,0,0,0,99.1,51.1a22.2,22.2,0,0,0,.27,24.07A36.59,36.59,0,0,0,104.64,81a15.24,15.24,0,0,1,4.26,8.18,11.64,11.64,0,0,1,.2,2.13,9.41,9.41,0,0,0-.13,1.28c.07.47.22.45.69.57.94.24,1.89.45,2.84.67,4.58,1,9,1.46,13.54.24,1.23-.33,2.44-.72,3.65-1.13C130.44,92.64,129.74,92.43,129.29,92.58Z" style="fill:#232937;"/><path d="M109.55,62.06c2.89,2.79,6.59,4.66,9.49,7.44.18.18.89,0,1-.23,2.28-2.76,5.47-4.67,7.74-7.44.23-.27-.83-.13-1,.08-2.28,2.77-5.46,4.68-7.74,7.44l1-.23c-2.89-2.78-6.59-4.65-9.49-7.44-.21-.2-1.23.22-1,.38Z" style="fill:#232937;"/><path d="M120.21,93.09c.15-4-.14-7.93-.14-11.9s.06-8,.06-11.93c0-.54-1.13-.34-1.13.11,0,4,0,7.95,0,11.93s.29,7.93.14,11.9c0,.53,1.1.34,1.12-.11Z" style="fill:#232937;"/><path d="M109.34,60.53a3.37,3.37,0,0,1-.54-2.34c0-.61.39-.78,1-.5.66-.25.93-.1.82.44l-.8.27a.67.67,0,0,1-.13-.81,1.66,1.66,0,0,1,1.82-1,2.31,2.31,0,0,1,.86.46,2.15,2.15,0,0,1,.79,1.52l.46-.3c-2-.3-1.29-3.47.42-2.6a1.57,1.57,0,0,1,.61,2l.64-.17c-.76-1-.34-3.56,1.64-2.42a1.7,1.7,0,0,1,.39,2.43l.65-.07c-.1-.9.2-1.06,1.06-1.3s1.07-.34,1.41.47a1.66,1.66,0,0,1-.18,1.61l.63-.12c-.72-.78-.41-2.9,1.13-2a1.27,1.27,0,0,1-.05,2.22l.47.13a1.41,1.41,0,0,1,.65-1.25l1.49.14a1.07,1.07,0,0,1,.26.4,1.59,1.59,0,0,1-.38,1.92l.61,0c0-1.11,1.23-2.65,2.53-1.41a1.52,1.52,0,0,1,0,2.09c-.26.33.38.36.55.15a1.78,1.78,0,0,0-1-3,2.36,2.36,0,0,0-2.81,2.26c0,.31.49.15.61,0a1.87,1.87,0,0,0-.47-3.16,2.15,2.15,0,0,0-2.77,1.87c0,.23.34.21.48.13,1.45-.79,1.43-3-.45-3.18a1.74,1.74,0,0,0-1.53,2.91c.16.17.51,0,.62-.12a1.91,1.91,0,0,0-1.08-3,2.15,2.15,0,0,0-2.51,2.32c0,.28.57,0,.66-.07a2,2,0,0,0-1.88-3.09,2,2,0,0,0-1.41,3.31c.16.21.57,0,.65-.17a1.82,1.82,0,0,0-2.6-2.23,1.76,1.76,0,0,0,.65,3.36c.18,0,.48-.1.46-.31a2.68,2.68,0,0,0-3.56-2.15,1.92,1.92,0,0,0-1.35,1.6,1.17,1.17,0,1,0,1.1-1.14,1.86,1.86,0,0,0-1.65.88c-.66,1-.19,2.23.34,3.19.12.22.77,0,.61-.28Z" style="fill:#232937;"/><path d="M81.52,25.65a50.4,50.4,0,0,1,9.63,9.67c.2.27,1.19-.19,1.11-.3a50.51,50.51,0,0,0-9.68-9.75c-.24-.18-1.21.26-1.06.38Z" style="fill:#232937;"/><path d="M102.83,13.64a50.75,50.75,0,0,1,3.65,13.2c.06.48,1.18.2,1.11-.3A50.34,50.34,0,0,0,104,13.34c-.2-.47-1.31-.15-1.12.3Z" style="fill:#232937;"/><path d="M129.51,13.46a51.17,51.17,0,0,0-3.68,13.29c-.06.47,1.07.28,1.13-.13a49.74,49.74,0,0,1,3.6-13.11c.22-.52-.89-.41-1.05,0Z" style="fill:#232937;"/><path d="M154.67,23.7a50.55,50.55,0,0,0-11.14,8.13c-.22.21.81.09,1-.1a50.09,50.09,0,0,1,11-8c.46-.25-.65-.12-.85,0Z" style="fill:#232937;"/><path d="M87.55,44.53a50.86,50.86,0,0,0-13.63-2.12c-.24,0-1.27.44-.73.45A50.13,50.13,0,0,1,86.63,45c.25.07,1.23-.34.92-.43Z" style="fill:#232937;"/><path d="M161.5,40.36a52.06,52.06,0,0,0-13.77,2.49c-.65.22-.51.81.16.59A49.29,49.29,0,0,1,161.07,41c.43,0,1.18-.69.43-.66Z" style="fill:#232937;"/><path d="M81.78,170.12l-9.17-5.27c-.42-.24-1.4.33-.87.63l9.17,5.28c.42.24,1.4-.33.87-.64Z" style="fill:#d1d1d1;"/><path d="M81.79,166.6l-9.13-5.3c-.33-.2-1.35.28-.88.55l9.12,5.3c.33.2,1.36-.28.89-.55Z" style="fill:#d1d1d1;"/><path d="M81.79,163.12l-9.08-5.33c-.3-.17-1.33.27-.9.52l9.09,5.33c.29.18,1.33-.26.89-.52Z" style="fill:#d1d1d1;"/><path d="M81.77,173.59l-2-1.17a.73.73,0,0,0-.81.06c-.17.14-.3.47,0,.61l2,1.18a.71.71,0,0,0,.8-.06c.18-.14.3-.47,0-.62Z" style="fill:#d1d1d1;"/><path d="M78.24,171.62l-2-1.19c-.29-.16-1.33.27-.9.51l2,1.19c.29.16,1.32-.27.9-.51Z" style="fill:#d1d1d1;"/><path d="M74.64,169.51l-2.06-1.19c-.34-.2-1.36.29-.88.56l2.06,1.2c.34.2,1.36-.29.88-.57Z" style="fill:#d1d1d1;"/><path d="M59.62,86.72a3.48,3.48,0,0,1-1.79-.9,5.25,5.25,0,0,1-.45-6.24,7.4,7.4,0,0,1,4.91-3.43,14.2,14.2,0,0,0-1.43-2.21,1.74,1.74,0,0,1,2.72-2.16,19,19,0,0,1,2.78,5,17.21,17.21,0,0,1,4.31,2.45A1.74,1.74,0,0,1,68.58,82a16.55,16.55,0,0,0-2.08-1.35,9.22,9.22,0,0,1-3.77,5.31A4.28,4.28,0,0,1,59.62,86.72Zm3.58-7.18a3.69,3.69,0,0,0-2.84,1.82,2.09,2.09,0,0,0-.14,1.94,1.63,1.63,0,0,0,.64-.29A5.83,5.83,0,0,0,63.2,79.54Z" style="fill:#9af8b9;"/><path d="M67.35,77.69a19,19,0,0,1,1.69,1c.56.37,1.41.8,1.66,1.47s0,1.71-.89,1.79c-.68.06-1.52-.8-2-1.14s-1.39.29-.87.62c.86.55,1.6,1.32,2.68,1.29a2.47,2.47,0,0,0,2.11-1.24c1.17-2.18-2-3.62-3.46-4.39-.41-.21-1.4.34-.87.62Z" style="fill:#232937;"/><path d="M61.44,79.68c-1.13.72-2.64,2.43-1.73,3.87.12.19.43.19.62.14a4.82,4.82,0,0,0,2.93-2.76,6.16,6.16,0,0,0-.51-5,22.45,22.45,0,0,0-1.33-2.14c-.49-.82-.46-2.46.92-2.22.91.16,1.6,1.63,2,2.35A10.16,10.16,0,0,1,65.7,77a8.11,8.11,0,0,1-1.11,6.51c-1.13,1.59-3.27,3.51-5.36,2.63-1.79-.74-2.32-3-2-4.7a6.55,6.55,0,0,1,4.12-4.63c.71-.29.09-.92-.5-.68-3.14,1.28-5.75,4.69-4.59,8.2s4.94,3.41,7.42,1.46a8.88,8.88,0,0,0,2.73-10.35,15.66,15.66,0,0,0-1.33-2.49,5.21,5.21,0,0,0-1.67-2,2.53,2.53,0,0,0-3.06.67c-1.32,1.69.79,3.46,1.44,4.94a6.27,6.27,0,0,1,.62,3.4,3.75,3.75,0,0,1-2.31,2.91l.62.15c-.67-1.07.67-2.33,1.46-2.83.63-.41-.28-.83-.75-.54Z" style="fill:#232937;"/><path d="M159.81,83.73A5.21,5.21,0,0,1,159,84a4.63,4.63,0,0,1-5.57-2.65,9.21,9.21,0,0,1-.82-3.3c-.94.82-2.14,2.4-2.19,3.32,0,.15,0,.17.08.21a1.74,1.74,0,1,1-2.24,2.66,3.65,3.65,0,0,1-1.3-3c.12-2.68,2.8-5.43,4-6.28A7.24,7.24,0,0,1,153,74a14.35,14.35,0,0,1,1.72-3.85c2.12-3.33,5.19-5.24,8.42-5.23a1.74,1.74,0,1,1,0,3.47c-2,0-4,1.35-5.48,3.62a11.43,11.43,0,0,0-.84,1.58,8.82,8.82,0,0,1,3.08.74,5,5,0,0,1,3,4.11A5.29,5.29,0,0,1,159.81,83.73ZM156,77.05a6.14,6.14,0,0,0,.51,2.86,1.21,1.21,0,0,0,1.52.78,1.86,1.86,0,0,0,1.41-1.93,1.48,1.48,0,0,0-1-1.28A5.84,5.84,0,0,0,156,77.05Z" style="fill:#d5f2f8;"/><path d="M151,79.12c-.54.72-1.4,1.77-1.07,2.71.11.34.5.55.57,1,.12.76-.42,1.7-1.41,1.4a2.84,2.84,0,0,1-1.51-2.07c-.59-2.75,2-6,4.25-7.23.66-.37.06-1-.49-.65-2.8,1.58-6.35,5.87-4.48,9.22.8,1.42,2.57,2.2,4,1.06a2.15,2.15,0,0,0,.8-2c-.08-.43-.39-.66-.53-1-.25-.67.44-1.51.84-2s-.63-.72-.93-.32Z" style="fill:#232937;"/><path d="M157.62,74c2.54.51,4.72,2.16,4.78,4.94s-2.42,5.48-5.32,4.89c-2.61-.53-3.87-3.48-3.92-5.9a14.44,14.44,0,0,1,2.11-7.8,10.38,10.38,0,0,1,5.81-4.69c1.25-.34,3.23-.48,3.23,1.32,0,1.53-1.78,1.3-2.85,1.67a8.57,8.57,0,0,0-4.55,4c-1.11,2-1.92,5-1.07,7.24.57,1.53,2.17,1.71,3.4.7a2,2,0,0,0,.73-2.14c-.35-1-1.6-1.27-2.5-1.42-.32,0-1.31.46-.7.56s1.79.35,2.08,1.16a1.58,1.58,0,0,1-.49,1.7c-1.59,1-1.76-2.66-1.7-3.37.27-3,1.68-6.3,4.47-7.72,1.38-.71,5-.38,4.26-3.1-.58-2.12-3.55-1.41-5-.91A11.45,11.45,0,0,0,155.1,69a14.55,14.55,0,0,0-2.93,7.68c-.3,2.37.15,5.19,2.11,6.79a5.53,5.53,0,0,0,5.74.51,5.67,5.67,0,0,0,3.49-5.27c-.08-3-2.5-4.66-5.19-5.2-.32-.06-1.31.44-.7.56Z" style="fill:#232937;"/><path d="M87.51,117.71a6.73,6.73,0,0,1-.21-.86,4.63,4.63,0,0,1,3.23-5.26,9.15,9.15,0,0,1,3.37-.46c-.72-1-2.16-2.39-3.07-2.53-.15,0-.17,0-.22.05a1.73,1.73,0,0,1-2.4-2.5,3.65,3.65,0,0,1,3.15-1c2.65.41,5.1,3.37,5.81,4.66a7.18,7.18,0,0,1,.74,2.18,14,14,0,0,1,3.64,2.12c3.09,2.46,4.65,5.71,4.3,8.92a1.74,1.74,0,1,1-3.45-.38c.22-2-.91-4.15-3-5.83a10.48,10.48,0,0,0-1.49-1,8.71,8.71,0,0,1-1.05,3,5,5,0,0,1-4.41,2.56A5.31,5.31,0,0,1,87.51,117.71Zm7.06-3a6.31,6.31,0,0,0-2.9.2,1.22,1.22,0,0,0-.94,1.44,1.86,1.86,0,0,0,1.77,1.6,1.48,1.48,0,0,0,1.38-.88A5.77,5.77,0,0,0,94.57,114.67Z" style="fill:#d5f2f8;"/><path d="M93.35,109.69c-.81-.75-1.71-1.54-2.87-1.25-.69.18-1.17.62-1.8,0a1.73,1.73,0,0,1,.69-2.75c2.89-1.47,6.56,2.69,7.56,5,.13.31,1.22,0,1.12-.3-1.31-3-4.93-6.32-8.45-5.28-1.39.41-3.25,1.8-2.2,3.43.9,1.38,2.62.89,3.72.13l-.79.21c.74,0,1.47.78,2,1.24.23.22,1.26-.19,1-.4Z" style="fill:#232937;"/><path d="M97.09,117c-.9,2.83-3.44,5-6.48,3.53A5.13,5.13,0,0,1,88,114.65c.93-3.07,4.63-3.47,7.29-2.82a13.84,13.84,0,0,1,6.91,3.56,10.09,10.09,0,0,1,3.12,6.21,3.94,3.94,0,0,1-.16,2l-.6.29a.68.68,0,0,1-1.16-.06,1.5,1.5,0,0,1-.41-.94,9,9,0,0,0-.51-3.08,9.23,9.23,0,0,0-4.59-4.44c-1.94-.89-4.33-1.59-6.42-.8a1.85,1.85,0,0,0-.27,3.41c1.88,1.14,3.3-.63,3.76-2.28.14-.5-1-.36-1.13.1-.26.94-1,2.51-2.12,1.26-.42-.48-.67-1.36,0-1.78,1.32-.89,3.71,0,5,.56,2.53,1,5.14,3.42,5.2,6.35,0,.94,0,1.76.8,2.38a2.46,2.46,0,0,0,2.67,0c1.78-1.07,1.19-3.91.61-5.52-1.75-4.84-6.87-7.91-11.85-8.32-2.21-.18-4.85.47-6.31,2.25a5.2,5.2,0,0,0-.44,5.74,5.75,5.75,0,0,0,6,2.94c2.57-.41,4.15-2.43,4.89-4.8.15-.48-1-.34-1.12.1Z" style="fill:#232937;"/><path d="M155.52,104.15,151,100.27a.69.69,0,0,1-.07-1l6.72-7.72a.69.69,0,0,1,.94-.08l4.62,3.76a.68.68,0,0,1,.09,1l-6.86,7.84A.67.67,0,0,1,155.52,104.15Z" style="fill:#fff9c1;"/><path d="M161.79,97.35c-1.46,1.69-2.93,3.37-4.4,5.06-.26.3-1.11,1.5-1.38,1.48s-.82-.7-1-.84l-1.66-1.44c-.44-.38-2.2-1.43-1.93-2.21.22-.62,1.2-1.38,1.62-1.86l2.83-3.25a16.3,16.3,0,0,1,2-2.34c.33-.25,0-.2.39,0a9.11,9.11,0,0,1,1.47,1.24l2.71,2.28c.31.27,1.36-.17,1-.45l-2.87-2.42c-.77-.65-1.71-1.86-2.85-1.44-.74.27-1.28,1.16-1.77,1.72l-3.27,3.76c-.73.83-1.55,1.64-2.21,2.53s.14,1.49.83,2.09c1.14,1,2.24,2,3.41,3a1.58,1.58,0,0,0,2.31-.21c2-2,3.73-4.29,5.59-6.42.44-.5-.64-.52-.91-.22Z" style="fill:#232937;"/><path d="M118.62,125.37l-4.85,1.7a.63.63,0,0,1-.78-.45L109.63,117a.65.65,0,0,1,.31-.83l4.81-1.88a.63.63,0,0,1,.8.44l3.41,9.84A.65.65,0,0,1,118.62,125.37Z" style="fill:#fff9c1;"/><path d="M115.51,116.39l2.1,6a15.66,15.66,0,0,1,.78,2.24c.11.61-.18.58-.66.75l-1.85.65-1.71.6c-.57.2-.49.34-.63-.22-.2-.75-.52-1.49-.78-2.23l-2.4-6.92c-.08-.22-.33-.76-.18-1s1.13-.41,1.39-.51l3.26-1.2c.74-.27.06-.55-.42-.38L111,115.51c-.8.29-2.08.51-1.88,1.62a18.06,18.06,0,0,0,.88,2.53l1.56,4.48a21.73,21.73,0,0,0,.9,2.61c.52,1,1.57.5,2.4.21,1.27-.44,2.58-.83,3.83-1.34.9-.38,1-.9.69-1.74-.9-2.6-1.81-5.19-2.71-7.79-.12-.34-1.23,0-1.12.3Z" style="fill:#232937;"/><path d="M76.27,100.54,72.47,104a.64.64,0,0,1-.9-.1L64.7,96.33a.63.63,0,0,1,0-.88l3.68-3.62a.64.64,0,0,1,.91.09l7,7.73A.63.63,0,0,1,76.27,100.54Z" style="fill:#fff9c1;"/><path d="M69.82,93.35l4.3,4.74a10.61,10.61,0,0,1,1.6,1.76c.46.87-1.3,1.92-1.88,2.44l-1.34,1.23c-.06,0-.29.35-.39.36s.2,0,0-.2c-.55-.56-1.06-1.16-1.58-1.74l-4.93-5.43c-.25-.27-.62-.59-.44-1s.81-.76,1.08-1l2.53-2.38c.45-.43-.65-.35-.88-.13l-2.68,2.53c-.61.57-1.6,1.15-1,2.06a19.8,19.8,0,0,0,1.85,2l3.19,3.52a17.77,17.77,0,0,0,1.8,2c.86.7,1.72.09,2.39-.52,1-.94,2.09-1.85,3.08-2.82.69-.66.41-1.16-.15-1.77l-5.5-6.06c-.23-.25-1.29.14-1.05.41Z" style="fill:#232937;"/><circle cx="133.89" cy="110.8" r="3.12" style="fill:#ffcac1;"/><path d="M133.68,108c2.61.13,4,4,1.4,5.28a2.58,2.58,0,0,1-3.38-1.21,2.91,2.91,0,0,1,.58-3.52c.48-.46-.61-.52-.91-.23-2.84,2.79.25,7,3.83,5.65a3.43,3.43,0,0,0-1.1-6.66c-.46,0-1.17.65-.42.69Z" style="fill:#232937;"/><circle cx="48.37" cy="93.52" r="3.12" transform="translate(-33.18 26.93) rotate(-23.42)" style="fill:#ffcac1;"/><path d="M48.18,90.79c2.59.13,4,3.9,1.37,5.19a2.57,2.57,0,0,1-3.37-1.17,2.85,2.85,0,0,1,.59-3.48c.49-.48-.59-.63-.93-.3a3.52,3.52,0,1,0,2.73-1c-.52,0-1.15.74-.39.78Z" style="fill:#232937;"/><circle cx="161.54" cy="114.73" r="3.12" style="fill:#fff;"/><path d="M161.32,111.94c2.61.13,4,4,1.41,5.31a2.6,2.6,0,0,1-3.39-1.23,2.94,2.94,0,0,1,.58-3.53c.47-.46-.62-.48-.9-.2-2.85,2.79.25,7,3.81,5.61a3.4,3.4,0,0,0-1.08-6.62c-.44,0-1.18.62-.43.66Z" style="fill:#232937;"/><circle cx="175.99" cy="80.26" r="3.12" style="fill:#ffcac1;"/><path d="M175.8,77.55c2.68.14,3.95,4,1.22,5.21a2.56,2.56,0,0,1-3.23-1.22,2.84,2.84,0,0,1,.6-3.45c.5-.49-.57-.69-.93-.34a3.54,3.54,0,1,0,2.72-1c-.55,0-1.13.78-.38.82Z" style="fill:#232937;"/><circle cx="82.2" cy="74.83" r="3.12" transform="translate(-5.58 143.02) rotate(-80.16)" style="fill:#fff;"/><path d="M82,72c2.6.13,3.94,3.87,1.48,5.27A2.56,2.56,0,0,1,80,76.12a3,3,0,0,1,.58-3.54c.46-.45-.63-.46-.9-.19-2.85,2.8.25,7,3.81,5.6a3.54,3.54,0,0,0,2.37-3.63,3.46,3.46,0,0,0-3.45-3c-.44,0-1.18.61-.43.65Z" style="fill:#232937;"/><path d="M139.81,66.5c.46,0,1.18-.69.42-.69-.45,0-1.17.69-.42.69Z" style="fill:#d1d1d1;"/><path d="M138.27,34.22c.23,0,1.26-.44.73-.44-.23,0-1.26.44-.73.44Z" style="fill:#d1d1d1;"/></svg>