<svg xmlns="http://www.w3.org/2000/svg" viewBox="0 0 240 208"><title>intro</title><path d="M63.35,204.47c-5-1.05-64.5-10.59-60.12-80.93s9.89-91.49,33-99.23S115.69-20,159.84,14.77s91.81,66.05,72.9,121.65-22,74.14-71.34,71.3-74.49,1.79-98.05-3.25" style="fill:#f8f8f8;"/><path d="M41.6,39h64c.31-6.14-2.74-12.28-8.18-15.14a16.57,16.57,0,0,0-17.4,1.5c-4.36-3.76-8.89-7.62-14.39-9.31s-12.29-.65-15.69,4c-2.34,3.21-2.66,7.61-1.51,11.41-5,0-10,.08-14.95.36-2.84.15-6.71,1-6.85,3.82-.21,4.25,15,3.36,15,3.36" style="fill:#fff;"/><path d="M178.19,37.59a5.47,5.47,0,0,0-3.83-.44c-.78.18-1.54.46-2.31.69-1.46.45-1.59.84-2.19-.44-.74-1.59.42-3.24-1.84-4.91a5,5,0,0,0-2.8-1,4.67,4.67,0,0,0-1.59.22,18.09,18.09,0,0,0-3.91-6.21,13.27,13.27,0,0,0-14-3,14.74,14.74,0,0,0-5.51,4.09,17.86,17.86,0,0,0-2.07,3,27.53,27.53,0,0,1-1.41,3.06c-1.41-.53-2.71-1.23-4.18-1.63-2.87-.79-6-.95-8.51.92a6.78,6.78,0,0,0-2.71,6.88c.38,1.46,1.07,2.53,2.54,2.55,2.09,0,4.18,0,6.26,0h51.71a11.09,11.09,0,0,0-3.65-3.73" style="fill:#fff;"/><path d="M205.45,57.59a11.32,11.32,0,0,0-3.26-10.06,12,12,0,0,0-12.66-2.72,13.5,13.5,0,0,0-5,3.7,16.08,16.08,0,0,0-1.87,2.68A25,25,0,0,1,181.39,54c-1.27-.48-2.45-1.11-3.78-1.48-2.6-.72-5.43-.86-7.7.84a6.12,6.12,0,0,0-2.43,6.32c.24.83.85,2.19,1.78,2.27.27,0,.56,0,.83,0h32.65a1.32,1.32,0,0,0,1.07-.53,9.2,9.2,0,0,0,1.64-3.79" style="fill:#fff;"/><path d="M13.4,62.91a11.35,11.35,0,0,1,3.26-10.06,12,12,0,0,1,12.66-2.72,13.42,13.42,0,0,1,5,3.7,16.08,16.08,0,0,1,1.87,2.68,25,25,0,0,0,1.28,2.77c1.27-.48,2.45-1.11,3.78-1.48,2.6-.72,5.43-.86,7.71.84A6.13,6.13,0,0,1,51.37,65c-.23.83-.85,2.19-1.78,2.27a7.66,7.66,0,0,1-.83,0H16.11A1.32,1.32,0,0,1,15,66.7a9.2,9.2,0,0,1-1.64-3.79" style="fill:#fff;"/><path d="M42.06,175.64c-1.35,1-2.57,2.21-2.47,4.13.2,4.08,7.21,5.06,10.07,5.45,5.08.69,10.16.58,15.26.78q27.8,1,55.62.39,14.27-.31,28.54-1c8.35-.41,17.66.12,25.57-3.1a110.79,110.79,0,0,0,13.76-6.94c3.69-2.14,8.47-4.18,10.66-8.18,3.83-7-9.6-8.41-13.29-9.18-14.52-3-29.5-3.58-44.27-4a332.48,332.48,0,0,0-45.07,1.41c-18.77,2-38.83,8.33-54.16,20.16l-.22.15" style="fill:#e5e5e5;"/><rect x="80.69" y="94.76" width="107.56" height="73.79" style="fill:#e5e5e5;"/><polygon points="80.92 94.88 54.55 105.14 54.55 178.72 80.92 168.84 80.92 94.88" style="fill:#f6f6f6;"/><path d="M80.72,94.63l-23.13,9-3.28,1.28c-.73.28-.05.52.41.34l23.14-9L81.13,95c.74-.29.06-.53-.41-.35" style="fill:#1f2e3f;"/><path d="M81.62,168.78V98.27c0-.58-1.16-.41-1.16.09v70.58c0,.58,1.16.41,1.16-.09" style="fill:#1f2e3f;"/><rect x="54.09" y="104.94" width="107.79" height="73.79" style="fill:#f1f1f1;"/><path d="M161.88,105.17H57.33v59.91A10,10,0,0,0,67.27,175h94.61Z" style="fill:#fff;"/><polygon points="188.25 94.88 161.88 105.14 161.88 178.72 188.25 168.84 188.25 94.88" style="fill:#e5e5e5;"/><path d="M185,96.2,161.88,105v71.5l15.9-6.63A12.08,12.08,0,0,0,185,158.64Z" style="fill:#f1f1f1;"/><path d="M161.19,108.41v67.78c0,.33,1.16.12,1.16-.3v-67.8c0-.32-1.16-.12-1.16.3" style="fill:#1f2e3f;"/><path d="M187.79,96.38V169l.37-.26-21.4,8-4.3,1.61c-.1,0-.65.16-.71.27.1-.19.82,0,.38-.1a30.16,30.16,0,0,0-3.92,0H59.38c-1.52.08-3.07,0-4.59.08a.83.83,0,0,1-.35,0c-.13-.06.14.17.14,0,0-.51,0-1,0-1.53V106.47c0-.15-1.16.3-1.16.3v72.12c0,.06.18.07.2.07H156.08c1.74,0,3.54.14,5.28,0a11,11,0,0,0,2.72-.91l7.53-2.82,15.77-5.92,1-.36c.1,0,.38-.12.38-.26V96.18c0-.14-1.12,0-1.12.3" style="fill:#1f2e3f;"/><path d="M153.79,124.37v13c0,.32,1.15.12,1.15-.31v-13c0-.33-1.15-.12-1.15.31" style="fill:#1f2e3f;"/><path d="M153.79,139.63v2c0,.58,1.15.4,1.15-.09v-2c0-.58-1.15-.4-1.15.1" style="fill:#1f2e3f;"/><path d="M153.79,143.8v5.38c0,.48,1.15.24,1.15-.15v-5.32c0-.48-1.15-.24-1.15.14" style="fill:#1f2e3f;"/><path d="M167.63,163l11.43-3.69c.68-.22.47-1-.21-.82l-11.44,3.69c-.68.22-.47,1,.22.82" style="fill:#d1d1d1;"/><path d="M167.61,158.46,179,154.74c.66-.22.5-.9-.18-.68l-11.38,3.73c-.66.22-.5.89.18.67" style="fill:#d1d1d1;"/><path d="M167.72,153.91l11.33-3.76c.75-.25,0-.42-.4-.28l-11.33,3.76c-.75.25,0,.42.4.28" style="fill:#d1d1d1;"/><path d="M167.6,166.25l2.52-.8c.17-.06.55-.2.48-.45s-.47-.19-.63-.14l-2.53.81c-.17.05-.54.2-.48.44s.48.2.64.14" style="fill:#d1d1d1;"/><path d="M172,164.86l2.54-.82c.18-.06.55-.21.48-.46s-.47-.22-.64-.16l-2.55.81c-.18.06-.54.21-.48.46s.48.22.65.17" style="fill:#d1d1d1;"/><path d="M176.48,163.33l2.57-.83c.12,0,.56-.16.5-.36s-.51-.09-.61-.06l-2.57.83c-.12,0-.56.16-.5.35s.51.1.61.07" style="fill:#d1d1d1;"/><path d="M123.7,153a19.55,19.55,0,0,1-8.59,5.46,21.35,21.35,0,0,1-17.63-2.3,16.36,16.36,0,0,1-2.91-2.2c-.22-.22-1.25.19-1,.4a20.79,20.79,0,0,0,10.79,5.21,22.86,22.86,0,0,0,17.15-3.81,18.19,18.19,0,0,0,3.25-2.82c.25-.29-.83-.17-1,.06" style="fill:#1f2e3f;"/><path d="M99,144.13a2,2,0,0,1-1.3,2.44,1.8,1.8,0,0,1-2.19-1.45,2,2,0,0,1,1.3-2.45A1.8,1.8,0,0,1,99,144.13" style="fill:#1f2e3f;"/><path d="M124,144.81a2,2,0,0,1-1.3,2.44,1.79,1.79,0,0,1-2.19-1.45,2,2,0,0,1,1.3-2.45,1.8,1.8,0,0,1,2.19,1.46" style="fill:#1f2e3f;"/><polygon points="162.22 104.7 53.99 104.73 79.21 94.99 188.05 94.97 162.22 104.7" style="fill:#f8f8f8;"/><path d="M162.35,104.24H151.51l-25.84.23h-70a5.42,5.42,0,0,0-1.45,0,1.08,1.08,0,0,1-.18,0l.21.79,12.17-4.78c4.32-1.7,8.61-3.63,13-5.11-.35.12-.29,0,0,.06a5,5,0,0,0,.77,0h3.15l11.57.23h90.6a11.08,11.08,0,0,0,2.23,0,1.41,1.41,0,0,1,.29,0l-.21-.79-22.61,8.53L162,104.62c-.71.27-.08.93.51.7l22.61-8.52,3.21-1.21c.55-.21.29-.79-.21-.79H85.41c-2,0-4-.16-6,0a6.85,6.85,0,0,0-1.9.63l-7,2.72-15.74,6.08-1,.38c-.55.21-.28.78.21.78H157.76c1.39,0,2.84.11,4.23,0h.19c.66,0,.85-.86.09-.86" style="fill:#1f2e3f;"/><rect x="99.48" y="104.76" width="17.25" height="14.69" transform="translate(-0.76 0.74) rotate(-0.39)" style="fill:#ffac98;"/><polygon points="116.54 104.7 99.34 104.82 124.02 95.22 141.21 95.1 116.54 104.7" style="fill:#ffac98;"/><path d="M99,104.94l.1,14.74c0,.06.18.07.2.07l17.16-.12c.19,0,.92-.09.92-.37q0-7.35-.1-14.7c0-.16-1.12,0-1.12.3q.06,7.35.11,14.7l.92-.37-14,.1c-.91,0-1.83,0-2.75,0-.07,0-.4,0-.46,0,.29.24.18-.22.19-.37.21-2.41,0-5-.05-7.37s0-4.59,0-6.89c0-.16-1.12,0-1.12.3" style="fill:#1f2e3f;"/><path d="M115,104.41l-10.73.08c-.39,0-1.2.6-.45.59l10.74-.07c.39,0,1.19-.6.44-.6" style="fill:#1f2e3f;"/><path d="M99.73,105.19l17.44-6.79c2.36-.91,4.76-1.76,7.09-2.76.18-.07-.42,0,.09,0a13.83,13.83,0,0,0,1.44,0l5.37,0,10.07-.06-.21-.8-21.56,8.39-3.08,1.2c-.71.27-.09.94.51.71l21.56-8.39,3.07-1.19c.55-.22.29-.8-.21-.8l-8.58.06-5.81,0a19.69,19.69,0,0,0-2.77,0,8.89,8.89,0,0,0-1.76.65l-4.2,1.64-11.48,4.46-7.49,2.91c-.71.28-.09,1,.51.72" style="fill:#1f2e3f;"/><path d="M100.42,91.24a14,14,0,0,1-.89-14.86c4-7.06,14.41-9.08,21.19-4.62s9.25,14,6.22,21.58a18.46,18.46,0,0,1,27.35-13.53c3.55,2,7.55,6.87,6.18,11.21a13.77,13.77,0,0,1-9,9.17c-4.47,1.51-9.49,1.39-14.14,1a18.69,18.69,0,0,1-11-4.79c-.41-.37-.85-1.09-1.41-.93-5.73,1.64-20.39,1.43-24.57-4.26" style="fill:#ffac98;"/><path d="M100.93,91a13.9,13.9,0,0,1-1.62-13,13,13,0,0,1,8.43-7.53,15.3,15.3,0,0,1,11.13.78,15.91,15.91,0,0,1,7.54,8.65,18.78,18.78,0,0,1,0,13.39h1.1A18,18,0,0,1,144,77.88a17.09,17.09,0,0,1,11.7,3.49c3.13,2.56,5.48,6.51,3.93,10.56a13.35,13.35,0,0,1-7.54,7.66c-4.3,1.72-9.16,1.63-13.7,1.31a18.49,18.49,0,0,1-11.88-5.15c-.94-.92-1.74-.52-2.89-.29a31.24,31.24,0,0,1-4,.48,39.23,39.23,0,0,1-10.59-.73c-2.94-.64-6.22-1.71-8.12-4.21-.28-.37-1.35,0-1,.48,1.75,2.31,4.67,3.47,7.4,4.18a38.38,38.38,0,0,0,10.19,1.1,37.54,37.54,0,0,0,4.85-.35q.91-.14,1.83-.33a2.52,2.52,0,0,1,.73-.18c.44.06,1,.8,1.34,1.09A20.68,20.68,0,0,0,139,101.72c4.63.27,9.54.19,13.88-1.66a14.38,14.38,0,0,0,7.74-7.88,7.65,7.65,0,0,0,.3-5.49,12.79,12.79,0,0,0-3.38-5.07,17.45,17.45,0,0,0-11.41-4.52,19.29,19.29,0,0,0-19.73,16.29c-.08.52,1,.34,1.09,0,3.12-8,.45-18.46-7.46-22.6-7-3.66-17-1.53-21,5.55a14.37,14.37,0,0,0,.91,15.15c.27.38,1.34,0,1-.48" style="fill:#1f2e3f;"/><path d="M145.77,82a19.94,19.94,0,0,1-12.68,12.1c-.67.2-.51.82.18.66,3.78-.88,7.95-1.55,11.61.14.38.17,1.38-.36.87-.6-4-1.84-8.51-1.16-12.66-.2l.18.66a21.17,21.17,0,0,0,13.62-12.87c.16-.44-1-.31-1.12.11" style="fill:#1f2e3f;"/><path d="M114.5,80.13a15.55,15.55,0,0,0,4.12,13.06l1-.39a19.92,19.92,0,0,0-11.59-5c-.25,0-1.28.43-.72.47a19.39,19.39,0,0,1,11.26,4.9c.21.19,1.24-.19,1-.39a15.34,15.34,0,0,1-4.06-12.86c0-.28-1.07-.09-1.11.19" style="fill:#1f2e3f;"/></svg>