<svg xmlns="http://www.w3.org/2000/svg" xmlns:xlink="http://www.w3.org/1999/xlink" viewBox="0 0 240 208"><defs><clipPath id="a"><rect x="46.93" y="85.15" width="140.17" height="83.33" style="fill:none"/></clipPath></defs><title>getting-started</title><path d="M60.23,184.89c-4.94-.8-64.32-7.94-59.95-60.66s9.86-68.57,32.94-74.37,79.21-33.25,123.25-7.15S248,92.2,229.17,133.88,207.22,189.45,158,187.32,83.74,188.66,60.23,184.89Z" style="fill:#def3f9"/><path d="M157.28,99.85h66.61a5.41,5.41,0,0,1,5.41,5.41h0a5.42,5.42,0,0,1-5.41,5.42H157.28a5.42,5.42,0,0,1-5.41-5.42h0A5.41,5.41,0,0,1,157.28,99.85Z" style="fill:#fff"/><path d="M230.41,96.17H202.78a4.37,4.37,0,0,1-4.36-4.35h0a4.38,4.38,0,0,1,4.36-4.35h27.63a4.37,4.37,0,0,1,4.35,4.35h0A4.36,4.36,0,0,1,230.41,96.17Z" style="fill:#fff"/><path d="M235.53,122.66H207.89a4.36,4.36,0,0,1-4.35-4.35h0a4.37,4.37,0,0,1,4.35-4.35h27.64a4.37,4.37,0,0,1,4.35,4.35h0A4.36,4.36,0,0,1,235.53,122.66Z" style="fill:#fff"/><path d="M221,114.16a1.91,1.91,0,1,1,0-3.68H210.5a1.91,1.91,0,1,1,0,3.68Z" style="fill:#fff"/><path d="M224.46,99.85a2,2,0,1,1,0-3.87H213.4a2,2,0,1,1,0,3.87Z" style="fill:#fff"/><path d="M90.76,70.65H24.16a5.42,5.42,0,0,1-5.42-5.41h0a5.42,5.42,0,0,1,5.42-5.41h66.6a5.42,5.42,0,0,1,5.42,5.41h0A5.42,5.42,0,0,1,90.76,70.65Z" style="fill:#fff"/><path d="M17.63,74.33H45.26a4.36,4.36,0,0,1,4.35,4.35h0A4.36,4.36,0,0,1,45.26,83H17.63a4.37,4.37,0,0,1-4.35-4.35h0A4.37,4.37,0,0,1,17.63,74.33Z" style="fill:#fff"/><path d="M12.52,47.84H40.16a4.37,4.37,0,0,1,4.35,4.35h0a4.37,4.37,0,0,1-4.35,4.35H12.52a4.36,4.36,0,0,1-4.35-4.35h0A4.36,4.36,0,0,1,12.52,47.84Z" style="fill:#fff"/><path d="M27,56.15A2.19,2.19,0,0,1,29.45,58,2.19,2.19,0,0,1,27,59.83h10.5A2.19,2.19,0,0,1,35.13,58a2.19,2.19,0,0,1,2.41-1.84Z" style="fill:#fff"/><path d="M23.58,70.46a2,2,0,1,1,0,3.87H34.64a2,2,0,1,1,0-3.87Z" style="fill:#fff"/><path d="M195.8,172.74V80.83a3,3,0,0,0-3-3H41.26a3,3,0,0,0-3,3v91.91Z" style="fill:#fff"/><path d="M195.8,173.12H38.23a.38.38,0,0,1-.39-.38V80.83a3.42,3.42,0,0,1,3.42-3.41H192.77a3.41,3.41,0,0,1,3.41,3.41v91.91A.38.38,0,0,1,195.8,173.12Zm-157.19-.77h156.8V80.83a2.65,2.65,0,0,0-2.64-2.64H41.25a2.66,2.66,0,0,0-2.64,2.64Z" style="fill:#293241"/><path d="M203.8,182.6H30.4A8.65,8.65,0,0,1,21.79,174v-.52a.51.51,0,0,1,.51-.5H211.92a.5.5,0,0,1,.5.5v.51A8.65,8.65,0,0,1,203.8,182.6Z" style="fill:#fff"/><path d="M203.8,183H30.4a9,9,0,0,1-9-9v-.53a.89.89,0,0,1,.89-.89H211.92a.89.89,0,0,1,.89.89v.51A9,9,0,0,1,203.8,183ZM22.3,173.32a.11.11,0,0,0-.12.11V174a8.25,8.25,0,0,0,8.22,8.26H203.8a8.27,8.27,0,0,0,8.24-8.27v-.51a.12.12,0,0,0-.12-.11Z" style="fill:#293241"/><path d="M136,175.83H98.19A3.43,3.43,0,0,1,94.78,173a.39.39,0,0,1,.32-.44H139a.4.4,0,0,1,.4.38.2.2,0,0,1,0,.07A3.42,3.42,0,0,1,136,175.83Zm-40.29-2.51a2.67,2.67,0,0,0,2.53,1.74H136a2.68,2.68,0,0,0,2.53-1.74Z" style="fill:#293241"/><rect x="46.93" y="85.15" width="140.17" height="83.33" style="fill:#f0f9fc"/><g style="clip-path:url(#a)"><polygon points="-20.52 170.13 -41.58 160.34 179.75 57.33 200.8 67.13 -20.52 170.13" style="fill:#fff"/><polygon points="6.41 181.93 -4.12 177.03 217.21 74.02 227.74 78.92 6.41 181.93" style="fill:#fff"/><polygon points="38.65 196.93 20.9 188.67 242.22 85.67 259.97 93.93 38.65 196.93" style="fill:#fff"/></g><path d="M187.1,168.87H46.93a.38.38,0,0,1-.39-.39V85.15a.38.38,0,0,1,.39-.38H187.1a.38.38,0,0,1,.38.38v83.33A.38.38,0,0,1,187.1,168.87ZM47.31,168.1h139.4V85.54H47.31Z" style="fill:#293241"/><path d="M116.1,116.48l-11,0c-1.33,10.61-2.6,36.24-3.91,46.85a3.5,3.5,0,0,1-.46,1.56c-.86,1.23-3,1.27-4.23.74a3.35,3.35,0,0,1-2.07-3c0-2.92,2.27-2.19,4.07-2.36a2,2,0,0,0,1.52-2.56c-1.24-4.44-8.34-2.63-10.22.27-1,1.48-1.41,3.46-3,4.25s-4-.32-4.72-2.11a6.49,6.49,0,0,1,.72-5.53,11.73,11.73,0,0,1,6.88-5.36c3-.88,6.81.9,9.45-.43a3.83,3.83,0,0,0,1.72-4.31c-.87-3.55-4.7-5.06-8-5.53-9.77-1.42-21.92,3.63-24.06,14-1.35,6.53,2.11,10.93,6.93,14.66h40.38Z" style="fill:#fff"/><path d="M116,116.48l11,0c1.33,10.61,2.59,36.24,3.91,46.85a3.5,3.5,0,0,0,.46,1.56c.85,1.23,3,1.27,4.23.74a3.35,3.35,0,0,0,2.07-3c0-2.92-2.27-2.19-4.07-2.36a2,2,0,0,1-1.52-2.56c1.24-4.44,8.33-2.63,10.22.27,1,1.48,1.41,3.46,3,4.25,1.74.88,4-.32,4.72-2.11a6.49,6.49,0,0,0-.72-5.53,11.73,11.73,0,0,0-6.88-5.36c-3-.88-6.81.9-9.45-.43a3.85,3.85,0,0,1-1.73-4.31c.88-3.55,4.71-5.06,8-5.53,9.77-1.42,21.93,3.63,24.06,14,1.36,6.53-2.1,10.93-6.92,14.66H116Z" style="fill:#fff"/><path d="M89.16,167.12a.38.38,0,0,1-.39-.38.38.38,0,0,1,.21-.34,6.33,6.33,0,0,0-2.93-11.94,5.36,5.36,0,0,0-1,.09.39.39,0,0,1-.45-.31.4.4,0,0,1,.31-.45,6.09,6.09,0,0,1,1.13-.1,7.1,7.1,0,0,1,3.28,13.39A.33.33,0,0,1,89.16,167.12Z" style="fill:#293241"/><path d="M97.33,147.5a.38.38,0,0,1-.25-.09,14.23,14.23,0,0,0-1.33-1,.38.38,0,0,1-.12-.53.39.39,0,0,1,.53-.12h0a12,12,0,0,1,1.42,1,.39.39,0,0,1-.25.68Z" style="fill:#293241"/><path d="M73,168.11a.35.35,0,0,1-.18-.05,8.6,8.6,0,0,1,4-16.22,7.27,7.27,0,0,1,1,.07,12.53,12.53,0,0,1,16.2-7.2l.42.17a.39.39,0,1,1-.29.72,11.77,11.77,0,0,0-15.45,6.18l-.27.69a.37.37,0,0,1-.43.25,7.1,7.1,0,0,0-1.22-.11,7.83,7.83,0,0,0-3.63,14.77.38.38,0,0,1,.16.52.39.39,0,0,1-.34.21Z" style="fill:#293241"/><path d="M83.2,167.12a.37.37,0,0,1-.38-.38.36.36,0,0,1,.2-.34,4.21,4.21,0,0,0-2-7.93,3.49,3.49,0,0,0-.65.06.4.4,0,0,1-.45-.32.39.39,0,0,1,.31-.45,5.16,5.16,0,0,1,.79-.07,5,5,0,0,1,2.32,9.4A.31.31,0,0,1,83.2,167.12Z" style="fill:#293241"/><path d="M115.43,154.83a.4.4,0,0,1-.34-.2,6.31,6.31,0,0,0-7.11-3.21.39.39,0,0,1-.47-.29.4.4,0,0,1,.29-.47h0a7.1,7.1,0,0,1,8,3.61.38.38,0,0,1-.16.52h0A.33.33,0,0,1,115.43,154.83Z" style="fill:#293241"/><path d="M102.87,159a.38.38,0,0,1-.39-.31,6.09,6.09,0,0,1-.1-1.13,7.08,7.08,0,0,1,3.86-6.32.39.39,0,0,1,.38.68h0a6.3,6.3,0,0,0-3.45,5.63,5.36,5.36,0,0,0,.09,1,.39.39,0,0,1-.31.45h-.06Z" style="fill:#293241"/><path d="M91.69,154.73a.4.4,0,0,1-.38-.32,4.89,4.89,0,0,1-.08-.85,5.35,5.35,0,0,1,10.09-2.48.38.38,0,0,1-.68.36A4.58,4.58,0,0,0,92,153.56a5.85,5.85,0,0,0,.07.72.39.39,0,0,1-.32.44Z" style="fill:#293241"/><path d="M111,166.74h-.09a4.48,4.48,0,0,1-.87-.3,5.78,5.78,0,0,1,2-11,.38.38,0,0,1,.41.36.38.38,0,0,1-.36.41,5,5,0,0,0-1.74,9.57,6.28,6.28,0,0,0,.73.25.38.38,0,0,1-.08.76Z" style="fill:#293241"/><path d="M142.63,167.12a.28.28,0,0,1-.18,0,7.1,7.1,0,0,1,3.29-13.39,5.8,5.8,0,0,1,1.11.1.39.39,0,0,1,.33.35.38.38,0,0,1-.45.41,5.36,5.36,0,0,0-1-.09,6.33,6.33,0,0,0-2.93,11.93.38.38,0,0,1,.16.52.39.39,0,0,1-.34.21Z" style="fill:#293241"/><path d="M158.91,168.11a.38.38,0,0,1-.38-.39.36.36,0,0,1,.2-.34,7.83,7.83,0,0,0-3.63-14.77,7.1,7.1,0,0,0-1.22.11.38.38,0,0,1-.43-.25,11.84,11.84,0,0,0-4.24-5.64.39.39,0,0,1,.45-.63,12.6,12.6,0,0,1,4.4,5.71,7.13,7.13,0,0,1,1-.07,8.6,8.6,0,0,1,4,16.22A.61.61,0,0,1,158.91,168.11Z" style="fill:#293241"/><path d="M134.55,147.5a.39.39,0,0,1-.25-.68h0A12.6,12.6,0,0,1,147.49,145a.39.39,0,0,1,.2.51.38.38,0,0,1-.51.2h0a11.8,11.8,0,0,0-12.38,1.75A.38.38,0,0,1,134.55,147.5Z" style="fill:#293241"/><path d="M148.68,167.12a.34.34,0,0,1-.18,0,5,5,0,0,1,2.32-9.4,4.23,4.23,0,0,1,.79.08.37.37,0,0,1,.31.44.39.39,0,0,1-.44.32h0a3.49,3.49,0,0,0-.65-.06,4.21,4.21,0,0,0-2,7.93.38.38,0,0,1,.16.52.39.39,0,0,1-.34.21Z" style="fill:#293241"/><path d="M129,159H129a.39.39,0,0,1-.32-.44h0a5.52,5.52,0,0,0,.09-1,6.33,6.33,0,0,0-11.93-2.94.38.38,0,0,1-.53.15.38.38,0,0,1-.15-.51,7.1,7.1,0,0,1,13.39,3.3,8.32,8.32,0,0,1-.1,1.12A.39.39,0,0,1,129,159Z" style="fill:#293241"/><path d="M140.56,154.44a.39.39,0,0,1-.38.32h-.06a.4.4,0,0,1-.32-.45,3.49,3.49,0,0,0,.07-.71,4.58,4.58,0,0,0-8.64-2.13.38.38,0,0,1-.68-.36,5.35,5.35,0,0,1,10.09,2.48A4,4,0,0,1,140.56,154.44Z" style="fill:#293241"/><path d="M120.92,166.69a.39.39,0,0,1-.39-.39.38.38,0,0,1,.29-.37,4.63,4.63,0,0,0,.74-.26,5,5,0,0,0,2.78-5.93.39.39,0,0,1,.26-.48.39.39,0,0,1,.48.27,5.81,5.81,0,0,1-3.2,6.85,6.38,6.38,0,0,1-.87.3Z" style="fill:#293241"/><path d="M123.14,157.5a.39.39,0,0,1-.25-.1,5.09,5.09,0,0,0-3.07-1.3.38.38,0,0,1-.36-.41.4.4,0,0,1,.41-.36,5.8,5.8,0,0,1,3.53,1.5.38.38,0,0,1,0,.54A.39.39,0,0,1,123.14,157.5Z" style="fill:#293241"/><path d="M104.15,131.86v-4.92a.4.4,0,0,1,.26-.39.39.39,0,0,1,.52.37v5a.39.39,0,0,1-.52.37A.4.4,0,0,1,104.15,131.86Z" style="fill:#293241"/><path d="M102,134.55v-6.08a.4.4,0,0,1,.26-.39.39.39,0,0,1,.51.37v6.12a.39.39,0,0,1-.51.37A.4.4,0,0,1,102,134.55Z" style="fill:#293241"/><path d="M99.13,133.14v-4a.4.4,0,0,1,.26-.39.39.39,0,0,1,.51.37v4a.39.39,0,0,1-.51.37A.4.4,0,0,1,99.13,133.14Z" style="fill:#293241"/><path d="M99.13,142.19v-6.12a.4.4,0,0,1,.26-.38.39.39,0,0,1,.51.37v6.12a.39.39,0,0,1-.38.4h0A.38.38,0,0,1,99.13,142.19Z" style="fill:#293241"/><path d="M102,140v-2.63a.39.39,0,0,1,.26-.38.38.38,0,0,1,.51.36v2.67a.39.39,0,0,1-.52.36A.4.4,0,0,1,102,140Z" style="fill:#293241"/><path d="M104.15,141.37v-2.64a.4.4,0,0,1,.26-.38.39.39,0,0,1,.52.37v2.67a.4.4,0,0,1-.52.37A.4.4,0,0,1,104.15,141.37Z" style="fill:#293241"/><path d="M97,139.65V137a.39.39,0,0,1,.26-.38.38.38,0,0,1,.51.36v2.67a.38.38,0,0,1-.51.37A.39.39,0,0,1,97,139.65Z" style="fill:#293241"/><path d="M97,131.86v-5a.39.39,0,0,1,.26-.38.38.38,0,0,1,.51.36v5a.39.39,0,0,1-.51.37A.4.4,0,0,1,97,131.86Z" style="fill:#293241"/><path d="M127.93,131.91V127a.39.39,0,1,1,.78,0v5a.39.39,0,0,1-.51.37A.41.41,0,0,1,127.93,131.91Z" style="fill:#293241"/><path d="M130.06,134.61v-6.1a.4.4,0,0,1,.26-.38.39.39,0,0,1,.51.37v6.13a.38.38,0,0,1-.51.36A.39.39,0,0,1,130.06,134.61Z" style="fill:#293241"/><path d="M133,133.19v-4a.39.39,0,0,1,.26-.38.38.38,0,0,1,.51.37v4a.38.38,0,0,1-.51.36A.39.39,0,0,1,133,133.19Z" style="fill:#293241"/><path d="M133,142.21v-6.09a.39.39,0,0,1,.26-.38.38.38,0,0,1,.51.36v6.13a.38.38,0,0,1-.51.36A.39.39,0,0,1,133,142.21Z" style="fill:#293241"/><path d="M130.06,140.09v-2.64a.4.4,0,0,1,.26-.38.39.39,0,0,1,.51.37v2.67a.39.39,0,0,1-.51.37A.4.4,0,0,1,130.06,140.09Z" style="fill:#293241"/><path d="M127.93,141.44v-2.65a.39.39,0,0,1,.78,0v2.68a.39.39,0,0,1-.51.37A.4.4,0,0,1,127.93,141.44Z" style="fill:#293241"/><path d="M135.09,139.7v-2.64a.4.4,0,0,1,.26-.38.39.39,0,0,1,.51.37v2.66a.39.39,0,0,1-.51.37A.4.4,0,0,1,135.09,139.7Z" style="fill:#293241"/><path d="M135.09,131.91v-5a.4.4,0,0,1,.26-.39.39.39,0,0,1,.51.37v5a.39.39,0,0,1-.51.37A.41.41,0,0,1,135.09,131.91Z" style="fill:#293241"/><path d="M98.16,110.1H78.44v-1.53A20.47,20.47,0,0,1,82.1,96.69l16.06-22.4Z" style="fill:#fff"/><path d="M99.9,111.84H80.18v-1.53a20.5,20.5,0,0,1,3.66-11.89L99.9,76Z" style="fill:#bbdff5"/><path d="M98.16,110.48H78.44a.39.39,0,0,1-.39-.38v-1.53a20.87,20.87,0,0,1,3.74-12.11L97.85,74.07a.39.39,0,0,1,.54-.09.38.38,0,0,1,.16.31V110.1A.39.39,0,0,1,98.16,110.48Zm-19.33-.77H97.77V75.49L82.41,96.9a20.08,20.08,0,0,0-3.58,11.66Z" style="fill:#293241"/><path d="M134.12,114.54h-36V68.07a42.23,42.23,0,0,1,8.56-25.91,40.76,40.76,0,0,1,8.82-8.85l.55-.37.56.37c.17.12,17.71,12.16,17.47,34.78Z" style="fill:#fff"/><path d="M135.86,116.09h-36V69.62a42.18,42.18,0,0,1,8.55-25.91,41.22,41.22,0,0,1,8.82-8.86l.55-.38.57.38c.17.12,17.71,12.16,17.47,34.77Z" style="fill:#bbdff5"/><path d="M134.11,110.1h19.73v-1.53a20.47,20.47,0,0,0-3.66-11.88l-16.06-22.4Z" style="fill:#fff"/><path d="M135.66,111.84h19.73v-1.53a20.5,20.5,0,0,0-3.66-11.89L135.67,76Z" style="fill:#bbdff5"/><path d="M153.85,110.48H134.12a.39.39,0,0,1-.39-.38V74.29a.39.39,0,0,1,.39-.39.4.4,0,0,1,.32.16L150.5,96.45a21,21,0,0,1,3.73,12.11v1.54A.38.38,0,0,1,153.85,110.48Zm-19.34-.77h18.94v-1.14a20.13,20.13,0,0,0-3.58-11.66L134.51,75.49Z" style="fill:#293241"/><path d="M134.13,114.93h-36a.39.39,0,0,1-.39-.39V68.07a42.64,42.64,0,0,1,8.64-26.14,41.25,41.25,0,0,1,8.91-9l.55-.37a.38.38,0,0,1,.43,0l.56.37c.18.12,17.89,12.26,17.65,35.1v46.46a.39.39,0,0,1-.11.27A.37.37,0,0,1,134.13,114.93Zm-35.58-.77h35.18V68.08c.24-22.4-17.13-34.34-17.3-34.46l-.34-.22-.34.22A40.74,40.74,0,0,0,107,42.39a41.8,41.8,0,0,0-8.48,25.68Z" style="fill:#293241"/><path d="M116.14,57a32.53,32.53,0,0,1-15.08-3.48l-.47-.24a.39.39,0,0,1-.18-.47l.15-.41a41.94,41.94,0,0,1,14.78-19.51l.54-.36a.4.4,0,0,1,.42,0l.54.35A41.85,41.85,0,0,1,131.7,52.35l.15.41a.39.39,0,0,1-.19.47l-.46.25A32.57,32.57,0,0,1,116.14,57Zm-14.88-4.25.17.09a33.57,33.57,0,0,0,29.4,0l.17-.09,0-.09a40.93,40.93,0,0,0-14.54-19.13l-.33-.21-.33.21A41.18,41.18,0,0,0,101.3,52.6Z" style="fill:#293241"/><path d="M118,84h0a9.21,9.21,0,1,1,9.22-9.2A9.2,9.2,0,0,1,118,84Z" style="fill:#fff"/><path d="M116.33,82.64h0a9.6,9.6,0,1,1,9.61-9.59A9.6,9.6,0,0,1,116.31,82.64Zm0-18.45a8.87,8.87,0,0,0,0,17.74v0a8.87,8.87,0,0,0,0-17.74Z" style="fill:#293241"/><path d="M117.68,108.75a4.05,4.05,0,0,1-4.05-4.06V95.11a4.06,4.06,0,1,1,8.12-.18v9.76A4.07,4.07,0,0,1,117.68,108.75Z" style="fill:#fff"/><path d="M116.14,107.47a4.46,4.46,0,0,1-4.45-4.45V93.44a4.45,4.45,0,0,1,8.9,0V103A4.45,4.45,0,0,1,116.14,107.47Zm0-17.7a3.67,3.67,0,0,0-3.67,3.67V103a3.67,3.67,0,0,0,7.34,0h0V93.44a3.67,3.67,0,0,0-3.67-3.67Z" style="fill:#293241"/><path d="M137.79,123.82V114c0-2.86-2.59-5.17-5.8-5.17s-5.8,2.32-5.8,5.17v9.86Z" style="fill:#fff"/><path d="M137.79,124.21h-11.6a.38.38,0,0,1-.38-.39V114c0-3.06,2.77-5.56,6.18-5.56s6.19,2.5,6.19,5.56v9.86A.38.38,0,0,1,137.79,124.21Zm-11.21-.77h10.83V114c0-2.64-2.43-4.79-5.42-4.79s-5.41,2.15-5.41,4.79Z" style="fill:#293241"/><path d="M137.79,123.82h-11.6v-9.68a5.82,5.82,0,0,1,11.6,0Z" style="fill:#fff"/><path d="M137.79,124.21h-11.6a.38.38,0,0,1-.38-.39v-9.68a6.2,6.2,0,0,1,12.37,0v9.68A.38.38,0,0,1,137.79,124.21Zm-11.21-.77h10.83v-9.3a5.44,5.44,0,0,0-10.83,0Z" style="fill:#293241"/><path d="M106.67,124v-9.86c0-2.86-2.6-5.18-5.8-5.18s-5.8,2.32-5.8,5.18V124Z" style="fill:#fff"/><path d="M106.67,124.4H95.07a.38.38,0,0,1-.39-.38v-9.86c0-3.07,2.78-5.57,6.19-5.57s6.18,2.5,6.18,5.57V124A.38.38,0,0,1,106.67,124.4Zm-11.22-.77h10.83v-9.47c0-2.64-2.43-4.79-5.41-4.79s-5.42,2.15-5.42,4.79Z" style="fill:#293241"/><path d="M106.67,124H95.07v-9.68a5.82,5.82,0,0,1,11.6,0Z" style="fill:#fff"/><path d="M106.67,124.4H95.07a.38.38,0,0,1-.39-.38v-9.68a6.2,6.2,0,0,1,12.37,0V124A.38.38,0,0,1,106.67,124.4Zm-11.22-.77h10.83v-9.29a5.43,5.43,0,0,0-10.83,0Z" style="fill:#293241"/></svg>