<svg xmlns="http://www.w3.org/2000/svg" viewBox="0 0 240 208"><title>view-cr</title><path d="M77.6,190.18C27,192.54,23.84,177.16,4.45,131S33.92,58.9,79.2,30s94.4-2.06,117.47,6.61c9.36,3.52,38.6,25.3,43.09,83.69s-56.54,66.31-61.62,67.19C154,191.68,128.19,187.82,77.6,190.18Z" style="fill:#f0f9fc"/><path d="M218.32,53.93c-.13-2.63-3.7-3.4-6.34-3.53-4.6-.26-9.23-.37-13.83-.32a12.05,12.05,0,0,0-1.42-10.56c-3.15-4.31-9.42-5.27-14.52-3.71s-9.3,5.14-13.32,8.61A15.39,15.39,0,0,0,152.78,43a15,15,0,0,0-7.58,14h59.24S218.52,57.87,218.32,53.93Z" style="fill:#fff"/><path d="M70,50.63h47.88c1.95,0,3.87,0,5.8,0,1.37,0,2-1,2.36-2.35a6.26,6.26,0,0,0-2.51-6.36c-2.33-1.74-5.23-1.59-7.88-.86-1.35.39-2.55,1-3.86,1.52a23.53,23.53,0,0,1-1.3-2.83A19.08,19.08,0,0,0,108.55,37a13.92,13.92,0,0,0-5.1-3.79,12.29,12.29,0,0,0-13,2.78,16.67,16.67,0,0,0-3.62,5.74,4.54,4.54,0,0,0-4.71,1.33c-1.18,1.35-.45,2.66-1,3.94s-.66.84-2,.41c-.71-.21-1.42-.47-2.15-.64a5.07,5.07,0,0,0-3.55.41A10.51,10.51,0,0,0,70,50.63Z" style="fill:#fff"/><path d="M27.37,70.47c.3.4.36.51.88.51H58.6c.26,0,.51,0,.77,0,.86-.06,1.44-1.33,1.65-2.1A5.63,5.63,0,0,0,58.77,63c-2.12-1.57-4.73-1.44-7.13-.78-1.22.35-2.32.93-3.49,1.38A24.2,24.2,0,0,1,47,61.06a15,15,0,0,0-1.74-2.48,12.38,12.38,0,0,0-4.62-3.43,11.06,11.06,0,0,0-11.72,2.53,10.52,10.52,0,0,0-3,9.32A8.45,8.45,0,0,0,27.37,70.47Z" style="fill:#fff"/><path d="M225.73,86.75c-.3.4-.36.51-.87.51H194.5c-.25,0-.51,0-.77,0-.85-.06-1.43-1.33-1.65-2.1a5.71,5.71,0,0,1,2.25-5.85c2.12-1.56,4.74-1.43,7.14-.77,1.22.35,2.31.92,3.49,1.37a25.15,25.15,0,0,0,1.18-2.57,15.54,15.54,0,0,1,1.73-2.48,12.41,12.41,0,0,1,4.63-3.43A11.06,11.06,0,0,1,224.21,74a10.5,10.5,0,0,1,3,9.32A8.3,8.3,0,0,1,225.73,86.75Z" style="fill:#fff"/><path d="M107.52,131.94a80.1,80.1,0,0,0-2.36,12.1c-.92,6.56-1.77,13.11-2.57,19.69a6.65,6.65,0,0,0,0,2.67,2.18,2.18,0,0,0,1,1.33c1.35.73,2.94-.43,3.71-1.45a19,19,0,0,0,2.31-5.1,35.85,35.85,0,0,1,8.27-13.54,5.64,5.64,0,0,1,3.68-2,4.26,4.26,0,0,1,2.55,1c2.06,1.61,2.89,4.22,3.47,6.66.69,3,1.22,6,2,8.94.53,1.95,1,4.73,2.33,6.29a2,2,0,0,0,2.74.43,2.93,2.93,0,0,0,.75-1c1-2,.88-4.48,1.09-6.6,1.05-10.05,2.27-20.39,1.5-30.46.05.51-7,1.65-7.73,1.76a51.09,51.09,0,0,1-8.57.47,53.65,53.65,0,0,1-8.18-.94c-.86-.18-5.55-1.2-5.89-.63C107.63,131.64,107.56,131.79,107.52,131.94Z" style="fill:#ddd"/><path d="M109.15,131.28c0,.17-.26,1.18-.28,1.35-.54,2.65-1.16,5.29-1.61,8s-.87,5.45-1.37,8.17c-1,5.71-2.22,11.41-3,17.17a1.69,1.69,0,0,0,.75,1.8c1.35.73,2.94-.43,3.71-1.45a19,19,0,0,0,2.31-5.1,35.85,35.85,0,0,1,8.27-13.54,5.64,5.64,0,0,1,3.68-2c2.44,0,4.67.43,6.08,2.63a16,16,0,0,1,1.93,5.85c.82,4.39.92,8.89,2,13.24.19.75.25,1.22,1,1.65a1.86,1.86,0,0,0,2.08-.11,2.87,2.87,0,0,0,.75-1c1-1.95.88-4.47,1.09-6.59,1.05-10,2.27-20.4,1.5-30.46.05.51-7,1.65-7.73,1.75a50.06,50.06,0,0,1-8.57.48,52.47,52.47,0,0,1-8.18-1A43.17,43.17,0,0,0,109.15,131.28Z" style="fill:#f2f2f2"/><path d="M107.41,131.45c.39-.45,1.29-.3,1.78-.26,1.07.11,2.14.28,3.21.49a57.35,57.35,0,0,0,10.69,1.25,53.26,53.26,0,0,0,9-.77c1.09-.2,2.18-.39,3.28-.63.25-.06,2.31-.36,2.35-.62s.6-.34.62-.1c.82,11.13-.73,22.23-1.71,33.32-.15,1.59-.36,3.86-1.76,4.91a2.48,2.48,0,0,1-3.49-.75,14.24,14.24,0,0,1-1.88-5.16c-.56-2.29-1.14-4.59-1.63-6.92a30.6,30.6,0,0,0-1.8-6.49c-1-2.16-3.32-4.8-5.95-3.56-2.06,1-3.8,3.39-5.08,5.17a34.46,34.46,0,0,0-3.34,5.61c-1,2-1.69,4.13-2.49,6.23a8.41,8.41,0,0,1-2.95,4.39c-1.12.71-2.7,1-3.58-.23-1.16-1.59-.32-4.31-.11-6.07q1-7.74,2-15.48c.34-2.53.68-5.06,1.13-7.56a28.82,28.82,0,0,1,1.63-6.69c.09-.21.71-.25.58,0a19.49,19.49,0,0,0-1.07,4c-.28,1.26-.52,2.55-.73,3.83-.43,2.59-.77,5.21-1.14,7.82q-1.11,8.07-2.07,16.13a5.88,5.88,0,0,0,.19,3.55c.94,1.74,3,.63,3.88-.55,1.28-1.67,1.82-3.81,2.55-5.74a37.25,37.25,0,0,1,5.65-10.24c1.78-2.25,4.58-5.89,7.88-4.58s4.37,5.52,5.08,8.67c.51,2.31,1,4.61,1.56,6.9a42.75,42.75,0,0,0,1.5,5.31A6,6,0,0,0,132,168a3.91,3.91,0,0,0,.39.45c.56.54.62.43,1.46.3s.87,0,1.28-.73a6.43,6.43,0,0,0,.43-1.05,10.12,10.12,0,0,0,.32-1.37c.34-2.07.39-4.19.6-6.29,1-9.41,2-18.9,1.28-28.36l.63-.11c-.07.39-.82.51-1.1.6a30.62,30.62,0,0,1-3.08.69,63.85,63.85,0,0,1-6.75,1,50.81,50.81,0,0,1-12.44-.51c-1.2-.19-2.4-.47-3.6-.69-.66-.13-1.33-.23-2-.32-.24,0-1.29-.26-1.46,0S107.2,131.73,107.41,131.45Z" style="fill:#293141"/><path d="M111.89,137.38c.21-.75,2.4-.94,2.14-.11a6.43,6.43,0,0,1-3.25,3.8,1.61,1.61,0,0,1-1.52.08c-.41-.26-.24-.68.15-.9a4.78,4.78,0,0,0,2.48-2.87Z" style="fill:#ddd"/><path d="M112,137.06c.07-.21.69-.3.63-.06a5.89,5.89,0,0,1-3.07,3.51c-.28.15-.62-.09-.25-.28a5.2,5.2,0,0,0,2.69-3.17Z" style="fill:#293141"/><path d="M138.36,132s-8.88,2-12.8,2.57c-8.31,1.25-18.55-.92-18.55-.92.13-.94,1.75-9.77,3-14.67l1-3.81a88.64,88.64,0,0,1,6-13.18,12.4,12.4,0,0,1,3-2.74c.22-.13.41-.25.62-.36C132.75,92.19,136.24,118.06,138.36,132Z" style="fill:#f2f2f2"/><path d="M138.36,132s-8.43,2.06-12.14,2.68c-7.88,1.31-17.56-.77-17.56-.77.12-.94,1.86-9.75,3-14.67,1.14-5.12,4.71-16.22,5.46-17.22s3.13-1.82,4.2-2.55l.6-.39C133.37,92.27,136.48,118.1,138.36,132Z" style="fill:#fff"/><path d="M126.63,113.5c0-.3.58-.45.62-.17.08.68.17,1.37.26,2a6.17,6.17,0,0,1,.17,1.72l-.28-.22c.75,0,1.45-.19,2.2-.25.3,0,1.25.08,1.5-.13s0-1-.13-1.4c-.17-.75-.23-1.54-.34-2.29,0-.3.58-.45.62-.17a21.3,21.3,0,0,0,.52,2.87c.1.41.3.86-.07,1.22a2.69,2.69,0,0,1-1.58.34c-.92,0-1.82.24-2.74.28-.11,0-.32-.06-.28-.21a6.39,6.39,0,0,0-.19-1.78,16,16,0,0,1-.28-1.84Z" style="fill:#f2f2f2"/><path d="M127.06,113.07c0-.3.57-.45.62-.17.08.69.17,1.37.25,2a5.56,5.56,0,0,1,.17,1.72l-.27-.22c.75,0,1.45-.19,2.2-.25.3,0,1.24.08,1.5-.13s0-1-.13-1.39c-.17-.75-.23-1.55-.34-2.3,0-.3.58-.45.62-.17a21.3,21.3,0,0,0,.52,2.87c.1.41.3.86-.07,1.22s-1.13.33-1.58.35c-.92,0-1.82.23-2.75.28-.1,0-.32-.07-.27-.22a6.4,6.4,0,0,0-.2-1.78,18.53,18.53,0,0,1-.27-1.84Z" style="fill:#293141"/><path d="M130.89,91.18c.11,3.75.26,8.93-2,12.12a4.54,4.54,0,0,1-2.18,1.76,4.68,4.68,0,0,1-3.11-.11c-2.46-.85-4.73-2.2-5.59-4.77a30.05,30.05,0,0,1-1.13-8.64c0-.3,0-1.11,0-1.28-.18-7.15,2.82-13,6.72-13.13s7.18,5.63,7.37,12.79C130.87,90.07,130.89,90.9,130.89,91.18Z" style="fill:#fff"/><path d="M118.68,100.8c.06.47-.26.58-.36.25a34.12,34.12,0,0,1-1.5-9.51c0-.3,0-1.11,0-1.28-.12-4.71,1.14-8.85,3.11-11.18C120.8,78,116.77,86.92,118.68,100.8Z" style="fill:#f2f2f2"/><path d="M117.1,102.13l.06-.09a.6.6,0,0,1,.86,0,11.39,11.39,0,0,0,5.52,3.21c2.51.52,4.5-1.58,6.36-2.74.15-.09.45-.26.63-.15a.7.7,0,0,1,.23.43.31.31,0,0,1-.13.41,6.29,6.29,0,0,1-1,.66,19,19,0,0,1-1.82,1.13,8.07,8.07,0,0,1-4.18,1.14,8.83,8.83,0,0,1-6.47-3.17,3.31,3.31,0,0,1-.3-.34.21.21,0,0,1,0-.15A1.13,1.13,0,0,1,117.1,102.13Z" style="fill:#f2f2f2"/><path d="M117.4,102.1c-.2-.19.4-.42.57-.25a10.14,10.14,0,0,0,5.49,3.23c2.52.39,4.41-1.63,6.34-3,.21-.15.75,0,.4.23-2,1.35-3.85,3.3-6.42,3.19a10,10,0,0,1-6.38-3.45Z" style="fill:#293141"/><path d="M113.18,74l3.19,1-1.78-1.69,2.31.56c-.21-.37-.43-.71-.64-1.08l3,1.12-1.48-2.29c.62.3,2.74,1.73,3.38,1.47s.71-1.56,1.44-2l1.84,2,.6-1.48,2.31,2.18.8-1,1.41,1.8,2-1.11-.17,1.94L134,74l-.32,1.27,1.22-.24c-.5.88-1,1.76-1.5,2.66,1.24-.3,2.93-1,4.15-.86,0,.86-.68,1.29-1.22,1.86a10.87,10.87,0,0,0-1.2,1.65,7.49,7.49,0,0,1-3.81,3c-1,.37-2.14.52-3.19.82a9.66,9.66,0,0,0-2.38,1.09c-.43-.49-.66-1.16-1.41-1.37a1.75,1.75,0,0,0-2,.79c0-.34.08-.66.12-1,0,.45-2.37,1.72-2.8,2s-2.42,3.1-2.76,3-.39-.43-.41-.73c-.13-1.2-.39-2.38-.54-3.56-.1-1,.09-2.07,0-3.12a28.49,28.49,0,0,0-.77-2.79A8,8,0,0,0,113.18,74Z" style="fill:#bbdff5"/><path d="M130.31,101c-.06.17-.66.26-.62.11a22.62,22.62,0,0,0,.92-7.28A53.54,53.54,0,0,0,130.4,88c-.37-3.26-1.37-7-3.86-9.32a4.38,4.38,0,0,0-3.73-1.37,5.85,5.85,0,0,0-3.53,3c-1.88,3.13-2.29,6.92-2.21,10.49.09,3.22.13,6.75,1.33,9.79.07.15-.56.35-.62.17A20.59,20.59,0,0,1,116.65,95a42.92,42.92,0,0,1-.15-7.17c.27-3.34,1.24-7.3,3.92-9.55a4.85,4.85,0,0,1,6.36-.09c2.89,2.38,4,6.64,4.28,10.2.39,4,.58,8.67-.75,12.59Z" style="fill:#293141"/><path d="M123.54,102.38c-.1-.08.45-.32.58-.21a2.4,2.4,0,0,0,2.91.34c.13-.08.75-.13.48,0a3.22,3.22,0,0,1-4-.17Z" style="fill:#293141"/><path d="M117.43,101.18c.2-.21.78-.1.52.2-1.52,1.73-2.42,4.09-3.39,6.14a66.61,66.61,0,0,0-4.22,11.42c-.77,2.91-1.34,5.87-1.92,8.82-.39,2-.82,3.9-1.1,5.85a2.08,2.08,0,0,0-.21-.21c1.39.3,2.83.51,4.24.68a52.14,52.14,0,0,0,16.54-.17c3.49-.64,7-1.39,10.43-2.16l-.26.3c-.81-5.33-1.61-10.67-2.76-15.94-1.09-4.92-2.42-10.17-5.27-14.39-.17-.28.41-.52.58-.28,2.82,4.18,4.15,9.34,5.24,14.2,1.23,5.36,2,10.82,2.85,16.24,0,.15-.1.25-.25.3-1.57.34-3.11.68-4.69,1-5,1-10,2.06-15.17,1.93a62,62,0,0,1-11.67-1.31c-.11,0-.24-.08-.22-.21.35-2.44.88-4.86,1.37-7.28a80.93,80.93,0,0,1,3.22-12.77c1-2.53,2.1-5,3.27-7.41a22.05,22.05,0,0,1,2.87-5Z" style="fill:#293141"/><path d="M150.23,93.9c0-.19.6-.34.62-.17a16.22,16.22,0,0,1-4.54,13.56c-3.08,2.95-7.71,4.3-11.89,4.65-.4,0,.05-.3.26-.33,4.18-.34,8.89-1.79,11.72-5a16.2,16.2,0,0,0,3.83-12.68Z" style="fill:#293141"/><path d="M139.42,126.62a3.64,3.64,0,0,0,.76-.7,4.53,4.53,0,0,0,.78-1.47,5.91,5.91,0,0,0,.25-2.17,3.36,3.36,0,0,0-.06-.63c0-.22-.09-.43-.13-.64s-.13-.44-.19-.65-.08-.21-.13-.34l-.12-.31a11.86,11.86,0,0,0-1.5-2.43c-.59-.73-1.22-1.43-1.87-2.1s-1.27-1.31-1.79-2a10.8,10.8,0,0,1-1.35-2,5,5,0,0,1-.4-1l-.07-.25-.06-.25,0-.13,0-.06v-.19a.55.55,0,0,1-.1-.3.63.63,0,0,1,.1-.51v-.28c-.13-.09-.1-.19-.1-.3,0-.39.06-.79.1-1.2a13.74,13.74,0,0,0,.11-2.48,3.85,3.85,0,0,0-.09-.62,4.9,4.9,0,0,0-.51-1.57,4.24,4.24,0,0,0-1.07-1.35,2.82,2.82,0,0,0-1-.47,1.11,1.11,0,0,1-.27-.13h-.09l.28.22a2.38,2.38,0,0,1,.55.72,3.33,3.33,0,0,1,.39,1.29,5.58,5.58,0,0,1,0,.81c0,.15,0,.28,0,.45s-.05.26-.07.43a21,21,0,0,1-.62,2.12,11.85,11.85,0,0,0-.36,1.29,5.23,5.23,0,0,0-.15.73,7.17,7.17,0,0,0-.09.81,2.82,2.82,0,0,0,0,.39v.21l0,.21a3.13,3.13,0,0,0,0,.43c0,.15.05.3.07.43a9.74,9.74,0,0,0,.49,1.65,11.41,11.41,0,0,0,1.74,2.78,21.89,21.89,0,0,0,2.12,2.19c.7.64,1.37,1.24,2,1.82a15.85,15.85,0,0,1,1.54,1.73l.09.13,0,.07,0,0v0c0,.06.08.14.13.21s.16.27.25.42a5.83,5.83,0,0,1,.38.88,5.35,5.35,0,0,1,.21,3,1.22,1.22,0,0,1-.09.27.69.69,0,0,1-.08.23c-.06.13-.11.28-.17.38l-.17.32Z" style="fill:#525e6d"/><path d="M120.36,130.64c.08,0,.18-.09.26-.15a4.33,4.33,0,0,0,1.86-2.42,3.24,3.24,0,0,0,.15-1.28,1.69,1.69,0,0,0,0-.35c0-.08,0-.19,0-.29s0-.21-.07-.33l-.06-.31a8.52,8.52,0,0,1-.33-2.32,2.57,2.57,0,0,1,.25-1l0-.06h0c0,.06,0,0,0,0v-.26l0,0,.09-.17a1.65,1.65,0,0,1,.14-.26c.11-.19.24-.38.36-.57.3-.42.6-.84.89-1.29a8.47,8.47,0,0,0,.91-1.67,4.81,4.81,0,0,0,.32-1.14,4.24,4.24,0,0,0,0-1.33,3.85,3.85,0,0,0-.47-1.25,4.68,4.68,0,0,0-.7-1,3.41,3.41,0,0,0-.38-.38,2.18,2.18,0,0,0-.4-.34l-.1-.09-.11-.08-.08-.06-.11-.07-.23-.15-.21-.12a15.42,15.42,0,0,0-1.61-.85c-.49-.25-1-.46-1.33-.67l-.15-.09h0l0,0,0,0,0,0-.09-.06-.17-.11-.08,0-.07,0-.23-.17-.25-.19a7,7,0,0,1-1.59-2,7.93,7.93,0,0,1-.53-1.1c-.08-.19-.14-.38-.21-.55s-.1-.38-.15-.55l0-.13,0-.06v-.19h0v-.1l0-.29a.86.86,0,0,0,0-.21.9.9,0,0,1,0-.22,4.67,4.67,0,0,1,.08-.91,6.27,6.27,0,0,1,.25-.81c.1-.22.2-.45.33-.68s.39-.62.6-.91l.25-.31-.11,0a1.75,1.75,0,0,0-.27.12,6.26,6.26,0,0,0-1,.64,4.79,4.79,0,0,0-1.21,1.44,4.6,4.6,0,0,0-.46,1.16,1.61,1.61,0,0,0-.06.33c0,.13,0,.27,0,.37s0,.19,0,.31v.55a9,9,0,0,0,.53,3,8.46,8.46,0,0,0,1.82,3l.32.34a3.16,3.16,0,0,0,.38.34l.1.09.09.06.17.13.08.06,0,0,0,0,.06,0,.19.12c.26.17.53.34.79.49s.5.28.74.43a12,12,0,0,1,1.31.76l.15.08.11.09.06.06.08.06,0,0,0,0h0l0,0,.06,0,.23.21.11.11a.35.35,0,0,1,.08.1,1.55,1.55,0,0,1,.43.68,1.72,1.72,0,0,1,0,.32,1.35,1.35,0,0,1-.11.46,2.74,2.74,0,0,1-.25.58c-.11.21-.21.42-.34.65-.25.45-.53.91-.78,1.44q-.19.39-.39.81c-.06.13-.12.32-.17.44v.43l0,.12,0,.13a5,5,0,0,0-.14,1.88,5.68,5.68,0,0,0,.41,1.57q.29.67.54,1.2c.08.16.16.35.25.51l.18.46a2.59,2.59,0,0,1,.15.83,3.12,3.12,0,0,1-.09.8,7.35,7.35,0,0,1-.2.71,5.37,5.37,0,0,1-.5.95,2.45,2.45,0,0,0-.16.24l-.07.09Z" style="fill:#525e6d"/><path d="M131.21,102.38a5.31,5.31,0,0,1-.34.62,8.35,8.35,0,0,1-.58.88c-.26.34-.54.69-.84,1a9.19,9.19,0,0,1-1.09,1c-.08.07-.21.13-.3.22l-.32.21a1.66,1.66,0,0,1-.32.17l-.17.09,0,0h0l0,0-.07,0-.1,0-.11,0-.09,0-.15.06a2.47,2.47,0,0,1-.36.11,5.62,5.62,0,0,1-.77.17,10.89,10.89,0,0,1-1.72.15H122l-1.63-.23a3.92,3.92,0,0,1-.69-.2l-.17-.06-.08,0,0-.13h0c.07.15,0,.21,0,.21h.07l-.19-.1-.09-.05-.06,0a1.08,1.08,0,0,1-.28-.15l-.28-.19a3.44,3.44,0,0,1-.49-.45,6,6,0,0,1-.8-1,5.82,5.82,0,0,1-.49-.92c-.13-.28-.21-.49-.28-.66l-.1-.24a1.1,1.1,0,0,0-.09.26c0,.11-.06.19-.09.3a3.25,3.25,0,0,0-.08.43,4.81,4.81,0,0,0,0,1.2,5.21,5.21,0,0,0,.38,1.58l.19.43a1.9,1.9,0,0,0,.26.43,3.3,3.3,0,0,0,.3.43,4,4,0,0,0,.39.43l.1.1.11.09.17.15.26.19c.08.07.17.11.23.17a7.11,7.11,0,0,0,1,.56,8.15,8.15,0,0,0,2.27.53c.37,0,.75.07,1.12.09s.71,0,1.09,0a9,9,0,0,0,2.36-.32,5.13,5.13,0,0,0,1.15-.43,3.06,3.06,0,0,0,.54-.28,1.75,1.75,0,0,0,.28-.17l.15-.08.1-.07.11-.06,0,0,0,0h0l0,0,.24-.19a5.36,5.36,0,0,0,.42-.39,6.75,6.75,0,0,0,.71-.81,7.33,7.33,0,0,0,.92-1.67,8.14,8.14,0,0,0,.41-1.52,5.83,5.83,0,0,0,0-1.18,3.67,3.67,0,0,0-.11-.75l-.06-.26Z" style="fill:#525e6d"/><path d="M126.11,98c.2,0,.54,0,.54.24s-.52.38-.71.4a3.09,3.09,0,0,1-3.28-1.8c-.15-.36,1.08-.72,1.25-.32a2.34,2.34,0,0,0,2.2,1.48Z" style="fill:#293141"/><path d="M156.17,83.68a8.2,8.2,0,0,1,1.57.17,7,7,0,1,1-3.14,13.72h0l-9.13-1.44-7.1-1.21c-3-.43-6.07-.77-9.13-1a10.81,10.81,0,0,1-1.8-.23h0a2.5,2.5,0,0,1-2.45-2,2.16,2.16,0,0,1,.49-2.06,2,2,0,0,1,.43-.34,2.43,2.43,0,0,1,1.42-.51h0a14.45,14.45,0,0,1,2-.19c2.88-.23,5.77-.57,8.64-1l6.94-1.29,9-2.19h0a6.73,6.73,0,0,1,2.3-.41Z" style="fill:#f2f2f2"/><path d="M126,88.91a2.08,2.08,0,0,0-.53,1,2.55,2.55,0,0,0,1.5,2.74,7.69,7.69,0,0,0,2.85.6c8.29.64,16.47,2.08,24.65,3.51a11.71,11.71,0,0,1-3.56-3.3,6.44,6.44,0,0,1-1-4.67c.42-2.14,2.14-3.72,3.74-5.18a125.54,125.54,0,0,1-23.73,4.2,14.29,14.29,0,0,0-2,.19A3.42,3.42,0,0,0,126,88.91Z" style="fill:#fff"/><path d="M136.29,93.62c.43,0,0,.35-.26.32a3.41,3.41,0,0,1-3.43-3.66,3.69,3.69,0,0,1,3.67-3.17c.4,0-.05.32-.26.32-3.9.19-3.43,6,.28,6.19Z" style="fill:#293141"/><path d="M145.6,95.16c.43.07.07.45-.21.41a5.15,5.15,0,0,1-4.52-4.9,5.32,5.32,0,0,1,4.41-5.29c.39-.07.5.3.11.38a4.75,4.75,0,0,0-3.88,5,4.83,4.83,0,0,0,4.09,4.43Z" style="fill:#293141"/><circle cx="156.91" cy="90.05" r="7.09" style="fill:#bbdff5"/><path d="M155.46,96.75c.4.06,0,.45-.24.41-4.15-.67-8.29-1.31-12.44-2-2.23-.38-4.48-.85-6.73-1.15-2-.26-4.11-.39-6.17-.56a21.29,21.29,0,0,1-2.63-.26,1.67,1.67,0,0,1-.32-.08,2.67,2.67,0,0,1-1.67-3.39c.81-2.29,4-2,6-2.16l4-.36c.43,0,.86-.09,1.28-.15l7.5-1.4c3.56-.66,7.05-1.62,10.54-2.48.38-.09.47.28.11.38-3.86,1-7.67,2-11.57,2.68-2.23.41-4.48.88-6.7,1.24-1.72.3-3.52.35-5.25.52-1,.08-2,.19-3.07.28a2.29,2.29,0,0,0-1.26,4.26,7.26,7.26,0,0,0,2.91.51l4.07.37c3.88.36,7.71,1.11,11.55,1.77,3.36.56,6.72,1,10.09,1.59Z" style="fill:#293141"/><path d="M159.08,92.36l-.05,0a3.36,3.36,0,0,1-2.37.67h0a.25.25,0,0,1-.15,0,3.16,3.16,0,1,1,.83-6.27,3.25,3.25,0,0,1,2.19,1.15,3.17,3.17,0,0,1,.73,2.34A3.35,3.35,0,0,1,159.08,92.36Z" style="fill:#fff"/><path d="M156.83,91.33h-.07a1.52,1.52,0,0,1-1.27-1.79,1.55,1.55,0,0,1,1.72-1.23,1.53,1.53,0,0,1,1.29,1.74A1.49,1.49,0,0,1,156.83,91.33Z" style="fill:#293141"/><path d="M164.26,90a7.44,7.44,0,0,1-13.79,3.75,7.27,7.27,0,0,1,.85-8.46,7.64,7.64,0,0,1,8-2.12,7.31,7.31,0,0,1,4.9,6.83c0,.24-.62.37-.62.07a7.05,7.05,0,0,0-5.36-6.75,6.69,6.69,0,0,0-7.36,3.41,7,7,0,0,0,.68,7.56,6.85,6.85,0,0,0,7.84,2.14,6.92,6.92,0,0,0,4.2-6.36C163.64,89.85,164.26,89.72,164.26,90Z" style="fill:#293141"/><path d="M145.37,91.78c.3.13-.28.43-.49.34-1.74-.77-1.12,3.88-1.16,4.72a29.3,29.3,0,0,1-1.11,6.49,23.34,23.34,0,0,1-13.11,15.18c-5.27,2.19-11.59,2.25-15.45-2.53-.19-.23.41-.45.58-.25a10.55,10.55,0,0,0,9.64,3.77c7.26-.77,13.43-6.11,16.41-12.6a25,25,0,0,0,2.44-11.24c0-1-.34-2.44.24-3.37a1.61,1.61,0,0,1,2-.51Z" style="fill:#293141"/><path d="M146.33,190.72h-88a2.26,2.26,0,0,1-1.18-.33,16.89,16.89,0,0,1,8.39-31.56,6.18,6.18,0,0,1,1,0,2.35,2.35,0,0,0,2.31-1.37,24.85,24.85,0,0,1,22.88-15c4.77,0,12.51,2,16.54,5a27.25,27.25,0,0,1,7.4,7.85,55.91,55.91,0,0,1,3.47,7.88,20.09,20.09,0,0,1,.72,3c.3,1.22,1.5,4,3.24,2.93a38.25,38.25,0,0,1,4.34-2.86,12.07,12.07,0,0,1,11.23.57c.49.3,4.5,2.59,5.93.45a16.48,16.48,0,0,1,1.28-1.07c.58-.6,1.31-.87,1.91-1.47a16.72,16.72,0,0,0,1.8-2.14,3.65,3.65,0,0,1,1-.92c.34-.26.69-.49,1-.75a15.42,15.42,0,0,1,8.69-2.63A16.65,16.65,0,0,1,175.45,168a2.32,2.32,0,0,0,2.14,1.35h.26a11.36,11.36,0,0,1,5.84,21.09,2.29,2.29,0,0,1-1.18.33Z" style="fill:#fff"/><path d="M166.66,172.19c.43.06.19-.26-.09-.3a9.4,9.4,0,0,0-5.91,17.63c.19.1.75,0,.39-.15a9.26,9.26,0,0,1-4.35-11.1,9.1,9.1,0,0,1,10-6.08Z" style="fill:#293141"/><path d="M146.23,190.72c-.41-.09,0,.23.25.21h35.73a5.91,5.91,0,0,0,1,0,4.62,4.62,0,0,0,2.08-1.2,11.49,11.49,0,0,0,4.3-9.57A11.82,11.82,0,0,0,176,169.36l.51.19a17.25,17.25,0,0,0-27.24-7.39c-.15.13.42.37.57.24a16.32,16.32,0,0,1,26.05,7.07c.06.17.36.21.51.19a10.89,10.89,0,0,1,11,5.08,11.3,11.3,0,0,1-3.6,15.46c-.6.39-.53.43-1.07.52Z" style="fill:#293141"/><path d="M138.84,190.93h2.29c.4,0,0-.3-.26-.43h-2.29C138.17,190.63,138.62,191,138.84,190.93Z" style="fill:#293141"/><path d="M173.09,177.65c.42.06.19-.26-.11-.3a6.47,6.47,0,0,0-4.09,12.14c.17.11.73,0,.38-.15a6.25,6.25,0,0,1,3.82-11.69Z" style="fill:#293141"/><path d="M145.09,180.31c0,.21.6.34.62.17a13.14,13.14,0,0,0-1.46-8.46,13.71,13.71,0,0,0-11-6.92,13.48,13.48,0,0,0-12.7,7.07c-.09.15.51.36.62.17a12.74,12.74,0,0,1,23.9,8Z" style="fill:#293141"/><path d="M157,172.17c0,.21.6.34.62.17a7.14,7.14,0,0,0-4.77-7.78,7.26,7.26,0,0,0-8.72,3.34c-.09.15.51.37.62.18a6.67,6.67,0,0,1,8.2-3.17,6.75,6.75,0,0,1,4.05,7.26Z" style="fill:#293141"/><path d="M130.42,188.68c-.22.07.32.32.49.28a7.61,7.61,0,0,0,5.53-8.23,7.9,7.9,0,0,0-7.31-6.7c-.43,0-.19.28.11.3a7.26,7.26,0,0,1,6.64,7.41,7.44,7.44,0,0,1-5.46,6.94Z" style="fill:#293141"/><path d="M90.88,188.6c-.3.17.23.49.47.36a14.3,14.3,0,0,0,6.08-6.3,14.12,14.12,0,0,0-15-20c-.41.06-.09.49.21.45a13.55,13.55,0,0,1,14.85,9,13.8,13.8,0,0,1-6.6,16.5Z" style="fill:#293141"/><path d="M119.71,167.41c0,.28.66.37.62,0a31.09,31.09,0,0,0-2.74-9.12,28.81,28.81,0,0,0-7.22-9.68,26.78,26.78,0,0,0-13.58-6,27.49,27.49,0,0,0-17.44,2.76A25.55,25.55,0,0,0,67.83,159l.28-.15A17,17,0,0,0,49,180.73a16.86,16.86,0,0,0,3.94,6.75A17.53,17.53,0,0,0,55.88,190a6.19,6.19,0,0,0,1.82,1,15.32,15.32,0,0,0,3.45-.06h51.38c.43.06.3-.39-.06-.43h-.19c-1.31-.08-2.68,0-4,0H58.79a3.21,3.21,0,0,1-1.11,0,5.79,5.79,0,0,1-1.76-1.11,16.69,16.69,0,0,1,12.25-30.09.27.27,0,0,0,.28-.15,25.09,25.09,0,0,1,13.43-14.46c9.79-4.24,22.39-1.89,29.8,5.82a30.43,30.43,0,0,1,8,16.86Z" style="fill:#293141"/><path d="M120.58,190.93h3.24c.41,0,.29-.43-.06-.43h-3.24C120.11,190.48,120.23,190.93,120.58,190.93Z" style="fill:#293141"/><path d="M80.34,188.57c-.3.18.24.5.47.37a9.73,9.73,0,0,0,4.5-12,9.93,9.93,0,0,0-10.71-6.1c-.41.06-.09.49.21.45a9.13,9.13,0,0,1,10.09,6.25,9.37,9.37,0,0,1-4.56,11Z" style="fill:#293141"/><path d="M104.42,188.1c-.3.17.23.5.47.37a17.12,17.12,0,0,0-10.84-32c-.41.07-.09.5.21.45a16.29,16.29,0,0,1,10.43,1.76,16.7,16.7,0,0,1-.27,29.45Z" style="fill:#293141"/><path d="M68.64,188.57c-.29.18.24.5.48.37A7.2,7.2,0,0,0,72.39,180a7.39,7.39,0,0,0-7.94-4.46c-.41.07-.09.49.21.45a6.65,6.65,0,0,1,7.39,4.84,6.81,6.81,0,0,1-3.41,7.73Z" style="fill:#293141"/></svg>